G04 #@! TF.GenerationSoftware,KiCad,Pcbnew,(5.1.2)-1*
G04 #@! TF.CreationDate,2020-02-22T00:02:01+09:00*
G04 #@! TF.ProjectId,rkbd_44,726b6264-5f34-4342-9e6b-696361645f70,rev?*
G04 #@! TF.SameCoordinates,Original*
G04 #@! TF.FileFunction,Legend,Bot*
G04 #@! TF.FilePolarity,Positive*
%FSLAX46Y46*%
G04 Gerber Fmt 4.6, Leading zero omitted, Abs format (unit mm)*
G04 Created by KiCad (PCBNEW (5.1.2)-1) date 2020-02-22 00:02:01*
%MOMM*%
%LPD*%
G04 APERTURE LIST*
%ADD10C,0.120000*%
%ADD11C,0.150000*%
%ADD12C,0.125000*%
G04 APERTURE END LIST*
D10*
X250376250Y-59766250D02*
X252476250Y-59526250D01*
D11*
X141096250Y-92696250D02*
X142106250Y-92696250D01*
X158896250Y-92696250D02*
X157896250Y-92696250D01*
X141096250Y-91696250D02*
X141096250Y-92696250D01*
X158896250Y-91646250D02*
X158896250Y-92696250D01*
X141096250Y-59646250D02*
X142046250Y-59646250D01*
X158896250Y-59646250D02*
X157896250Y-59646250D01*
X141096250Y-59646250D02*
X141096250Y-60646250D01*
X158896250Y-59646250D02*
X158896250Y-60646250D01*
X153746250Y-56746250D02*
X153746250Y-58046250D01*
X153746250Y-58046250D02*
X146246250Y-58046250D01*
X146246250Y-58046250D02*
X146246250Y-56746250D01*
X146246250Y-56746250D02*
X153746250Y-56746250D01*
X150496250Y-57096250D02*
X149496250Y-57096250D01*
X149496250Y-57096250D02*
X149996250Y-57746250D01*
X149996250Y-57746250D02*
X150496250Y-57096250D01*
X150346250Y-57246250D02*
X149646250Y-57246250D01*
X150246250Y-57396250D02*
X149746250Y-57396250D01*
X150146250Y-57546250D02*
X149846250Y-57546250D01*
X160996250Y-64976250D02*
X166196250Y-64976250D01*
X166196250Y-64976250D02*
X166196250Y-59776250D01*
X166196250Y-59776250D02*
X160996250Y-59776250D01*
X160996250Y-59776250D02*
X160996250Y-64976250D01*
X164596250Y-62376250D02*
G75*
G03X164596250Y-62376250I-1000000J0D01*
G01*
D10*
X207300000Y-134350000D02*
X211200000Y-134350000D01*
X207300000Y-132350000D02*
X211200000Y-132350000D01*
X207300000Y-134350000D02*
X207300000Y-132350000D01*
X188250000Y-134350000D02*
X192150000Y-134350000D01*
X188250000Y-132350000D02*
X192150000Y-132350000D01*
X188250000Y-134350000D02*
X188250000Y-132350000D01*
X166818750Y-134350000D02*
X170718750Y-134350000D01*
X166818750Y-132350000D02*
X170718750Y-132350000D01*
X166818750Y-134350000D02*
X166818750Y-132350000D01*
X145387500Y-134350000D02*
X149287500Y-134350000D01*
X145387500Y-132350000D02*
X149287500Y-132350000D01*
X145387500Y-134350000D02*
X145387500Y-132350000D01*
X121575000Y-134350000D02*
X125475000Y-134350000D01*
X121575000Y-132350000D02*
X125475000Y-132350000D01*
X121575000Y-134350000D02*
X121575000Y-132350000D01*
X102525000Y-134350000D02*
X106425000Y-134350000D01*
X102525000Y-132350000D02*
X106425000Y-132350000D01*
X102525000Y-134350000D02*
X102525000Y-132350000D01*
X273975000Y-120062500D02*
X277875000Y-120062500D01*
X273975000Y-118062500D02*
X277875000Y-118062500D01*
X273975000Y-120062500D02*
X273975000Y-118062500D01*
X254925000Y-120062500D02*
X258825000Y-120062500D01*
X254925000Y-118062500D02*
X258825000Y-118062500D01*
X254925000Y-120062500D02*
X254925000Y-118062500D01*
X235875000Y-115300000D02*
X239775000Y-115300000D01*
X235875000Y-113300000D02*
X239775000Y-113300000D01*
X235875000Y-115300000D02*
X235875000Y-113300000D01*
X216825000Y-115300000D02*
X220725000Y-115300000D01*
X216825000Y-113300000D02*
X220725000Y-113300000D01*
X216825000Y-115300000D02*
X216825000Y-113300000D01*
X197775000Y-115300000D02*
X201675000Y-115300000D01*
X197775000Y-113300000D02*
X201675000Y-113300000D01*
X197775000Y-115300000D02*
X197775000Y-113300000D01*
X178725000Y-115300000D02*
X182625000Y-115300000D01*
X178725000Y-113300000D02*
X182625000Y-113300000D01*
X178725000Y-115300000D02*
X178725000Y-113300000D01*
X154912500Y-115300000D02*
X158812500Y-115300000D01*
X154912500Y-113300000D02*
X158812500Y-113300000D01*
X154912500Y-115300000D02*
X154912500Y-113300000D01*
X131831250Y-115300000D02*
X135731250Y-115300000D01*
X131831250Y-113300000D02*
X135731250Y-113300000D01*
X131831250Y-115300000D02*
X131831250Y-113300000D01*
X112050000Y-115300000D02*
X115950000Y-115300000D01*
X112050000Y-113300000D02*
X115950000Y-113300000D01*
X112050000Y-115300000D02*
X112050000Y-113300000D01*
X93000000Y-115300000D02*
X96900000Y-115300000D01*
X93000000Y-113300000D02*
X96900000Y-113300000D01*
X93000000Y-115300000D02*
X93000000Y-113300000D01*
X73950000Y-115300000D02*
X77850000Y-115300000D01*
X73950000Y-113300000D02*
X77850000Y-113300000D01*
X73950000Y-115300000D02*
X73950000Y-113300000D01*
X54900000Y-120062500D02*
X58800000Y-120062500D01*
X54900000Y-118062500D02*
X58800000Y-118062500D01*
X54900000Y-120062500D02*
X54900000Y-118062500D01*
X35850000Y-120062500D02*
X39750000Y-120062500D01*
X35850000Y-118062500D02*
X39750000Y-118062500D01*
X35850000Y-120062500D02*
X35850000Y-118062500D01*
X273975000Y-101012500D02*
X277875000Y-101012500D01*
X273975000Y-99012500D02*
X277875000Y-99012500D01*
X273975000Y-101012500D02*
X273975000Y-99012500D01*
X254925000Y-101012500D02*
X258825000Y-101012500D01*
X254925000Y-99012500D02*
X258825000Y-99012500D01*
X254925000Y-101012500D02*
X254925000Y-99012500D01*
X235875000Y-96250000D02*
X239775000Y-96250000D01*
X235875000Y-94250000D02*
X239775000Y-94250000D01*
X235875000Y-96250000D02*
X235875000Y-94250000D01*
X216825000Y-96250000D02*
X220725000Y-96250000D01*
X216825000Y-94250000D02*
X220725000Y-94250000D01*
X216825000Y-96250000D02*
X216825000Y-94250000D01*
X197775000Y-96250000D02*
X201675000Y-96250000D01*
X197775000Y-94250000D02*
X201675000Y-94250000D01*
X197775000Y-96250000D02*
X197775000Y-94250000D01*
X178725000Y-96250000D02*
X182625000Y-96250000D01*
X178725000Y-94250000D02*
X182625000Y-94250000D01*
X178725000Y-96250000D02*
X178725000Y-94250000D01*
X154912500Y-96250000D02*
X158812500Y-96250000D01*
X154912500Y-94250000D02*
X158812500Y-94250000D01*
X154912500Y-96250000D02*
X154912500Y-94250000D01*
X131100000Y-96250000D02*
X135000000Y-96250000D01*
X131100000Y-94250000D02*
X135000000Y-94250000D01*
X131100000Y-96250000D02*
X131100000Y-94250000D01*
X112050000Y-96250000D02*
X115950000Y-96250000D01*
X112050000Y-94250000D02*
X115950000Y-94250000D01*
X112050000Y-96250000D02*
X112050000Y-94250000D01*
X93000000Y-96250000D02*
X96900000Y-96250000D01*
X93000000Y-94250000D02*
X96900000Y-94250000D01*
X93000000Y-96250000D02*
X93000000Y-94250000D01*
X73950000Y-96250000D02*
X77850000Y-96250000D01*
X73950000Y-94250000D02*
X77850000Y-94250000D01*
X73950000Y-96250000D02*
X73950000Y-94250000D01*
X54900000Y-101012500D02*
X58800000Y-101012500D01*
X54900000Y-99012500D02*
X58800000Y-99012500D01*
X54900000Y-101012500D02*
X54900000Y-99012500D01*
X35850000Y-101012500D02*
X39750000Y-101012500D01*
X35850000Y-99012500D02*
X39750000Y-99012500D01*
X35850000Y-101012500D02*
X35850000Y-99012500D01*
X273975000Y-81962500D02*
X277875000Y-81962500D01*
X273975000Y-79962500D02*
X277875000Y-79962500D01*
X273975000Y-81962500D02*
X273975000Y-79962500D01*
X254925000Y-81962500D02*
X258825000Y-81962500D01*
X254925000Y-79962500D02*
X258825000Y-79962500D01*
X254925000Y-81962500D02*
X254925000Y-79962500D01*
X235875000Y-77200000D02*
X239775000Y-77200000D01*
X235875000Y-75200000D02*
X239775000Y-75200000D01*
X235875000Y-77200000D02*
X235875000Y-75200000D01*
X216825000Y-77200000D02*
X220725000Y-77200000D01*
X216825000Y-75200000D02*
X220725000Y-75200000D01*
X216825000Y-77200000D02*
X216825000Y-75200000D01*
X197775000Y-77200000D02*
X201675000Y-77200000D01*
X197775000Y-75200000D02*
X201675000Y-75200000D01*
X197775000Y-77200000D02*
X197775000Y-75200000D01*
X178725000Y-77200000D02*
X182625000Y-77200000D01*
X178725000Y-75200000D02*
X182625000Y-75200000D01*
X178725000Y-77200000D02*
X178725000Y-75200000D01*
X131100000Y-77200000D02*
X135000000Y-77200000D01*
X131100000Y-75200000D02*
X135000000Y-75200000D01*
X131100000Y-77200000D02*
X131100000Y-75200000D01*
X112050000Y-77200000D02*
X115950000Y-77200000D01*
X112050000Y-75200000D02*
X115950000Y-75200000D01*
X112050000Y-77200000D02*
X112050000Y-75200000D01*
X93000000Y-77200000D02*
X96900000Y-77200000D01*
X93000000Y-75200000D02*
X96900000Y-75200000D01*
X93000000Y-77200000D02*
X93000000Y-75200000D01*
X73950000Y-77200000D02*
X77850000Y-77200000D01*
X73950000Y-75200000D02*
X77850000Y-75200000D01*
X73950000Y-77200000D02*
X73950000Y-75200000D01*
X54900000Y-81962500D02*
X58800000Y-81962500D01*
X54900000Y-79962500D02*
X58800000Y-79962500D01*
X54900000Y-81962500D02*
X54900000Y-79962500D01*
X35850000Y-81962500D02*
X39750000Y-81962500D01*
X35850000Y-79962500D02*
X39750000Y-79962500D01*
X35850000Y-81962500D02*
X35850000Y-79962500D01*
D11*
D12*
X159728630Y-63106964D02*
X159505297Y-63464107D01*
X159345773Y-63106964D02*
X159345773Y-63856964D01*
X159601011Y-63856964D01*
X159664821Y-63821250D01*
X159696726Y-63785535D01*
X159728630Y-63714107D01*
X159728630Y-63606964D01*
X159696726Y-63535535D01*
X159664821Y-63499821D01*
X159601011Y-63464107D01*
X159345773Y-63464107D01*
X159983869Y-63321250D02*
X160302916Y-63321250D01*
X159920059Y-63106964D02*
X160143392Y-63856964D01*
X160366726Y-63106964D01*
X160526250Y-63856964D02*
X160685773Y-63106964D01*
X160813392Y-63642678D01*
X160941011Y-63106964D01*
X161100535Y-63856964D01*
X159680773Y-66371250D02*
X159616964Y-66406964D01*
X159521250Y-66406964D01*
X159425535Y-66371250D01*
X159361726Y-66299821D01*
X159329821Y-66228392D01*
X159297916Y-66085535D01*
X159297916Y-65978392D01*
X159329821Y-65835535D01*
X159361726Y-65764107D01*
X159425535Y-65692678D01*
X159521250Y-65656964D01*
X159585059Y-65656964D01*
X159680773Y-65692678D01*
X159712678Y-65728392D01*
X159712678Y-65978392D01*
X159585059Y-65978392D01*
X159999821Y-65656964D02*
X159999821Y-66406964D01*
X160382678Y-65656964D01*
X160382678Y-66406964D01*
X160701726Y-65656964D02*
X160701726Y-66406964D01*
X160861250Y-66406964D01*
X160956964Y-66371250D01*
X161020773Y-66299821D01*
X161052678Y-66228392D01*
X161084583Y-66085535D01*
X161084583Y-65978392D01*
X161052678Y-65835535D01*
X161020773Y-65764107D01*
X160956964Y-65692678D01*
X160861250Y-65656964D01*
X160701726Y-65656964D01*
X159824345Y-68206964D02*
X159601011Y-68564107D01*
X159441488Y-68206964D02*
X159441488Y-68956964D01*
X159696726Y-68956964D01*
X159760535Y-68921250D01*
X159792440Y-68885535D01*
X159824345Y-68814107D01*
X159824345Y-68706964D01*
X159792440Y-68635535D01*
X159760535Y-68599821D01*
X159696726Y-68564107D01*
X159441488Y-68564107D01*
X160079583Y-68242678D02*
X160175297Y-68206964D01*
X160334821Y-68206964D01*
X160398630Y-68242678D01*
X160430535Y-68278392D01*
X160462440Y-68349821D01*
X160462440Y-68421250D01*
X160430535Y-68492678D01*
X160398630Y-68528392D01*
X160334821Y-68564107D01*
X160207202Y-68599821D01*
X160143392Y-68635535D01*
X160111488Y-68671250D01*
X160079583Y-68742678D01*
X160079583Y-68814107D01*
X160111488Y-68885535D01*
X160143392Y-68921250D01*
X160207202Y-68956964D01*
X160366726Y-68956964D01*
X160462440Y-68921250D01*
X160653869Y-68956964D02*
X161036726Y-68956964D01*
X160845297Y-68206964D02*
X160845297Y-68956964D01*
X159297916Y-71406964D02*
X159521250Y-70656964D01*
X159744583Y-71406964D01*
X160350773Y-70728392D02*
X160318869Y-70692678D01*
X160223154Y-70656964D01*
X160159345Y-70656964D01*
X160063630Y-70692678D01*
X159999821Y-70764107D01*
X159967916Y-70835535D01*
X159936011Y-70978392D01*
X159936011Y-71085535D01*
X159967916Y-71228392D01*
X159999821Y-71299821D01*
X160063630Y-71371250D01*
X160159345Y-71406964D01*
X160223154Y-71406964D01*
X160318869Y-71371250D01*
X160350773Y-71335535D01*
X161020773Y-70728392D02*
X160988869Y-70692678D01*
X160893154Y-70656964D01*
X160829345Y-70656964D01*
X160733630Y-70692678D01*
X160669821Y-70764107D01*
X160637916Y-70835535D01*
X160606011Y-70978392D01*
X160606011Y-71085535D01*
X160637916Y-71228392D01*
X160669821Y-71299821D01*
X160733630Y-71371250D01*
X160829345Y-71406964D01*
X160893154Y-71406964D01*
X160988869Y-71371250D01*
X161020773Y-71335535D01*
X159405535Y-73571250D02*
X159724583Y-73571250D01*
X159341726Y-73356964D02*
X159565059Y-74106964D01*
X159788392Y-73356964D01*
X159947916Y-74106964D02*
X160362678Y-74106964D01*
X160139345Y-73821250D01*
X160235059Y-73821250D01*
X160298869Y-73785535D01*
X160330773Y-73749821D01*
X160362678Y-73678392D01*
X160362678Y-73499821D01*
X160330773Y-73428392D01*
X160298869Y-73392678D01*
X160235059Y-73356964D01*
X160043630Y-73356964D01*
X159979821Y-73392678D01*
X159947916Y-73428392D01*
X161128392Y-74142678D02*
X160554107Y-73178392D01*
X161575059Y-73749821D02*
X161351726Y-73749821D01*
X161351726Y-73356964D02*
X161351726Y-74106964D01*
X161670773Y-74106964D01*
X162213154Y-73856964D02*
X162213154Y-73356964D01*
X162053630Y-74142678D02*
X161894107Y-73606964D01*
X162308869Y-73606964D01*
X159405535Y-76071250D02*
X159724583Y-76071250D01*
X159341726Y-75856964D02*
X159565059Y-76606964D01*
X159788392Y-75856964D01*
X159979821Y-76535535D02*
X160011726Y-76571250D01*
X160075535Y-76606964D01*
X160235059Y-76606964D01*
X160298869Y-76571250D01*
X160330773Y-76535535D01*
X160362678Y-76464107D01*
X160362678Y-76392678D01*
X160330773Y-76285535D01*
X159947916Y-75856964D01*
X160362678Y-75856964D01*
X161128392Y-76642678D02*
X160554107Y-75678392D01*
X161575059Y-76249821D02*
X161351726Y-76249821D01*
X161351726Y-75856964D02*
X161351726Y-76606964D01*
X161670773Y-76606964D01*
X162245059Y-76606964D02*
X161926011Y-76606964D01*
X161894107Y-76249821D01*
X161926011Y-76285535D01*
X161989821Y-76321250D01*
X162149345Y-76321250D01*
X162213154Y-76285535D01*
X162245059Y-76249821D01*
X162276964Y-76178392D01*
X162276964Y-75999821D01*
X162245059Y-75928392D01*
X162213154Y-75892678D01*
X162149345Y-75856964D01*
X161989821Y-75856964D01*
X161926011Y-75892678D01*
X161894107Y-75928392D01*
X159405535Y-78571250D02*
X159724583Y-78571250D01*
X159341726Y-78356964D02*
X159565059Y-79106964D01*
X159788392Y-78356964D01*
X160362678Y-78356964D02*
X159979821Y-78356964D01*
X160171250Y-78356964D02*
X160171250Y-79106964D01*
X160107440Y-78999821D01*
X160043630Y-78928392D01*
X159979821Y-78892678D01*
X161128392Y-79142678D02*
X160554107Y-78178392D01*
X161575059Y-78749821D02*
X161351726Y-78749821D01*
X161351726Y-78356964D02*
X161351726Y-79106964D01*
X161670773Y-79106964D01*
X162213154Y-79106964D02*
X162085535Y-79106964D01*
X162021726Y-79071250D01*
X161989821Y-79035535D01*
X161926011Y-78928392D01*
X161894107Y-78785535D01*
X161894107Y-78499821D01*
X161926011Y-78428392D01*
X161957916Y-78392678D01*
X162021726Y-78356964D01*
X162149345Y-78356964D01*
X162213154Y-78392678D01*
X162245059Y-78428392D01*
X162276964Y-78499821D01*
X162276964Y-78678392D01*
X162245059Y-78749821D01*
X162213154Y-78785535D01*
X162149345Y-78821250D01*
X162021726Y-78821250D01*
X161957916Y-78785535D01*
X161926011Y-78749821D01*
X161894107Y-78678392D01*
X159405535Y-81121250D02*
X159724583Y-81121250D01*
X159341726Y-80906964D02*
X159565059Y-81656964D01*
X159788392Y-80906964D01*
X160139345Y-81656964D02*
X160203154Y-81656964D01*
X160266964Y-81621250D01*
X160298869Y-81585535D01*
X160330773Y-81514107D01*
X160362678Y-81371250D01*
X160362678Y-81192678D01*
X160330773Y-81049821D01*
X160298869Y-80978392D01*
X160266964Y-80942678D01*
X160203154Y-80906964D01*
X160139345Y-80906964D01*
X160075535Y-80942678D01*
X160043630Y-80978392D01*
X160011726Y-81049821D01*
X159979821Y-81192678D01*
X159979821Y-81371250D01*
X160011726Y-81514107D01*
X160043630Y-81585535D01*
X160075535Y-81621250D01*
X160139345Y-81656964D01*
X161128392Y-81692678D02*
X160554107Y-80728392D01*
X161575059Y-81299821D02*
X161351726Y-81299821D01*
X161351726Y-80906964D02*
X161351726Y-81656964D01*
X161670773Y-81656964D01*
X161862202Y-81656964D02*
X162308869Y-81656964D01*
X162021726Y-80906964D01*
X159708630Y-83456964D02*
X159325773Y-83456964D01*
X159517202Y-83456964D02*
X159517202Y-84206964D01*
X159453392Y-84099821D01*
X159389583Y-84028392D01*
X159325773Y-83992678D01*
X160314821Y-84206964D02*
X159995773Y-84206964D01*
X159963869Y-83849821D01*
X159995773Y-83885535D01*
X160059583Y-83921250D01*
X160219107Y-83921250D01*
X160282916Y-83885535D01*
X160314821Y-83849821D01*
X160346726Y-83778392D01*
X160346726Y-83599821D01*
X160314821Y-83528392D01*
X160282916Y-83492678D01*
X160219107Y-83456964D01*
X160059583Y-83456964D01*
X159995773Y-83492678D01*
X159963869Y-83528392D01*
X161112440Y-84242678D02*
X160538154Y-83278392D01*
X161559107Y-83849821D02*
X161654821Y-83814107D01*
X161686726Y-83778392D01*
X161718630Y-83706964D01*
X161718630Y-83599821D01*
X161686726Y-83528392D01*
X161654821Y-83492678D01*
X161591011Y-83456964D01*
X161335773Y-83456964D01*
X161335773Y-84206964D01*
X161559107Y-84206964D01*
X161622916Y-84171250D01*
X161654821Y-84135535D01*
X161686726Y-84064107D01*
X161686726Y-83992678D01*
X161654821Y-83921250D01*
X161622916Y-83885535D01*
X161559107Y-83849821D01*
X161335773Y-83849821D01*
X162356726Y-83456964D02*
X161973869Y-83456964D01*
X162165297Y-83456964D02*
X162165297Y-84206964D01*
X162101488Y-84099821D01*
X162037678Y-84028392D01*
X161973869Y-83992678D01*
X159708630Y-86006964D02*
X159325773Y-86006964D01*
X159517202Y-86006964D02*
X159517202Y-86756964D01*
X159453392Y-86649821D01*
X159389583Y-86578392D01*
X159325773Y-86542678D01*
X160282916Y-86506964D02*
X160282916Y-86006964D01*
X160123392Y-86792678D02*
X159963869Y-86256964D01*
X160378630Y-86256964D01*
X161112440Y-86792678D02*
X160538154Y-85828392D01*
X161559107Y-86399821D02*
X161654821Y-86364107D01*
X161686726Y-86328392D01*
X161718630Y-86256964D01*
X161718630Y-86149821D01*
X161686726Y-86078392D01*
X161654821Y-86042678D01*
X161591011Y-86006964D01*
X161335773Y-86006964D01*
X161335773Y-86756964D01*
X161559107Y-86756964D01*
X161622916Y-86721250D01*
X161654821Y-86685535D01*
X161686726Y-86614107D01*
X161686726Y-86542678D01*
X161654821Y-86471250D01*
X161622916Y-86435535D01*
X161559107Y-86399821D01*
X161335773Y-86399821D01*
X161941964Y-86756964D02*
X162356726Y-86756964D01*
X162133392Y-86471250D01*
X162229107Y-86471250D01*
X162292916Y-86435535D01*
X162324821Y-86399821D01*
X162356726Y-86328392D01*
X162356726Y-86149821D01*
X162324821Y-86078392D01*
X162292916Y-86042678D01*
X162229107Y-86006964D01*
X162037678Y-86006964D01*
X161973869Y-86042678D01*
X161941964Y-86078392D01*
X159708630Y-91056964D02*
X159325773Y-91056964D01*
X159517202Y-91056964D02*
X159517202Y-91806964D01*
X159453392Y-91699821D01*
X159389583Y-91628392D01*
X159325773Y-91592678D01*
X160123392Y-91806964D02*
X160187202Y-91806964D01*
X160251011Y-91771250D01*
X160282916Y-91735535D01*
X160314821Y-91664107D01*
X160346726Y-91521250D01*
X160346726Y-91342678D01*
X160314821Y-91199821D01*
X160282916Y-91128392D01*
X160251011Y-91092678D01*
X160187202Y-91056964D01*
X160123392Y-91056964D01*
X160059583Y-91092678D01*
X160027678Y-91128392D01*
X159995773Y-91199821D01*
X159963869Y-91342678D01*
X159963869Y-91521250D01*
X159995773Y-91664107D01*
X160027678Y-91735535D01*
X160059583Y-91771250D01*
X160123392Y-91806964D01*
X161112440Y-91842678D02*
X160538154Y-90878392D01*
X161559107Y-91449821D02*
X161654821Y-91414107D01*
X161686726Y-91378392D01*
X161718630Y-91306964D01*
X161718630Y-91199821D01*
X161686726Y-91128392D01*
X161654821Y-91092678D01*
X161591011Y-91056964D01*
X161335773Y-91056964D01*
X161335773Y-91806964D01*
X161559107Y-91806964D01*
X161622916Y-91771250D01*
X161654821Y-91735535D01*
X161686726Y-91664107D01*
X161686726Y-91592678D01*
X161654821Y-91521250D01*
X161622916Y-91485535D01*
X161559107Y-91449821D01*
X161335773Y-91449821D01*
X162292916Y-91806964D02*
X162165297Y-91806964D01*
X162101488Y-91771250D01*
X162069583Y-91735535D01*
X162005773Y-91628392D01*
X161973869Y-91485535D01*
X161973869Y-91199821D01*
X162005773Y-91128392D01*
X162037678Y-91092678D01*
X162101488Y-91056964D01*
X162229107Y-91056964D01*
X162292916Y-91092678D01*
X162324821Y-91128392D01*
X162356726Y-91199821D01*
X162356726Y-91378392D01*
X162324821Y-91449821D01*
X162292916Y-91485535D01*
X162229107Y-91521250D01*
X162101488Y-91521250D01*
X162037678Y-91485535D01*
X162005773Y-91449821D01*
X161973869Y-91378392D01*
X159708630Y-88556964D02*
X159325773Y-88556964D01*
X159517202Y-88556964D02*
X159517202Y-89306964D01*
X159453392Y-89199821D01*
X159389583Y-89128392D01*
X159325773Y-89092678D01*
X160282916Y-89306964D02*
X160155297Y-89306964D01*
X160091488Y-89271250D01*
X160059583Y-89235535D01*
X159995773Y-89128392D01*
X159963869Y-88985535D01*
X159963869Y-88699821D01*
X159995773Y-88628392D01*
X160027678Y-88592678D01*
X160091488Y-88556964D01*
X160219107Y-88556964D01*
X160282916Y-88592678D01*
X160314821Y-88628392D01*
X160346726Y-88699821D01*
X160346726Y-88878392D01*
X160314821Y-88949821D01*
X160282916Y-88985535D01*
X160219107Y-89021250D01*
X160091488Y-89021250D01*
X160027678Y-88985535D01*
X159995773Y-88949821D01*
X159963869Y-88878392D01*
X161112440Y-89342678D02*
X160538154Y-88378392D01*
X161559107Y-88949821D02*
X161654821Y-88914107D01*
X161686726Y-88878392D01*
X161718630Y-88806964D01*
X161718630Y-88699821D01*
X161686726Y-88628392D01*
X161654821Y-88592678D01*
X161591011Y-88556964D01*
X161335773Y-88556964D01*
X161335773Y-89306964D01*
X161559107Y-89306964D01*
X161622916Y-89271250D01*
X161654821Y-89235535D01*
X161686726Y-89164107D01*
X161686726Y-89092678D01*
X161654821Y-89021250D01*
X161622916Y-88985535D01*
X161559107Y-88949821D01*
X161335773Y-88949821D01*
X161973869Y-89235535D02*
X162005773Y-89271250D01*
X162069583Y-89306964D01*
X162229107Y-89306964D01*
X162292916Y-89271250D01*
X162324821Y-89235535D01*
X162356726Y-89164107D01*
X162356726Y-89092678D01*
X162324821Y-88985535D01*
X161941964Y-88556964D01*
X162356726Y-88556964D01*
X138258630Y-86349821D02*
X138481964Y-86349821D01*
X138577678Y-85956964D02*
X138258630Y-85956964D01*
X138258630Y-86706964D01*
X138577678Y-86706964D01*
X139151964Y-86706964D02*
X139024345Y-86706964D01*
X138960535Y-86671250D01*
X138928630Y-86635535D01*
X138864821Y-86528392D01*
X138832916Y-86385535D01*
X138832916Y-86099821D01*
X138864821Y-86028392D01*
X138896726Y-85992678D01*
X138960535Y-85956964D01*
X139088154Y-85956964D01*
X139151964Y-85992678D01*
X139183869Y-86028392D01*
X139215773Y-86099821D01*
X139215773Y-86278392D01*
X139183869Y-86349821D01*
X139151964Y-86385535D01*
X139088154Y-86421250D01*
X138960535Y-86421250D01*
X138896726Y-86385535D01*
X138864821Y-86349821D01*
X138832916Y-86278392D01*
X139981488Y-86742678D02*
X139407202Y-85778392D01*
X140141011Y-86706964D02*
X140587678Y-86706964D01*
X140300535Y-85956964D01*
X138226726Y-83406964D02*
X138226726Y-84156964D01*
X138386250Y-84156964D01*
X138481964Y-84121250D01*
X138545773Y-84049821D01*
X138577678Y-83978392D01*
X138609583Y-83835535D01*
X138609583Y-83728392D01*
X138577678Y-83585535D01*
X138545773Y-83514107D01*
X138481964Y-83442678D01*
X138386250Y-83406964D01*
X138226726Y-83406964D01*
X138832916Y-84156964D02*
X139279583Y-84156964D01*
X138992440Y-83406964D01*
X140013392Y-84192678D02*
X139439107Y-83228392D01*
X140523869Y-84156964D02*
X140396250Y-84156964D01*
X140332440Y-84121250D01*
X140300535Y-84085535D01*
X140236726Y-83978392D01*
X140204821Y-83835535D01*
X140204821Y-83549821D01*
X140236726Y-83478392D01*
X140268630Y-83442678D01*
X140332440Y-83406964D01*
X140460059Y-83406964D01*
X140523869Y-83442678D01*
X140555773Y-83478392D01*
X140587678Y-83549821D01*
X140587678Y-83728392D01*
X140555773Y-83799821D01*
X140523869Y-83835535D01*
X140460059Y-83871250D01*
X140332440Y-83871250D01*
X140268630Y-83835535D01*
X140236726Y-83799821D01*
X140204821Y-83728392D01*
X139380773Y-69021250D02*
X139316964Y-69056964D01*
X139221250Y-69056964D01*
X139125535Y-69021250D01*
X139061726Y-68949821D01*
X139029821Y-68878392D01*
X138997916Y-68735535D01*
X138997916Y-68628392D01*
X139029821Y-68485535D01*
X139061726Y-68414107D01*
X139125535Y-68342678D01*
X139221250Y-68306964D01*
X139285059Y-68306964D01*
X139380773Y-68342678D01*
X139412678Y-68378392D01*
X139412678Y-68628392D01*
X139285059Y-68628392D01*
X139699821Y-68306964D02*
X139699821Y-69056964D01*
X140082678Y-68306964D01*
X140082678Y-69056964D01*
X140401726Y-68306964D02*
X140401726Y-69056964D01*
X140561250Y-69056964D01*
X140656964Y-69021250D01*
X140720773Y-68949821D01*
X140752678Y-68878392D01*
X140784583Y-68735535D01*
X140784583Y-68628392D01*
X140752678Y-68485535D01*
X140720773Y-68414107D01*
X140656964Y-68342678D01*
X140561250Y-68306964D01*
X140401726Y-68306964D01*
X139380773Y-71471250D02*
X139316964Y-71506964D01*
X139221250Y-71506964D01*
X139125535Y-71471250D01*
X139061726Y-71399821D01*
X139029821Y-71328392D01*
X138997916Y-71185535D01*
X138997916Y-71078392D01*
X139029821Y-70935535D01*
X139061726Y-70864107D01*
X139125535Y-70792678D01*
X139221250Y-70756964D01*
X139285059Y-70756964D01*
X139380773Y-70792678D01*
X139412678Y-70828392D01*
X139412678Y-71078392D01*
X139285059Y-71078392D01*
X139699821Y-70756964D02*
X139699821Y-71506964D01*
X140082678Y-70756964D01*
X140082678Y-71506964D01*
X140401726Y-70756964D02*
X140401726Y-71506964D01*
X140561250Y-71506964D01*
X140656964Y-71471250D01*
X140720773Y-71399821D01*
X140752678Y-71328392D01*
X140784583Y-71185535D01*
X140784583Y-71078392D01*
X140752678Y-70935535D01*
X140720773Y-70864107D01*
X140656964Y-70792678D01*
X140561250Y-70756964D01*
X140401726Y-70756964D01*
X137202440Y-63156964D02*
X137202440Y-63906964D01*
X137361964Y-63906964D01*
X137457678Y-63871250D01*
X137521488Y-63799821D01*
X137553392Y-63728392D01*
X137585297Y-63585535D01*
X137585297Y-63478392D01*
X137553392Y-63335535D01*
X137521488Y-63264107D01*
X137457678Y-63192678D01*
X137361964Y-63156964D01*
X137202440Y-63156964D01*
X137808630Y-63906964D02*
X138223392Y-63906964D01*
X138000059Y-63621250D01*
X138095773Y-63621250D01*
X138159583Y-63585535D01*
X138191488Y-63549821D01*
X138223392Y-63478392D01*
X138223392Y-63299821D01*
X138191488Y-63228392D01*
X138159583Y-63192678D01*
X138095773Y-63156964D01*
X137904345Y-63156964D01*
X137840535Y-63192678D01*
X137808630Y-63228392D01*
X138989107Y-63942678D02*
X138414821Y-62978392D01*
X139116726Y-63906964D02*
X139499583Y-63906964D01*
X139308154Y-63156964D02*
X139308154Y-63906964D01*
X139659107Y-63906964D02*
X140105773Y-63156964D01*
X140105773Y-63906964D02*
X139659107Y-63156964D01*
X140488630Y-63906964D02*
X140552440Y-63906964D01*
X140616250Y-63871250D01*
X140648154Y-63835535D01*
X140680059Y-63764107D01*
X140711964Y-63621250D01*
X140711964Y-63442678D01*
X140680059Y-63299821D01*
X140648154Y-63228392D01*
X140616250Y-63192678D01*
X140552440Y-63156964D01*
X140488630Y-63156964D01*
X140424821Y-63192678D01*
X140392916Y-63228392D01*
X140361011Y-63299821D01*
X140329107Y-63442678D01*
X140329107Y-63621250D01*
X140361011Y-63764107D01*
X140392916Y-63835535D01*
X140424821Y-63871250D01*
X140488630Y-63906964D01*
X138226726Y-78306964D02*
X138226726Y-79056964D01*
X138386250Y-79056964D01*
X138481964Y-79021250D01*
X138545773Y-78949821D01*
X138577678Y-78878392D01*
X138609583Y-78735535D01*
X138609583Y-78628392D01*
X138577678Y-78485535D01*
X138545773Y-78414107D01*
X138481964Y-78342678D01*
X138386250Y-78306964D01*
X138226726Y-78306964D01*
X139183869Y-78806964D02*
X139183869Y-78306964D01*
X139024345Y-79092678D02*
X138864821Y-78556964D01*
X139279583Y-78556964D01*
X140013392Y-79092678D02*
X139439107Y-78128392D01*
X140523869Y-78806964D02*
X140523869Y-78306964D01*
X140364345Y-79092678D02*
X140204821Y-78556964D01*
X140619583Y-78556964D01*
X135752678Y-73442678D02*
X135848392Y-73406964D01*
X136007916Y-73406964D01*
X136071726Y-73442678D01*
X136103630Y-73478392D01*
X136135535Y-73549821D01*
X136135535Y-73621250D01*
X136103630Y-73692678D01*
X136071726Y-73728392D01*
X136007916Y-73764107D01*
X135880297Y-73799821D01*
X135816488Y-73835535D01*
X135784583Y-73871250D01*
X135752678Y-73942678D01*
X135752678Y-74014107D01*
X135784583Y-74085535D01*
X135816488Y-74121250D01*
X135880297Y-74156964D01*
X136039821Y-74156964D01*
X136135535Y-74121250D01*
X136422678Y-73406964D02*
X136422678Y-74156964D01*
X136582202Y-74156964D01*
X136677916Y-74121250D01*
X136741726Y-74049821D01*
X136773630Y-73978392D01*
X136805535Y-73835535D01*
X136805535Y-73728392D01*
X136773630Y-73585535D01*
X136741726Y-73514107D01*
X136677916Y-73442678D01*
X136582202Y-73406964D01*
X136422678Y-73406964D01*
X137060773Y-73621250D02*
X137379821Y-73621250D01*
X136996964Y-73406964D02*
X137220297Y-74156964D01*
X137443630Y-73406964D01*
X138145535Y-74192678D02*
X137571250Y-73228392D01*
X138368869Y-73406964D02*
X138368869Y-74156964D01*
X138528392Y-74156964D01*
X138624107Y-74121250D01*
X138687916Y-74049821D01*
X138719821Y-73978392D01*
X138751726Y-73835535D01*
X138751726Y-73728392D01*
X138719821Y-73585535D01*
X138687916Y-73514107D01*
X138624107Y-73442678D01*
X138528392Y-73406964D01*
X138368869Y-73406964D01*
X139389821Y-73406964D02*
X139006964Y-73406964D01*
X139198392Y-73406964D02*
X139198392Y-74156964D01*
X139134583Y-74049821D01*
X139070773Y-73978392D01*
X139006964Y-73942678D01*
X140155535Y-74192678D02*
X139581250Y-73228392D01*
X140346964Y-74085535D02*
X140378869Y-74121250D01*
X140442678Y-74156964D01*
X140602202Y-74156964D01*
X140666011Y-74121250D01*
X140697916Y-74085535D01*
X140729821Y-74014107D01*
X140729821Y-73942678D01*
X140697916Y-73835535D01*
X140315059Y-73406964D01*
X140729821Y-73406964D01*
X135768630Y-75942678D02*
X135864345Y-75906964D01*
X136023869Y-75906964D01*
X136087678Y-75942678D01*
X136119583Y-75978392D01*
X136151488Y-76049821D01*
X136151488Y-76121250D01*
X136119583Y-76192678D01*
X136087678Y-76228392D01*
X136023869Y-76264107D01*
X135896250Y-76299821D01*
X135832440Y-76335535D01*
X135800535Y-76371250D01*
X135768630Y-76442678D01*
X135768630Y-76514107D01*
X135800535Y-76585535D01*
X135832440Y-76621250D01*
X135896250Y-76656964D01*
X136055773Y-76656964D01*
X136151488Y-76621250D01*
X136821488Y-75978392D02*
X136789583Y-75942678D01*
X136693869Y-75906964D01*
X136630059Y-75906964D01*
X136534345Y-75942678D01*
X136470535Y-76014107D01*
X136438630Y-76085535D01*
X136406726Y-76228392D01*
X136406726Y-76335535D01*
X136438630Y-76478392D01*
X136470535Y-76549821D01*
X136534345Y-76621250D01*
X136630059Y-76656964D01*
X136693869Y-76656964D01*
X136789583Y-76621250D01*
X136821488Y-76585535D01*
X137427678Y-75906964D02*
X137108630Y-75906964D01*
X137108630Y-76656964D01*
X138129583Y-76692678D02*
X137555297Y-75728392D01*
X138352916Y-75906964D02*
X138352916Y-76656964D01*
X138512440Y-76656964D01*
X138608154Y-76621250D01*
X138671964Y-76549821D01*
X138703869Y-76478392D01*
X138735773Y-76335535D01*
X138735773Y-76228392D01*
X138703869Y-76085535D01*
X138671964Y-76014107D01*
X138608154Y-75942678D01*
X138512440Y-75906964D01*
X138352916Y-75906964D01*
X139150535Y-76656964D02*
X139214345Y-76656964D01*
X139278154Y-76621250D01*
X139310059Y-76585535D01*
X139341964Y-76514107D01*
X139373869Y-76371250D01*
X139373869Y-76192678D01*
X139341964Y-76049821D01*
X139310059Y-75978392D01*
X139278154Y-75942678D01*
X139214345Y-75906964D01*
X139150535Y-75906964D01*
X139086726Y-75942678D01*
X139054821Y-75978392D01*
X139022916Y-76049821D01*
X138991011Y-76192678D01*
X138991011Y-76371250D01*
X139022916Y-76514107D01*
X139054821Y-76585535D01*
X139086726Y-76621250D01*
X139150535Y-76656964D01*
X140139583Y-76692678D02*
X139565297Y-75728392D01*
X140299107Y-76656964D02*
X140713869Y-76656964D01*
X140490535Y-76371250D01*
X140586250Y-76371250D01*
X140650059Y-76335535D01*
X140681964Y-76299821D01*
X140713869Y-76228392D01*
X140713869Y-76049821D01*
X140681964Y-75978392D01*
X140650059Y-75942678D01*
X140586250Y-75906964D01*
X140394821Y-75906964D01*
X140331011Y-75942678D01*
X140299107Y-75978392D01*
X138609583Y-80928392D02*
X138577678Y-80892678D01*
X138481964Y-80856964D01*
X138418154Y-80856964D01*
X138322440Y-80892678D01*
X138258630Y-80964107D01*
X138226726Y-81035535D01*
X138194821Y-81178392D01*
X138194821Y-81285535D01*
X138226726Y-81428392D01*
X138258630Y-81499821D01*
X138322440Y-81571250D01*
X138418154Y-81606964D01*
X138481964Y-81606964D01*
X138577678Y-81571250D01*
X138609583Y-81535535D01*
X139183869Y-81606964D02*
X139056250Y-81606964D01*
X138992440Y-81571250D01*
X138960535Y-81535535D01*
X138896726Y-81428392D01*
X138864821Y-81285535D01*
X138864821Y-80999821D01*
X138896726Y-80928392D01*
X138928630Y-80892678D01*
X138992440Y-80856964D01*
X139120059Y-80856964D01*
X139183869Y-80892678D01*
X139215773Y-80928392D01*
X139247678Y-80999821D01*
X139247678Y-81178392D01*
X139215773Y-81249821D01*
X139183869Y-81285535D01*
X139120059Y-81321250D01*
X138992440Y-81321250D01*
X138928630Y-81285535D01*
X138896726Y-81249821D01*
X138864821Y-81178392D01*
X140013392Y-81642678D02*
X139439107Y-80678392D01*
X140555773Y-81606964D02*
X140236726Y-81606964D01*
X140204821Y-81249821D01*
X140236726Y-81285535D01*
X140300535Y-81321250D01*
X140460059Y-81321250D01*
X140523869Y-81285535D01*
X140555773Y-81249821D01*
X140587678Y-81178392D01*
X140587678Y-80999821D01*
X140555773Y-80928392D01*
X140523869Y-80892678D01*
X140460059Y-80856964D01*
X140300535Y-80856964D01*
X140236726Y-80892678D01*
X140204821Y-80928392D01*
X138450059Y-91399821D02*
X138545773Y-91364107D01*
X138577678Y-91328392D01*
X138609583Y-91256964D01*
X138609583Y-91149821D01*
X138577678Y-91078392D01*
X138545773Y-91042678D01*
X138481964Y-91006964D01*
X138226726Y-91006964D01*
X138226726Y-91756964D01*
X138450059Y-91756964D01*
X138513869Y-91721250D01*
X138545773Y-91685535D01*
X138577678Y-91614107D01*
X138577678Y-91542678D01*
X138545773Y-91471250D01*
X138513869Y-91435535D01*
X138450059Y-91399821D01*
X138226726Y-91399821D01*
X139215773Y-91756964D02*
X138896726Y-91756964D01*
X138864821Y-91399821D01*
X138896726Y-91435535D01*
X138960535Y-91471250D01*
X139120059Y-91471250D01*
X139183869Y-91435535D01*
X139215773Y-91399821D01*
X139247678Y-91328392D01*
X139247678Y-91149821D01*
X139215773Y-91078392D01*
X139183869Y-91042678D01*
X139120059Y-91006964D01*
X138960535Y-91006964D01*
X138896726Y-91042678D01*
X138864821Y-91078392D01*
X140013392Y-91792678D02*
X139439107Y-90828392D01*
X140268630Y-91006964D02*
X140396250Y-91006964D01*
X140460059Y-91042678D01*
X140491964Y-91078392D01*
X140555773Y-91185535D01*
X140587678Y-91328392D01*
X140587678Y-91614107D01*
X140555773Y-91685535D01*
X140523869Y-91721250D01*
X140460059Y-91756964D01*
X140332440Y-91756964D01*
X140268630Y-91721250D01*
X140236726Y-91685535D01*
X140204821Y-91614107D01*
X140204821Y-91435535D01*
X140236726Y-91364107D01*
X140268630Y-91328392D01*
X140332440Y-91292678D01*
X140460059Y-91292678D01*
X140523869Y-91328392D01*
X140555773Y-91364107D01*
X140587678Y-91435535D01*
X137122678Y-65706964D02*
X137122678Y-66456964D01*
X137282202Y-66456964D01*
X137377916Y-66421250D01*
X137441726Y-66349821D01*
X137473630Y-66278392D01*
X137505535Y-66135535D01*
X137505535Y-66028392D01*
X137473630Y-65885535D01*
X137441726Y-65814107D01*
X137377916Y-65742678D01*
X137282202Y-65706964D01*
X137122678Y-65706964D01*
X137760773Y-66385535D02*
X137792678Y-66421250D01*
X137856488Y-66456964D01*
X138016011Y-66456964D01*
X138079821Y-66421250D01*
X138111726Y-66385535D01*
X138143630Y-66314107D01*
X138143630Y-66242678D01*
X138111726Y-66135535D01*
X137728869Y-65706964D01*
X138143630Y-65706964D01*
X138909345Y-66492678D02*
X138335059Y-65528392D01*
X139515535Y-65706964D02*
X139292202Y-66064107D01*
X139132678Y-65706964D02*
X139132678Y-66456964D01*
X139387916Y-66456964D01*
X139451726Y-66421250D01*
X139483630Y-66385535D01*
X139515535Y-66314107D01*
X139515535Y-66206964D01*
X139483630Y-66135535D01*
X139451726Y-66099821D01*
X139387916Y-66064107D01*
X139132678Y-66064107D01*
X139738869Y-66456964D02*
X140185535Y-65706964D01*
X140185535Y-66456964D02*
X139738869Y-65706964D01*
X140791726Y-65706964D02*
X140408869Y-65706964D01*
X140600297Y-65706964D02*
X140600297Y-66456964D01*
X140536488Y-66349821D01*
X140472678Y-66278392D01*
X140408869Y-66242678D01*
X138450059Y-88899821D02*
X138545773Y-88864107D01*
X138577678Y-88828392D01*
X138609583Y-88756964D01*
X138609583Y-88649821D01*
X138577678Y-88578392D01*
X138545773Y-88542678D01*
X138481964Y-88506964D01*
X138226726Y-88506964D01*
X138226726Y-89256964D01*
X138450059Y-89256964D01*
X138513869Y-89221250D01*
X138545773Y-89185535D01*
X138577678Y-89114107D01*
X138577678Y-89042678D01*
X138545773Y-88971250D01*
X138513869Y-88935535D01*
X138450059Y-88899821D01*
X138226726Y-88899821D01*
X139183869Y-89006964D02*
X139183869Y-88506964D01*
X139024345Y-89292678D02*
X138864821Y-88756964D01*
X139279583Y-88756964D01*
X140013392Y-89292678D02*
X139439107Y-88328392D01*
X140332440Y-88935535D02*
X140268630Y-88971250D01*
X140236726Y-89006964D01*
X140204821Y-89078392D01*
X140204821Y-89114107D01*
X140236726Y-89185535D01*
X140268630Y-89221250D01*
X140332440Y-89256964D01*
X140460059Y-89256964D01*
X140523869Y-89221250D01*
X140555773Y-89185535D01*
X140587678Y-89114107D01*
X140587678Y-89078392D01*
X140555773Y-89006964D01*
X140523869Y-88971250D01*
X140460059Y-88935535D01*
X140332440Y-88935535D01*
X140268630Y-88899821D01*
X140236726Y-88864107D01*
X140204821Y-88792678D01*
X140204821Y-88649821D01*
X140236726Y-88578392D01*
X140268630Y-88542678D01*
X140332440Y-88506964D01*
X140460059Y-88506964D01*
X140523869Y-88542678D01*
X140555773Y-88578392D01*
X140587678Y-88649821D01*
X140587678Y-88792678D01*
X140555773Y-88864107D01*
X140523869Y-88899821D01*
X140460059Y-88935535D01*
D10*
X152492678Y-59335535D02*
X152492678Y-58585535D01*
X152242678Y-59121250D01*
X151992678Y-58585535D01*
X151992678Y-59335535D01*
X151635535Y-59335535D02*
X151635535Y-58835535D01*
X151635535Y-58585535D02*
X151671250Y-58621250D01*
X151635535Y-58656964D01*
X151599821Y-58621250D01*
X151635535Y-58585535D01*
X151635535Y-58656964D01*
X150956964Y-59299821D02*
X151028392Y-59335535D01*
X151171250Y-59335535D01*
X151242678Y-59299821D01*
X151278392Y-59264107D01*
X151314107Y-59192678D01*
X151314107Y-58978392D01*
X151278392Y-58906964D01*
X151242678Y-58871250D01*
X151171250Y-58835535D01*
X151028392Y-58835535D01*
X150956964Y-58871250D01*
X150635535Y-59335535D02*
X150635535Y-58835535D01*
X150635535Y-58978392D02*
X150599821Y-58906964D01*
X150564107Y-58871250D01*
X150492678Y-58835535D01*
X150421250Y-58835535D01*
X150064107Y-59335535D02*
X150135535Y-59299821D01*
X150171250Y-59264107D01*
X150206964Y-59192678D01*
X150206964Y-58978392D01*
X150171250Y-58906964D01*
X150135535Y-58871250D01*
X150064107Y-58835535D01*
X149956964Y-58835535D01*
X149885535Y-58871250D01*
X149849821Y-58906964D01*
X149814107Y-58978392D01*
X149814107Y-59192678D01*
X149849821Y-59264107D01*
X149885535Y-59299821D01*
X149956964Y-59335535D01*
X150064107Y-59335535D01*
X149492678Y-58585535D02*
X149492678Y-59192678D01*
X149456964Y-59264107D01*
X149421250Y-59299821D01*
X149349821Y-59335535D01*
X149206964Y-59335535D01*
X149135535Y-59299821D01*
X149099821Y-59264107D01*
X149064107Y-59192678D01*
X149064107Y-58585535D01*
X148742678Y-59299821D02*
X148635535Y-59335535D01*
X148456964Y-59335535D01*
X148385535Y-59299821D01*
X148349821Y-59264107D01*
X148314107Y-59192678D01*
X148314107Y-59121250D01*
X148349821Y-59049821D01*
X148385535Y-59014107D01*
X148456964Y-58978392D01*
X148599821Y-58942678D01*
X148671250Y-58906964D01*
X148706964Y-58871250D01*
X148742678Y-58799821D01*
X148742678Y-58728392D01*
X148706964Y-58656964D01*
X148671250Y-58621250D01*
X148599821Y-58585535D01*
X148421250Y-58585535D01*
X148314107Y-58621250D01*
X147742678Y-58942678D02*
X147635535Y-58978392D01*
X147599821Y-59014107D01*
X147564107Y-59085535D01*
X147564107Y-59192678D01*
X147599821Y-59264107D01*
X147635535Y-59299821D01*
X147706964Y-59335535D01*
X147992678Y-59335535D01*
X147992678Y-58585535D01*
X147742678Y-58585535D01*
X147671250Y-58621250D01*
X147635535Y-58656964D01*
X147599821Y-58728392D01*
X147599821Y-58799821D01*
X147635535Y-58871250D01*
X147671250Y-58906964D01*
X147742678Y-58942678D01*
X147992678Y-58942678D01*
D11*
X164929583Y-58717011D02*
X164786726Y-58764630D01*
X164548630Y-58764630D01*
X164453392Y-58717011D01*
X164405773Y-58669392D01*
X164358154Y-58574154D01*
X164358154Y-58478916D01*
X164405773Y-58383678D01*
X164453392Y-58336059D01*
X164548630Y-58288440D01*
X164739107Y-58240821D01*
X164834345Y-58193202D01*
X164881964Y-58145583D01*
X164929583Y-58050345D01*
X164929583Y-57955107D01*
X164881964Y-57859869D01*
X164834345Y-57812250D01*
X164739107Y-57764630D01*
X164501011Y-57764630D01*
X164358154Y-57812250D01*
X164024821Y-57764630D02*
X163786726Y-58764630D01*
X163596250Y-58050345D01*
X163405773Y-58764630D01*
X163167678Y-57764630D01*
X162262916Y-58764630D02*
X162834345Y-58764630D01*
X162548630Y-58764630D02*
X162548630Y-57764630D01*
X162643869Y-57907488D01*
X162739107Y-58002726D01*
X162834345Y-58050345D01*
X210764285Y-135802380D02*
X210764285Y-134802380D01*
X210526190Y-134802380D01*
X210383333Y-134850000D01*
X210288095Y-134945238D01*
X210240476Y-135040476D01*
X210192857Y-135230952D01*
X210192857Y-135373809D01*
X210240476Y-135564285D01*
X210288095Y-135659523D01*
X210383333Y-135754761D01*
X210526190Y-135802380D01*
X210764285Y-135802380D01*
X209335714Y-135135714D02*
X209335714Y-135802380D01*
X209573809Y-134754761D02*
X209811904Y-135469047D01*
X209192857Y-135469047D01*
X208383333Y-135135714D02*
X208383333Y-135802380D01*
X208621428Y-134754761D02*
X208859523Y-135469047D01*
X208240476Y-135469047D01*
X191714285Y-135802380D02*
X191714285Y-134802380D01*
X191476190Y-134802380D01*
X191333333Y-134850000D01*
X191238095Y-134945238D01*
X191190476Y-135040476D01*
X191142857Y-135230952D01*
X191142857Y-135373809D01*
X191190476Y-135564285D01*
X191238095Y-135659523D01*
X191333333Y-135754761D01*
X191476190Y-135802380D01*
X191714285Y-135802380D01*
X190285714Y-135135714D02*
X190285714Y-135802380D01*
X190523809Y-134754761D02*
X190761904Y-135469047D01*
X190142857Y-135469047D01*
X189857142Y-134802380D02*
X189238095Y-134802380D01*
X189571428Y-135183333D01*
X189428571Y-135183333D01*
X189333333Y-135230952D01*
X189285714Y-135278571D01*
X189238095Y-135373809D01*
X189238095Y-135611904D01*
X189285714Y-135707142D01*
X189333333Y-135754761D01*
X189428571Y-135802380D01*
X189714285Y-135802380D01*
X189809523Y-135754761D01*
X189857142Y-135707142D01*
X170283035Y-135802380D02*
X170283035Y-134802380D01*
X170044940Y-134802380D01*
X169902083Y-134850000D01*
X169806845Y-134945238D01*
X169759226Y-135040476D01*
X169711607Y-135230952D01*
X169711607Y-135373809D01*
X169759226Y-135564285D01*
X169806845Y-135659523D01*
X169902083Y-135754761D01*
X170044940Y-135802380D01*
X170283035Y-135802380D01*
X168854464Y-135135714D02*
X168854464Y-135802380D01*
X169092559Y-134754761D02*
X169330654Y-135469047D01*
X168711607Y-135469047D01*
X168378273Y-134897619D02*
X168330654Y-134850000D01*
X168235416Y-134802380D01*
X167997321Y-134802380D01*
X167902083Y-134850000D01*
X167854464Y-134897619D01*
X167806845Y-134992857D01*
X167806845Y-135088095D01*
X167854464Y-135230952D01*
X168425892Y-135802380D01*
X167806845Y-135802380D01*
X148851785Y-135802380D02*
X148851785Y-134802380D01*
X148613690Y-134802380D01*
X148470833Y-134850000D01*
X148375595Y-134945238D01*
X148327976Y-135040476D01*
X148280357Y-135230952D01*
X148280357Y-135373809D01*
X148327976Y-135564285D01*
X148375595Y-135659523D01*
X148470833Y-135754761D01*
X148613690Y-135802380D01*
X148851785Y-135802380D01*
X147423214Y-135135714D02*
X147423214Y-135802380D01*
X147661309Y-134754761D02*
X147899404Y-135469047D01*
X147280357Y-135469047D01*
X146375595Y-135802380D02*
X146947023Y-135802380D01*
X146661309Y-135802380D02*
X146661309Y-134802380D01*
X146756547Y-134945238D01*
X146851785Y-135040476D01*
X146947023Y-135088095D01*
X125039285Y-135802380D02*
X125039285Y-134802380D01*
X124801190Y-134802380D01*
X124658333Y-134850000D01*
X124563095Y-134945238D01*
X124515476Y-135040476D01*
X124467857Y-135230952D01*
X124467857Y-135373809D01*
X124515476Y-135564285D01*
X124563095Y-135659523D01*
X124658333Y-135754761D01*
X124801190Y-135802380D01*
X125039285Y-135802380D01*
X123610714Y-135135714D02*
X123610714Y-135802380D01*
X123848809Y-134754761D02*
X124086904Y-135469047D01*
X123467857Y-135469047D01*
X122896428Y-134802380D02*
X122801190Y-134802380D01*
X122705952Y-134850000D01*
X122658333Y-134897619D01*
X122610714Y-134992857D01*
X122563095Y-135183333D01*
X122563095Y-135421428D01*
X122610714Y-135611904D01*
X122658333Y-135707142D01*
X122705952Y-135754761D01*
X122801190Y-135802380D01*
X122896428Y-135802380D01*
X122991666Y-135754761D01*
X123039285Y-135707142D01*
X123086904Y-135611904D01*
X123134523Y-135421428D01*
X123134523Y-135183333D01*
X123086904Y-134992857D01*
X123039285Y-134897619D01*
X122991666Y-134850000D01*
X122896428Y-134802380D01*
X105989285Y-135802380D02*
X105989285Y-134802380D01*
X105751190Y-134802380D01*
X105608333Y-134850000D01*
X105513095Y-134945238D01*
X105465476Y-135040476D01*
X105417857Y-135230952D01*
X105417857Y-135373809D01*
X105465476Y-135564285D01*
X105513095Y-135659523D01*
X105608333Y-135754761D01*
X105751190Y-135802380D01*
X105989285Y-135802380D01*
X105084523Y-134802380D02*
X104465476Y-134802380D01*
X104798809Y-135183333D01*
X104655952Y-135183333D01*
X104560714Y-135230952D01*
X104513095Y-135278571D01*
X104465476Y-135373809D01*
X104465476Y-135611904D01*
X104513095Y-135707142D01*
X104560714Y-135754761D01*
X104655952Y-135802380D01*
X104941666Y-135802380D01*
X105036904Y-135754761D01*
X105084523Y-135707142D01*
X103989285Y-135802380D02*
X103798809Y-135802380D01*
X103703571Y-135754761D01*
X103655952Y-135707142D01*
X103560714Y-135564285D01*
X103513095Y-135373809D01*
X103513095Y-134992857D01*
X103560714Y-134897619D01*
X103608333Y-134850000D01*
X103703571Y-134802380D01*
X103894047Y-134802380D01*
X103989285Y-134850000D01*
X104036904Y-134897619D01*
X104084523Y-134992857D01*
X104084523Y-135230952D01*
X104036904Y-135326190D01*
X103989285Y-135373809D01*
X103894047Y-135421428D01*
X103703571Y-135421428D01*
X103608333Y-135373809D01*
X103560714Y-135326190D01*
X103513095Y-135230952D01*
X277439285Y-121514880D02*
X277439285Y-120514880D01*
X277201190Y-120514880D01*
X277058333Y-120562500D01*
X276963095Y-120657738D01*
X276915476Y-120752976D01*
X276867857Y-120943452D01*
X276867857Y-121086309D01*
X276915476Y-121276785D01*
X276963095Y-121372023D01*
X277058333Y-121467261D01*
X277201190Y-121514880D01*
X277439285Y-121514880D01*
X276534523Y-120514880D02*
X275915476Y-120514880D01*
X276248809Y-120895833D01*
X276105952Y-120895833D01*
X276010714Y-120943452D01*
X275963095Y-120991071D01*
X275915476Y-121086309D01*
X275915476Y-121324404D01*
X275963095Y-121419642D01*
X276010714Y-121467261D01*
X276105952Y-121514880D01*
X276391666Y-121514880D01*
X276486904Y-121467261D01*
X276534523Y-121419642D01*
X275344047Y-120943452D02*
X275439285Y-120895833D01*
X275486904Y-120848214D01*
X275534523Y-120752976D01*
X275534523Y-120705357D01*
X275486904Y-120610119D01*
X275439285Y-120562500D01*
X275344047Y-120514880D01*
X275153571Y-120514880D01*
X275058333Y-120562500D01*
X275010714Y-120610119D01*
X274963095Y-120705357D01*
X274963095Y-120752976D01*
X275010714Y-120848214D01*
X275058333Y-120895833D01*
X275153571Y-120943452D01*
X275344047Y-120943452D01*
X275439285Y-120991071D01*
X275486904Y-121038690D01*
X275534523Y-121133928D01*
X275534523Y-121324404D01*
X275486904Y-121419642D01*
X275439285Y-121467261D01*
X275344047Y-121514880D01*
X275153571Y-121514880D01*
X275058333Y-121467261D01*
X275010714Y-121419642D01*
X274963095Y-121324404D01*
X274963095Y-121133928D01*
X275010714Y-121038690D01*
X275058333Y-120991071D01*
X275153571Y-120943452D01*
X258389285Y-121514880D02*
X258389285Y-120514880D01*
X258151190Y-120514880D01*
X258008333Y-120562500D01*
X257913095Y-120657738D01*
X257865476Y-120752976D01*
X257817857Y-120943452D01*
X257817857Y-121086309D01*
X257865476Y-121276785D01*
X257913095Y-121372023D01*
X258008333Y-121467261D01*
X258151190Y-121514880D01*
X258389285Y-121514880D01*
X257484523Y-120514880D02*
X256865476Y-120514880D01*
X257198809Y-120895833D01*
X257055952Y-120895833D01*
X256960714Y-120943452D01*
X256913095Y-120991071D01*
X256865476Y-121086309D01*
X256865476Y-121324404D01*
X256913095Y-121419642D01*
X256960714Y-121467261D01*
X257055952Y-121514880D01*
X257341666Y-121514880D01*
X257436904Y-121467261D01*
X257484523Y-121419642D01*
X256532142Y-120514880D02*
X255865476Y-120514880D01*
X256294047Y-121514880D01*
X239339285Y-116752380D02*
X239339285Y-115752380D01*
X239101190Y-115752380D01*
X238958333Y-115800000D01*
X238863095Y-115895238D01*
X238815476Y-115990476D01*
X238767857Y-116180952D01*
X238767857Y-116323809D01*
X238815476Y-116514285D01*
X238863095Y-116609523D01*
X238958333Y-116704761D01*
X239101190Y-116752380D01*
X239339285Y-116752380D01*
X238434523Y-115752380D02*
X237815476Y-115752380D01*
X238148809Y-116133333D01*
X238005952Y-116133333D01*
X237910714Y-116180952D01*
X237863095Y-116228571D01*
X237815476Y-116323809D01*
X237815476Y-116561904D01*
X237863095Y-116657142D01*
X237910714Y-116704761D01*
X238005952Y-116752380D01*
X238291666Y-116752380D01*
X238386904Y-116704761D01*
X238434523Y-116657142D01*
X236958333Y-115752380D02*
X237148809Y-115752380D01*
X237244047Y-115800000D01*
X237291666Y-115847619D01*
X237386904Y-115990476D01*
X237434523Y-116180952D01*
X237434523Y-116561904D01*
X237386904Y-116657142D01*
X237339285Y-116704761D01*
X237244047Y-116752380D01*
X237053571Y-116752380D01*
X236958333Y-116704761D01*
X236910714Y-116657142D01*
X236863095Y-116561904D01*
X236863095Y-116323809D01*
X236910714Y-116228571D01*
X236958333Y-116180952D01*
X237053571Y-116133333D01*
X237244047Y-116133333D01*
X237339285Y-116180952D01*
X237386904Y-116228571D01*
X237434523Y-116323809D01*
X220289285Y-116752380D02*
X220289285Y-115752380D01*
X220051190Y-115752380D01*
X219908333Y-115800000D01*
X219813095Y-115895238D01*
X219765476Y-115990476D01*
X219717857Y-116180952D01*
X219717857Y-116323809D01*
X219765476Y-116514285D01*
X219813095Y-116609523D01*
X219908333Y-116704761D01*
X220051190Y-116752380D01*
X220289285Y-116752380D01*
X219384523Y-115752380D02*
X218765476Y-115752380D01*
X219098809Y-116133333D01*
X218955952Y-116133333D01*
X218860714Y-116180952D01*
X218813095Y-116228571D01*
X218765476Y-116323809D01*
X218765476Y-116561904D01*
X218813095Y-116657142D01*
X218860714Y-116704761D01*
X218955952Y-116752380D01*
X219241666Y-116752380D01*
X219336904Y-116704761D01*
X219384523Y-116657142D01*
X217860714Y-115752380D02*
X218336904Y-115752380D01*
X218384523Y-116228571D01*
X218336904Y-116180952D01*
X218241666Y-116133333D01*
X218003571Y-116133333D01*
X217908333Y-116180952D01*
X217860714Y-116228571D01*
X217813095Y-116323809D01*
X217813095Y-116561904D01*
X217860714Y-116657142D01*
X217908333Y-116704761D01*
X218003571Y-116752380D01*
X218241666Y-116752380D01*
X218336904Y-116704761D01*
X218384523Y-116657142D01*
X201239285Y-116752380D02*
X201239285Y-115752380D01*
X201001190Y-115752380D01*
X200858333Y-115800000D01*
X200763095Y-115895238D01*
X200715476Y-115990476D01*
X200667857Y-116180952D01*
X200667857Y-116323809D01*
X200715476Y-116514285D01*
X200763095Y-116609523D01*
X200858333Y-116704761D01*
X201001190Y-116752380D01*
X201239285Y-116752380D01*
X200334523Y-115752380D02*
X199715476Y-115752380D01*
X200048809Y-116133333D01*
X199905952Y-116133333D01*
X199810714Y-116180952D01*
X199763095Y-116228571D01*
X199715476Y-116323809D01*
X199715476Y-116561904D01*
X199763095Y-116657142D01*
X199810714Y-116704761D01*
X199905952Y-116752380D01*
X200191666Y-116752380D01*
X200286904Y-116704761D01*
X200334523Y-116657142D01*
X198858333Y-116085714D02*
X198858333Y-116752380D01*
X199096428Y-115704761D02*
X199334523Y-116419047D01*
X198715476Y-116419047D01*
X182189285Y-116752380D02*
X182189285Y-115752380D01*
X181951190Y-115752380D01*
X181808333Y-115800000D01*
X181713095Y-115895238D01*
X181665476Y-115990476D01*
X181617857Y-116180952D01*
X181617857Y-116323809D01*
X181665476Y-116514285D01*
X181713095Y-116609523D01*
X181808333Y-116704761D01*
X181951190Y-116752380D01*
X182189285Y-116752380D01*
X181284523Y-115752380D02*
X180665476Y-115752380D01*
X180998809Y-116133333D01*
X180855952Y-116133333D01*
X180760714Y-116180952D01*
X180713095Y-116228571D01*
X180665476Y-116323809D01*
X180665476Y-116561904D01*
X180713095Y-116657142D01*
X180760714Y-116704761D01*
X180855952Y-116752380D01*
X181141666Y-116752380D01*
X181236904Y-116704761D01*
X181284523Y-116657142D01*
X180332142Y-115752380D02*
X179713095Y-115752380D01*
X180046428Y-116133333D01*
X179903571Y-116133333D01*
X179808333Y-116180952D01*
X179760714Y-116228571D01*
X179713095Y-116323809D01*
X179713095Y-116561904D01*
X179760714Y-116657142D01*
X179808333Y-116704761D01*
X179903571Y-116752380D01*
X180189285Y-116752380D01*
X180284523Y-116704761D01*
X180332142Y-116657142D01*
X158376785Y-116752380D02*
X158376785Y-115752380D01*
X158138690Y-115752380D01*
X157995833Y-115800000D01*
X157900595Y-115895238D01*
X157852976Y-115990476D01*
X157805357Y-116180952D01*
X157805357Y-116323809D01*
X157852976Y-116514285D01*
X157900595Y-116609523D01*
X157995833Y-116704761D01*
X158138690Y-116752380D01*
X158376785Y-116752380D01*
X157472023Y-115752380D02*
X156852976Y-115752380D01*
X157186309Y-116133333D01*
X157043452Y-116133333D01*
X156948214Y-116180952D01*
X156900595Y-116228571D01*
X156852976Y-116323809D01*
X156852976Y-116561904D01*
X156900595Y-116657142D01*
X156948214Y-116704761D01*
X157043452Y-116752380D01*
X157329166Y-116752380D01*
X157424404Y-116704761D01*
X157472023Y-116657142D01*
X156472023Y-115847619D02*
X156424404Y-115800000D01*
X156329166Y-115752380D01*
X156091071Y-115752380D01*
X155995833Y-115800000D01*
X155948214Y-115847619D01*
X155900595Y-115942857D01*
X155900595Y-116038095D01*
X155948214Y-116180952D01*
X156519642Y-116752380D01*
X155900595Y-116752380D01*
X135295535Y-116752380D02*
X135295535Y-115752380D01*
X135057440Y-115752380D01*
X134914583Y-115800000D01*
X134819345Y-115895238D01*
X134771726Y-115990476D01*
X134724107Y-116180952D01*
X134724107Y-116323809D01*
X134771726Y-116514285D01*
X134819345Y-116609523D01*
X134914583Y-116704761D01*
X135057440Y-116752380D01*
X135295535Y-116752380D01*
X134390773Y-115752380D02*
X133771726Y-115752380D01*
X134105059Y-116133333D01*
X133962202Y-116133333D01*
X133866964Y-116180952D01*
X133819345Y-116228571D01*
X133771726Y-116323809D01*
X133771726Y-116561904D01*
X133819345Y-116657142D01*
X133866964Y-116704761D01*
X133962202Y-116752380D01*
X134247916Y-116752380D01*
X134343154Y-116704761D01*
X134390773Y-116657142D01*
X132819345Y-116752380D02*
X133390773Y-116752380D01*
X133105059Y-116752380D02*
X133105059Y-115752380D01*
X133200297Y-115895238D01*
X133295535Y-115990476D01*
X133390773Y-116038095D01*
X115514285Y-116752380D02*
X115514285Y-115752380D01*
X115276190Y-115752380D01*
X115133333Y-115800000D01*
X115038095Y-115895238D01*
X114990476Y-115990476D01*
X114942857Y-116180952D01*
X114942857Y-116323809D01*
X114990476Y-116514285D01*
X115038095Y-116609523D01*
X115133333Y-116704761D01*
X115276190Y-116752380D01*
X115514285Y-116752380D01*
X114609523Y-115752380D02*
X113990476Y-115752380D01*
X114323809Y-116133333D01*
X114180952Y-116133333D01*
X114085714Y-116180952D01*
X114038095Y-116228571D01*
X113990476Y-116323809D01*
X113990476Y-116561904D01*
X114038095Y-116657142D01*
X114085714Y-116704761D01*
X114180952Y-116752380D01*
X114466666Y-116752380D01*
X114561904Y-116704761D01*
X114609523Y-116657142D01*
X113371428Y-115752380D02*
X113276190Y-115752380D01*
X113180952Y-115800000D01*
X113133333Y-115847619D01*
X113085714Y-115942857D01*
X113038095Y-116133333D01*
X113038095Y-116371428D01*
X113085714Y-116561904D01*
X113133333Y-116657142D01*
X113180952Y-116704761D01*
X113276190Y-116752380D01*
X113371428Y-116752380D01*
X113466666Y-116704761D01*
X113514285Y-116657142D01*
X113561904Y-116561904D01*
X113609523Y-116371428D01*
X113609523Y-116133333D01*
X113561904Y-115942857D01*
X113514285Y-115847619D01*
X113466666Y-115800000D01*
X113371428Y-115752380D01*
X96464285Y-116752380D02*
X96464285Y-115752380D01*
X96226190Y-115752380D01*
X96083333Y-115800000D01*
X95988095Y-115895238D01*
X95940476Y-115990476D01*
X95892857Y-116180952D01*
X95892857Y-116323809D01*
X95940476Y-116514285D01*
X95988095Y-116609523D01*
X96083333Y-116704761D01*
X96226190Y-116752380D01*
X96464285Y-116752380D01*
X95511904Y-115847619D02*
X95464285Y-115800000D01*
X95369047Y-115752380D01*
X95130952Y-115752380D01*
X95035714Y-115800000D01*
X94988095Y-115847619D01*
X94940476Y-115942857D01*
X94940476Y-116038095D01*
X94988095Y-116180952D01*
X95559523Y-116752380D01*
X94940476Y-116752380D01*
X94464285Y-116752380D02*
X94273809Y-116752380D01*
X94178571Y-116704761D01*
X94130952Y-116657142D01*
X94035714Y-116514285D01*
X93988095Y-116323809D01*
X93988095Y-115942857D01*
X94035714Y-115847619D01*
X94083333Y-115800000D01*
X94178571Y-115752380D01*
X94369047Y-115752380D01*
X94464285Y-115800000D01*
X94511904Y-115847619D01*
X94559523Y-115942857D01*
X94559523Y-116180952D01*
X94511904Y-116276190D01*
X94464285Y-116323809D01*
X94369047Y-116371428D01*
X94178571Y-116371428D01*
X94083333Y-116323809D01*
X94035714Y-116276190D01*
X93988095Y-116180952D01*
X77414285Y-116752380D02*
X77414285Y-115752380D01*
X77176190Y-115752380D01*
X77033333Y-115800000D01*
X76938095Y-115895238D01*
X76890476Y-115990476D01*
X76842857Y-116180952D01*
X76842857Y-116323809D01*
X76890476Y-116514285D01*
X76938095Y-116609523D01*
X77033333Y-116704761D01*
X77176190Y-116752380D01*
X77414285Y-116752380D01*
X76461904Y-115847619D02*
X76414285Y-115800000D01*
X76319047Y-115752380D01*
X76080952Y-115752380D01*
X75985714Y-115800000D01*
X75938095Y-115847619D01*
X75890476Y-115942857D01*
X75890476Y-116038095D01*
X75938095Y-116180952D01*
X76509523Y-116752380D01*
X75890476Y-116752380D01*
X75319047Y-116180952D02*
X75414285Y-116133333D01*
X75461904Y-116085714D01*
X75509523Y-115990476D01*
X75509523Y-115942857D01*
X75461904Y-115847619D01*
X75414285Y-115800000D01*
X75319047Y-115752380D01*
X75128571Y-115752380D01*
X75033333Y-115800000D01*
X74985714Y-115847619D01*
X74938095Y-115942857D01*
X74938095Y-115990476D01*
X74985714Y-116085714D01*
X75033333Y-116133333D01*
X75128571Y-116180952D01*
X75319047Y-116180952D01*
X75414285Y-116228571D01*
X75461904Y-116276190D01*
X75509523Y-116371428D01*
X75509523Y-116561904D01*
X75461904Y-116657142D01*
X75414285Y-116704761D01*
X75319047Y-116752380D01*
X75128571Y-116752380D01*
X75033333Y-116704761D01*
X74985714Y-116657142D01*
X74938095Y-116561904D01*
X74938095Y-116371428D01*
X74985714Y-116276190D01*
X75033333Y-116228571D01*
X75128571Y-116180952D01*
X58364285Y-121514880D02*
X58364285Y-120514880D01*
X58126190Y-120514880D01*
X57983333Y-120562500D01*
X57888095Y-120657738D01*
X57840476Y-120752976D01*
X57792857Y-120943452D01*
X57792857Y-121086309D01*
X57840476Y-121276785D01*
X57888095Y-121372023D01*
X57983333Y-121467261D01*
X58126190Y-121514880D01*
X58364285Y-121514880D01*
X57411904Y-120610119D02*
X57364285Y-120562500D01*
X57269047Y-120514880D01*
X57030952Y-120514880D01*
X56935714Y-120562500D01*
X56888095Y-120610119D01*
X56840476Y-120705357D01*
X56840476Y-120800595D01*
X56888095Y-120943452D01*
X57459523Y-121514880D01*
X56840476Y-121514880D01*
X56507142Y-120514880D02*
X55840476Y-120514880D01*
X56269047Y-121514880D01*
X39314285Y-121514880D02*
X39314285Y-120514880D01*
X39076190Y-120514880D01*
X38933333Y-120562500D01*
X38838095Y-120657738D01*
X38790476Y-120752976D01*
X38742857Y-120943452D01*
X38742857Y-121086309D01*
X38790476Y-121276785D01*
X38838095Y-121372023D01*
X38933333Y-121467261D01*
X39076190Y-121514880D01*
X39314285Y-121514880D01*
X38361904Y-120610119D02*
X38314285Y-120562500D01*
X38219047Y-120514880D01*
X37980952Y-120514880D01*
X37885714Y-120562500D01*
X37838095Y-120610119D01*
X37790476Y-120705357D01*
X37790476Y-120800595D01*
X37838095Y-120943452D01*
X38409523Y-121514880D01*
X37790476Y-121514880D01*
X36933333Y-120514880D02*
X37123809Y-120514880D01*
X37219047Y-120562500D01*
X37266666Y-120610119D01*
X37361904Y-120752976D01*
X37409523Y-120943452D01*
X37409523Y-121324404D01*
X37361904Y-121419642D01*
X37314285Y-121467261D01*
X37219047Y-121514880D01*
X37028571Y-121514880D01*
X36933333Y-121467261D01*
X36885714Y-121419642D01*
X36838095Y-121324404D01*
X36838095Y-121086309D01*
X36885714Y-120991071D01*
X36933333Y-120943452D01*
X37028571Y-120895833D01*
X37219047Y-120895833D01*
X37314285Y-120943452D01*
X37361904Y-120991071D01*
X37409523Y-121086309D01*
X277439285Y-102464880D02*
X277439285Y-101464880D01*
X277201190Y-101464880D01*
X277058333Y-101512500D01*
X276963095Y-101607738D01*
X276915476Y-101702976D01*
X276867857Y-101893452D01*
X276867857Y-102036309D01*
X276915476Y-102226785D01*
X276963095Y-102322023D01*
X277058333Y-102417261D01*
X277201190Y-102464880D01*
X277439285Y-102464880D01*
X276486904Y-101560119D02*
X276439285Y-101512500D01*
X276344047Y-101464880D01*
X276105952Y-101464880D01*
X276010714Y-101512500D01*
X275963095Y-101560119D01*
X275915476Y-101655357D01*
X275915476Y-101750595D01*
X275963095Y-101893452D01*
X276534523Y-102464880D01*
X275915476Y-102464880D01*
X275010714Y-101464880D02*
X275486904Y-101464880D01*
X275534523Y-101941071D01*
X275486904Y-101893452D01*
X275391666Y-101845833D01*
X275153571Y-101845833D01*
X275058333Y-101893452D01*
X275010714Y-101941071D01*
X274963095Y-102036309D01*
X274963095Y-102274404D01*
X275010714Y-102369642D01*
X275058333Y-102417261D01*
X275153571Y-102464880D01*
X275391666Y-102464880D01*
X275486904Y-102417261D01*
X275534523Y-102369642D01*
X258389285Y-102464880D02*
X258389285Y-101464880D01*
X258151190Y-101464880D01*
X258008333Y-101512500D01*
X257913095Y-101607738D01*
X257865476Y-101702976D01*
X257817857Y-101893452D01*
X257817857Y-102036309D01*
X257865476Y-102226785D01*
X257913095Y-102322023D01*
X258008333Y-102417261D01*
X258151190Y-102464880D01*
X258389285Y-102464880D01*
X257436904Y-101560119D02*
X257389285Y-101512500D01*
X257294047Y-101464880D01*
X257055952Y-101464880D01*
X256960714Y-101512500D01*
X256913095Y-101560119D01*
X256865476Y-101655357D01*
X256865476Y-101750595D01*
X256913095Y-101893452D01*
X257484523Y-102464880D01*
X256865476Y-102464880D01*
X256008333Y-101798214D02*
X256008333Y-102464880D01*
X256246428Y-101417261D02*
X256484523Y-102131547D01*
X255865476Y-102131547D01*
X239339285Y-97702380D02*
X239339285Y-96702380D01*
X239101190Y-96702380D01*
X238958333Y-96750000D01*
X238863095Y-96845238D01*
X238815476Y-96940476D01*
X238767857Y-97130952D01*
X238767857Y-97273809D01*
X238815476Y-97464285D01*
X238863095Y-97559523D01*
X238958333Y-97654761D01*
X239101190Y-97702380D01*
X239339285Y-97702380D01*
X238386904Y-96797619D02*
X238339285Y-96750000D01*
X238244047Y-96702380D01*
X238005952Y-96702380D01*
X237910714Y-96750000D01*
X237863095Y-96797619D01*
X237815476Y-96892857D01*
X237815476Y-96988095D01*
X237863095Y-97130952D01*
X238434523Y-97702380D01*
X237815476Y-97702380D01*
X237482142Y-96702380D02*
X236863095Y-96702380D01*
X237196428Y-97083333D01*
X237053571Y-97083333D01*
X236958333Y-97130952D01*
X236910714Y-97178571D01*
X236863095Y-97273809D01*
X236863095Y-97511904D01*
X236910714Y-97607142D01*
X236958333Y-97654761D01*
X237053571Y-97702380D01*
X237339285Y-97702380D01*
X237434523Y-97654761D01*
X237482142Y-97607142D01*
X220289285Y-97702380D02*
X220289285Y-96702380D01*
X220051190Y-96702380D01*
X219908333Y-96750000D01*
X219813095Y-96845238D01*
X219765476Y-96940476D01*
X219717857Y-97130952D01*
X219717857Y-97273809D01*
X219765476Y-97464285D01*
X219813095Y-97559523D01*
X219908333Y-97654761D01*
X220051190Y-97702380D01*
X220289285Y-97702380D01*
X219336904Y-96797619D02*
X219289285Y-96750000D01*
X219194047Y-96702380D01*
X218955952Y-96702380D01*
X218860714Y-96750000D01*
X218813095Y-96797619D01*
X218765476Y-96892857D01*
X218765476Y-96988095D01*
X218813095Y-97130952D01*
X219384523Y-97702380D01*
X218765476Y-97702380D01*
X218384523Y-96797619D02*
X218336904Y-96750000D01*
X218241666Y-96702380D01*
X218003571Y-96702380D01*
X217908333Y-96750000D01*
X217860714Y-96797619D01*
X217813095Y-96892857D01*
X217813095Y-96988095D01*
X217860714Y-97130952D01*
X218432142Y-97702380D01*
X217813095Y-97702380D01*
X201239285Y-97702380D02*
X201239285Y-96702380D01*
X201001190Y-96702380D01*
X200858333Y-96750000D01*
X200763095Y-96845238D01*
X200715476Y-96940476D01*
X200667857Y-97130952D01*
X200667857Y-97273809D01*
X200715476Y-97464285D01*
X200763095Y-97559523D01*
X200858333Y-97654761D01*
X201001190Y-97702380D01*
X201239285Y-97702380D01*
X200286904Y-96797619D02*
X200239285Y-96750000D01*
X200144047Y-96702380D01*
X199905952Y-96702380D01*
X199810714Y-96750000D01*
X199763095Y-96797619D01*
X199715476Y-96892857D01*
X199715476Y-96988095D01*
X199763095Y-97130952D01*
X200334523Y-97702380D01*
X199715476Y-97702380D01*
X198763095Y-97702380D02*
X199334523Y-97702380D01*
X199048809Y-97702380D02*
X199048809Y-96702380D01*
X199144047Y-96845238D01*
X199239285Y-96940476D01*
X199334523Y-96988095D01*
X182189285Y-97702380D02*
X182189285Y-96702380D01*
X181951190Y-96702380D01*
X181808333Y-96750000D01*
X181713095Y-96845238D01*
X181665476Y-96940476D01*
X181617857Y-97130952D01*
X181617857Y-97273809D01*
X181665476Y-97464285D01*
X181713095Y-97559523D01*
X181808333Y-97654761D01*
X181951190Y-97702380D01*
X182189285Y-97702380D01*
X181236904Y-96797619D02*
X181189285Y-96750000D01*
X181094047Y-96702380D01*
X180855952Y-96702380D01*
X180760714Y-96750000D01*
X180713095Y-96797619D01*
X180665476Y-96892857D01*
X180665476Y-96988095D01*
X180713095Y-97130952D01*
X181284523Y-97702380D01*
X180665476Y-97702380D01*
X180046428Y-96702380D02*
X179951190Y-96702380D01*
X179855952Y-96750000D01*
X179808333Y-96797619D01*
X179760714Y-96892857D01*
X179713095Y-97083333D01*
X179713095Y-97321428D01*
X179760714Y-97511904D01*
X179808333Y-97607142D01*
X179855952Y-97654761D01*
X179951190Y-97702380D01*
X180046428Y-97702380D01*
X180141666Y-97654761D01*
X180189285Y-97607142D01*
X180236904Y-97511904D01*
X180284523Y-97321428D01*
X180284523Y-97083333D01*
X180236904Y-96892857D01*
X180189285Y-96797619D01*
X180141666Y-96750000D01*
X180046428Y-96702380D01*
X158376785Y-97702380D02*
X158376785Y-96702380D01*
X158138690Y-96702380D01*
X157995833Y-96750000D01*
X157900595Y-96845238D01*
X157852976Y-96940476D01*
X157805357Y-97130952D01*
X157805357Y-97273809D01*
X157852976Y-97464285D01*
X157900595Y-97559523D01*
X157995833Y-97654761D01*
X158138690Y-97702380D01*
X158376785Y-97702380D01*
X156852976Y-97702380D02*
X157424404Y-97702380D01*
X157138690Y-97702380D02*
X157138690Y-96702380D01*
X157233928Y-96845238D01*
X157329166Y-96940476D01*
X157424404Y-96988095D01*
X156376785Y-97702380D02*
X156186309Y-97702380D01*
X156091071Y-97654761D01*
X156043452Y-97607142D01*
X155948214Y-97464285D01*
X155900595Y-97273809D01*
X155900595Y-96892857D01*
X155948214Y-96797619D01*
X155995833Y-96750000D01*
X156091071Y-96702380D01*
X156281547Y-96702380D01*
X156376785Y-96750000D01*
X156424404Y-96797619D01*
X156472023Y-96892857D01*
X156472023Y-97130952D01*
X156424404Y-97226190D01*
X156376785Y-97273809D01*
X156281547Y-97321428D01*
X156091071Y-97321428D01*
X155995833Y-97273809D01*
X155948214Y-97226190D01*
X155900595Y-97130952D01*
X134564285Y-97702380D02*
X134564285Y-96702380D01*
X134326190Y-96702380D01*
X134183333Y-96750000D01*
X134088095Y-96845238D01*
X134040476Y-96940476D01*
X133992857Y-97130952D01*
X133992857Y-97273809D01*
X134040476Y-97464285D01*
X134088095Y-97559523D01*
X134183333Y-97654761D01*
X134326190Y-97702380D01*
X134564285Y-97702380D01*
X133040476Y-97702380D02*
X133611904Y-97702380D01*
X133326190Y-97702380D02*
X133326190Y-96702380D01*
X133421428Y-96845238D01*
X133516666Y-96940476D01*
X133611904Y-96988095D01*
X132469047Y-97130952D02*
X132564285Y-97083333D01*
X132611904Y-97035714D01*
X132659523Y-96940476D01*
X132659523Y-96892857D01*
X132611904Y-96797619D01*
X132564285Y-96750000D01*
X132469047Y-96702380D01*
X132278571Y-96702380D01*
X132183333Y-96750000D01*
X132135714Y-96797619D01*
X132088095Y-96892857D01*
X132088095Y-96940476D01*
X132135714Y-97035714D01*
X132183333Y-97083333D01*
X132278571Y-97130952D01*
X132469047Y-97130952D01*
X132564285Y-97178571D01*
X132611904Y-97226190D01*
X132659523Y-97321428D01*
X132659523Y-97511904D01*
X132611904Y-97607142D01*
X132564285Y-97654761D01*
X132469047Y-97702380D01*
X132278571Y-97702380D01*
X132183333Y-97654761D01*
X132135714Y-97607142D01*
X132088095Y-97511904D01*
X132088095Y-97321428D01*
X132135714Y-97226190D01*
X132183333Y-97178571D01*
X132278571Y-97130952D01*
X115514285Y-97702380D02*
X115514285Y-96702380D01*
X115276190Y-96702380D01*
X115133333Y-96750000D01*
X115038095Y-96845238D01*
X114990476Y-96940476D01*
X114942857Y-97130952D01*
X114942857Y-97273809D01*
X114990476Y-97464285D01*
X115038095Y-97559523D01*
X115133333Y-97654761D01*
X115276190Y-97702380D01*
X115514285Y-97702380D01*
X113990476Y-97702380D02*
X114561904Y-97702380D01*
X114276190Y-97702380D02*
X114276190Y-96702380D01*
X114371428Y-96845238D01*
X114466666Y-96940476D01*
X114561904Y-96988095D01*
X113657142Y-96702380D02*
X112990476Y-96702380D01*
X113419047Y-97702380D01*
X96464285Y-97702380D02*
X96464285Y-96702380D01*
X96226190Y-96702380D01*
X96083333Y-96750000D01*
X95988095Y-96845238D01*
X95940476Y-96940476D01*
X95892857Y-97130952D01*
X95892857Y-97273809D01*
X95940476Y-97464285D01*
X95988095Y-97559523D01*
X96083333Y-97654761D01*
X96226190Y-97702380D01*
X96464285Y-97702380D01*
X94940476Y-97702380D02*
X95511904Y-97702380D01*
X95226190Y-97702380D02*
X95226190Y-96702380D01*
X95321428Y-96845238D01*
X95416666Y-96940476D01*
X95511904Y-96988095D01*
X94083333Y-96702380D02*
X94273809Y-96702380D01*
X94369047Y-96750000D01*
X94416666Y-96797619D01*
X94511904Y-96940476D01*
X94559523Y-97130952D01*
X94559523Y-97511904D01*
X94511904Y-97607142D01*
X94464285Y-97654761D01*
X94369047Y-97702380D01*
X94178571Y-97702380D01*
X94083333Y-97654761D01*
X94035714Y-97607142D01*
X93988095Y-97511904D01*
X93988095Y-97273809D01*
X94035714Y-97178571D01*
X94083333Y-97130952D01*
X94178571Y-97083333D01*
X94369047Y-97083333D01*
X94464285Y-97130952D01*
X94511904Y-97178571D01*
X94559523Y-97273809D01*
X77414285Y-97702380D02*
X77414285Y-96702380D01*
X77176190Y-96702380D01*
X77033333Y-96750000D01*
X76938095Y-96845238D01*
X76890476Y-96940476D01*
X76842857Y-97130952D01*
X76842857Y-97273809D01*
X76890476Y-97464285D01*
X76938095Y-97559523D01*
X77033333Y-97654761D01*
X77176190Y-97702380D01*
X77414285Y-97702380D01*
X75890476Y-97702380D02*
X76461904Y-97702380D01*
X76176190Y-97702380D02*
X76176190Y-96702380D01*
X76271428Y-96845238D01*
X76366666Y-96940476D01*
X76461904Y-96988095D01*
X74985714Y-96702380D02*
X75461904Y-96702380D01*
X75509523Y-97178571D01*
X75461904Y-97130952D01*
X75366666Y-97083333D01*
X75128571Y-97083333D01*
X75033333Y-97130952D01*
X74985714Y-97178571D01*
X74938095Y-97273809D01*
X74938095Y-97511904D01*
X74985714Y-97607142D01*
X75033333Y-97654761D01*
X75128571Y-97702380D01*
X75366666Y-97702380D01*
X75461904Y-97654761D01*
X75509523Y-97607142D01*
X58364285Y-102464880D02*
X58364285Y-101464880D01*
X58126190Y-101464880D01*
X57983333Y-101512500D01*
X57888095Y-101607738D01*
X57840476Y-101702976D01*
X57792857Y-101893452D01*
X57792857Y-102036309D01*
X57840476Y-102226785D01*
X57888095Y-102322023D01*
X57983333Y-102417261D01*
X58126190Y-102464880D01*
X58364285Y-102464880D01*
X56840476Y-102464880D02*
X57411904Y-102464880D01*
X57126190Y-102464880D02*
X57126190Y-101464880D01*
X57221428Y-101607738D01*
X57316666Y-101702976D01*
X57411904Y-101750595D01*
X55983333Y-101798214D02*
X55983333Y-102464880D01*
X56221428Y-101417261D02*
X56459523Y-102131547D01*
X55840476Y-102131547D01*
X39314285Y-102464880D02*
X39314285Y-101464880D01*
X39076190Y-101464880D01*
X38933333Y-101512500D01*
X38838095Y-101607738D01*
X38790476Y-101702976D01*
X38742857Y-101893452D01*
X38742857Y-102036309D01*
X38790476Y-102226785D01*
X38838095Y-102322023D01*
X38933333Y-102417261D01*
X39076190Y-102464880D01*
X39314285Y-102464880D01*
X37790476Y-102464880D02*
X38361904Y-102464880D01*
X38076190Y-102464880D02*
X38076190Y-101464880D01*
X38171428Y-101607738D01*
X38266666Y-101702976D01*
X38361904Y-101750595D01*
X37457142Y-101464880D02*
X36838095Y-101464880D01*
X37171428Y-101845833D01*
X37028571Y-101845833D01*
X36933333Y-101893452D01*
X36885714Y-101941071D01*
X36838095Y-102036309D01*
X36838095Y-102274404D01*
X36885714Y-102369642D01*
X36933333Y-102417261D01*
X37028571Y-102464880D01*
X37314285Y-102464880D01*
X37409523Y-102417261D01*
X37457142Y-102369642D01*
X277439285Y-83414880D02*
X277439285Y-82414880D01*
X277201190Y-82414880D01*
X277058333Y-82462500D01*
X276963095Y-82557738D01*
X276915476Y-82652976D01*
X276867857Y-82843452D01*
X276867857Y-82986309D01*
X276915476Y-83176785D01*
X276963095Y-83272023D01*
X277058333Y-83367261D01*
X277201190Y-83414880D01*
X277439285Y-83414880D01*
X275915476Y-83414880D02*
X276486904Y-83414880D01*
X276201190Y-83414880D02*
X276201190Y-82414880D01*
X276296428Y-82557738D01*
X276391666Y-82652976D01*
X276486904Y-82700595D01*
X275534523Y-82510119D02*
X275486904Y-82462500D01*
X275391666Y-82414880D01*
X275153571Y-82414880D01*
X275058333Y-82462500D01*
X275010714Y-82510119D01*
X274963095Y-82605357D01*
X274963095Y-82700595D01*
X275010714Y-82843452D01*
X275582142Y-83414880D01*
X274963095Y-83414880D01*
X258389285Y-83414880D02*
X258389285Y-82414880D01*
X258151190Y-82414880D01*
X258008333Y-82462500D01*
X257913095Y-82557738D01*
X257865476Y-82652976D01*
X257817857Y-82843452D01*
X257817857Y-82986309D01*
X257865476Y-83176785D01*
X257913095Y-83272023D01*
X258008333Y-83367261D01*
X258151190Y-83414880D01*
X258389285Y-83414880D01*
X256865476Y-83414880D02*
X257436904Y-83414880D01*
X257151190Y-83414880D02*
X257151190Y-82414880D01*
X257246428Y-82557738D01*
X257341666Y-82652976D01*
X257436904Y-82700595D01*
X255913095Y-83414880D02*
X256484523Y-83414880D01*
X256198809Y-83414880D02*
X256198809Y-82414880D01*
X256294047Y-82557738D01*
X256389285Y-82652976D01*
X256484523Y-82700595D01*
X239339285Y-78652380D02*
X239339285Y-77652380D01*
X239101190Y-77652380D01*
X238958333Y-77700000D01*
X238863095Y-77795238D01*
X238815476Y-77890476D01*
X238767857Y-78080952D01*
X238767857Y-78223809D01*
X238815476Y-78414285D01*
X238863095Y-78509523D01*
X238958333Y-78604761D01*
X239101190Y-78652380D01*
X239339285Y-78652380D01*
X237815476Y-78652380D02*
X238386904Y-78652380D01*
X238101190Y-78652380D02*
X238101190Y-77652380D01*
X238196428Y-77795238D01*
X238291666Y-77890476D01*
X238386904Y-77938095D01*
X237196428Y-77652380D02*
X237101190Y-77652380D01*
X237005952Y-77700000D01*
X236958333Y-77747619D01*
X236910714Y-77842857D01*
X236863095Y-78033333D01*
X236863095Y-78271428D01*
X236910714Y-78461904D01*
X236958333Y-78557142D01*
X237005952Y-78604761D01*
X237101190Y-78652380D01*
X237196428Y-78652380D01*
X237291666Y-78604761D01*
X237339285Y-78557142D01*
X237386904Y-78461904D01*
X237434523Y-78271428D01*
X237434523Y-78033333D01*
X237386904Y-77842857D01*
X237339285Y-77747619D01*
X237291666Y-77700000D01*
X237196428Y-77652380D01*
X219813095Y-78652380D02*
X219813095Y-77652380D01*
X219575000Y-77652380D01*
X219432142Y-77700000D01*
X219336904Y-77795238D01*
X219289285Y-77890476D01*
X219241666Y-78080952D01*
X219241666Y-78223809D01*
X219289285Y-78414285D01*
X219336904Y-78509523D01*
X219432142Y-78604761D01*
X219575000Y-78652380D01*
X219813095Y-78652380D01*
X218765476Y-78652380D02*
X218575000Y-78652380D01*
X218479761Y-78604761D01*
X218432142Y-78557142D01*
X218336904Y-78414285D01*
X218289285Y-78223809D01*
X218289285Y-77842857D01*
X218336904Y-77747619D01*
X218384523Y-77700000D01*
X218479761Y-77652380D01*
X218670238Y-77652380D01*
X218765476Y-77700000D01*
X218813095Y-77747619D01*
X218860714Y-77842857D01*
X218860714Y-78080952D01*
X218813095Y-78176190D01*
X218765476Y-78223809D01*
X218670238Y-78271428D01*
X218479761Y-78271428D01*
X218384523Y-78223809D01*
X218336904Y-78176190D01*
X218289285Y-78080952D01*
X200763095Y-78652380D02*
X200763095Y-77652380D01*
X200525000Y-77652380D01*
X200382142Y-77700000D01*
X200286904Y-77795238D01*
X200239285Y-77890476D01*
X200191666Y-78080952D01*
X200191666Y-78223809D01*
X200239285Y-78414285D01*
X200286904Y-78509523D01*
X200382142Y-78604761D01*
X200525000Y-78652380D01*
X200763095Y-78652380D01*
X199620238Y-78080952D02*
X199715476Y-78033333D01*
X199763095Y-77985714D01*
X199810714Y-77890476D01*
X199810714Y-77842857D01*
X199763095Y-77747619D01*
X199715476Y-77700000D01*
X199620238Y-77652380D01*
X199429761Y-77652380D01*
X199334523Y-77700000D01*
X199286904Y-77747619D01*
X199239285Y-77842857D01*
X199239285Y-77890476D01*
X199286904Y-77985714D01*
X199334523Y-78033333D01*
X199429761Y-78080952D01*
X199620238Y-78080952D01*
X199715476Y-78128571D01*
X199763095Y-78176190D01*
X199810714Y-78271428D01*
X199810714Y-78461904D01*
X199763095Y-78557142D01*
X199715476Y-78604761D01*
X199620238Y-78652380D01*
X199429761Y-78652380D01*
X199334523Y-78604761D01*
X199286904Y-78557142D01*
X199239285Y-78461904D01*
X199239285Y-78271428D01*
X199286904Y-78176190D01*
X199334523Y-78128571D01*
X199429761Y-78080952D01*
X181713095Y-78652380D02*
X181713095Y-77652380D01*
X181475000Y-77652380D01*
X181332142Y-77700000D01*
X181236904Y-77795238D01*
X181189285Y-77890476D01*
X181141666Y-78080952D01*
X181141666Y-78223809D01*
X181189285Y-78414285D01*
X181236904Y-78509523D01*
X181332142Y-78604761D01*
X181475000Y-78652380D01*
X181713095Y-78652380D01*
X180808333Y-77652380D02*
X180141666Y-77652380D01*
X180570238Y-78652380D01*
X134088095Y-78652380D02*
X134088095Y-77652380D01*
X133850000Y-77652380D01*
X133707142Y-77700000D01*
X133611904Y-77795238D01*
X133564285Y-77890476D01*
X133516666Y-78080952D01*
X133516666Y-78223809D01*
X133564285Y-78414285D01*
X133611904Y-78509523D01*
X133707142Y-78604761D01*
X133850000Y-78652380D01*
X134088095Y-78652380D01*
X132659523Y-77652380D02*
X132850000Y-77652380D01*
X132945238Y-77700000D01*
X132992857Y-77747619D01*
X133088095Y-77890476D01*
X133135714Y-78080952D01*
X133135714Y-78461904D01*
X133088095Y-78557142D01*
X133040476Y-78604761D01*
X132945238Y-78652380D01*
X132754761Y-78652380D01*
X132659523Y-78604761D01*
X132611904Y-78557142D01*
X132564285Y-78461904D01*
X132564285Y-78223809D01*
X132611904Y-78128571D01*
X132659523Y-78080952D01*
X132754761Y-78033333D01*
X132945238Y-78033333D01*
X133040476Y-78080952D01*
X133088095Y-78128571D01*
X133135714Y-78223809D01*
X115038095Y-78652380D02*
X115038095Y-77652380D01*
X114800000Y-77652380D01*
X114657142Y-77700000D01*
X114561904Y-77795238D01*
X114514285Y-77890476D01*
X114466666Y-78080952D01*
X114466666Y-78223809D01*
X114514285Y-78414285D01*
X114561904Y-78509523D01*
X114657142Y-78604761D01*
X114800000Y-78652380D01*
X115038095Y-78652380D01*
X113561904Y-77652380D02*
X114038095Y-77652380D01*
X114085714Y-78128571D01*
X114038095Y-78080952D01*
X113942857Y-78033333D01*
X113704761Y-78033333D01*
X113609523Y-78080952D01*
X113561904Y-78128571D01*
X113514285Y-78223809D01*
X113514285Y-78461904D01*
X113561904Y-78557142D01*
X113609523Y-78604761D01*
X113704761Y-78652380D01*
X113942857Y-78652380D01*
X114038095Y-78604761D01*
X114085714Y-78557142D01*
X95988095Y-78652380D02*
X95988095Y-77652380D01*
X95750000Y-77652380D01*
X95607142Y-77700000D01*
X95511904Y-77795238D01*
X95464285Y-77890476D01*
X95416666Y-78080952D01*
X95416666Y-78223809D01*
X95464285Y-78414285D01*
X95511904Y-78509523D01*
X95607142Y-78604761D01*
X95750000Y-78652380D01*
X95988095Y-78652380D01*
X94559523Y-77985714D02*
X94559523Y-78652380D01*
X94797619Y-77604761D02*
X95035714Y-78319047D01*
X94416666Y-78319047D01*
X76938095Y-78652380D02*
X76938095Y-77652380D01*
X76700000Y-77652380D01*
X76557142Y-77700000D01*
X76461904Y-77795238D01*
X76414285Y-77890476D01*
X76366666Y-78080952D01*
X76366666Y-78223809D01*
X76414285Y-78414285D01*
X76461904Y-78509523D01*
X76557142Y-78604761D01*
X76700000Y-78652380D01*
X76938095Y-78652380D01*
X76033333Y-77652380D02*
X75414285Y-77652380D01*
X75747619Y-78033333D01*
X75604761Y-78033333D01*
X75509523Y-78080952D01*
X75461904Y-78128571D01*
X75414285Y-78223809D01*
X75414285Y-78461904D01*
X75461904Y-78557142D01*
X75509523Y-78604761D01*
X75604761Y-78652380D01*
X75890476Y-78652380D01*
X75985714Y-78604761D01*
X76033333Y-78557142D01*
X57888095Y-83414880D02*
X57888095Y-82414880D01*
X57650000Y-82414880D01*
X57507142Y-82462500D01*
X57411904Y-82557738D01*
X57364285Y-82652976D01*
X57316666Y-82843452D01*
X57316666Y-82986309D01*
X57364285Y-83176785D01*
X57411904Y-83272023D01*
X57507142Y-83367261D01*
X57650000Y-83414880D01*
X57888095Y-83414880D01*
X56935714Y-82510119D02*
X56888095Y-82462500D01*
X56792857Y-82414880D01*
X56554761Y-82414880D01*
X56459523Y-82462500D01*
X56411904Y-82510119D01*
X56364285Y-82605357D01*
X56364285Y-82700595D01*
X56411904Y-82843452D01*
X56983333Y-83414880D01*
X56364285Y-83414880D01*
X38838095Y-83414880D02*
X38838095Y-82414880D01*
X38600000Y-82414880D01*
X38457142Y-82462500D01*
X38361904Y-82557738D01*
X38314285Y-82652976D01*
X38266666Y-82843452D01*
X38266666Y-82986309D01*
X38314285Y-83176785D01*
X38361904Y-83272023D01*
X38457142Y-83367261D01*
X38600000Y-83414880D01*
X38838095Y-83414880D01*
X37314285Y-83414880D02*
X37885714Y-83414880D01*
X37600000Y-83414880D02*
X37600000Y-82414880D01*
X37695238Y-82557738D01*
X37790476Y-82652976D01*
X37885714Y-82700595D01*
M02*
