G04 #@! TF.GenerationSoftware,KiCad,Pcbnew,(5.1.2)-1*
G04 #@! TF.CreationDate,2020-02-22T00:02:01+09:00*
G04 #@! TF.ProjectId,rkbd_44,726b6264-5f34-4342-9e6b-696361645f70,rev?*
G04 #@! TF.SameCoordinates,Original*
G04 #@! TF.FileFunction,Copper,L1,Top*
G04 #@! TF.FilePolarity,Positive*
%FSLAX46Y46*%
G04 Gerber Fmt 4.6, Leading zero omitted, Abs format (unit mm)*
G04 Created by KiCad (PCBNEW (5.1.2)-1) date 2020-02-22 00:02:01*
%MOMM*%
%LPD*%
G04 APERTURE LIST*
%ADD10C,2.250000*%
%ADD11C,1.524000*%
%ADD12C,0.800000*%
%ADD13C,0.250000*%
G04 APERTURE END LIST*
D10*
X176371250Y-63976250D03*
X170021250Y-66516250D03*
X147478750Y-93186250D03*
X153828750Y-90646250D03*
D11*
X157604850Y-63468250D03*
X157604850Y-66008250D03*
X157604850Y-68548250D03*
X157604850Y-71088250D03*
X157604850Y-73628250D03*
X157604850Y-76168250D03*
X157604850Y-78708250D03*
X157604850Y-81248250D03*
X157604850Y-83788250D03*
X157604850Y-86328250D03*
X157604850Y-88868250D03*
X157604850Y-91408250D03*
X142384850Y-91408250D03*
X142384850Y-88868250D03*
X142384850Y-86328250D03*
X142384850Y-83788250D03*
X142384850Y-81248250D03*
X142384850Y-78708250D03*
X142384850Y-76168250D03*
X142384850Y-73628250D03*
X142384850Y-71088250D03*
X142384850Y-68548250D03*
X142384850Y-66008250D03*
X142384850Y-63468250D03*
D10*
X204946250Y-121126250D03*
X198596250Y-123666250D03*
X185896250Y-121126250D03*
X179546250Y-123666250D03*
X164465000Y-121126250D03*
X158115000Y-123666250D03*
X140652500Y-121126250D03*
X134302500Y-123666250D03*
X119221250Y-121126250D03*
X112871250Y-123666250D03*
X100171250Y-121126250D03*
X93821250Y-123666250D03*
X271621250Y-106838750D03*
X265271250Y-109378750D03*
X252571250Y-106838750D03*
X246221250Y-109378750D03*
X233521250Y-102076250D03*
X227171250Y-104616250D03*
X214471250Y-102076250D03*
X208121250Y-104616250D03*
X195421250Y-102076250D03*
X189071250Y-104616250D03*
X176371250Y-102076250D03*
X170021250Y-104616250D03*
X152558750Y-102076250D03*
X146208750Y-104616250D03*
X128746250Y-102076250D03*
X122396250Y-104616250D03*
X109696250Y-102076250D03*
X103346250Y-104616250D03*
X90646250Y-102076250D03*
X84296250Y-104616250D03*
X71596250Y-102076250D03*
X65246250Y-104616250D03*
X52546250Y-106838750D03*
X46196250Y-109378750D03*
X33496250Y-106838750D03*
X27146250Y-109378750D03*
X271621250Y-87788750D03*
X265271250Y-90328750D03*
X252571250Y-87788750D03*
X246221250Y-90328750D03*
X233521250Y-83026250D03*
X227171250Y-85566250D03*
X214471250Y-83026250D03*
X208121250Y-85566250D03*
X195421250Y-83026250D03*
X189071250Y-85566250D03*
X176371250Y-83026250D03*
X170021250Y-85566250D03*
X128746250Y-83026250D03*
X122396250Y-85566250D03*
X109696250Y-83026250D03*
X103346250Y-85566250D03*
X90646250Y-83026250D03*
X84296250Y-85566250D03*
X71596250Y-83026250D03*
X65246250Y-85566250D03*
X52546250Y-87788750D03*
X46196250Y-90328750D03*
X33496250Y-87788750D03*
X27146250Y-90328750D03*
X271621250Y-68738750D03*
X265271250Y-71278750D03*
X252571250Y-68738750D03*
X246221250Y-71278750D03*
X233521250Y-63976250D03*
X227171250Y-66516250D03*
X214471250Y-63976250D03*
X208121250Y-66516250D03*
X195421250Y-63976250D03*
X189071250Y-66516250D03*
X128746250Y-63976250D03*
X122396250Y-66516250D03*
X109696250Y-63976250D03*
X103346250Y-66516250D03*
X90646250Y-63976250D03*
X84296250Y-66516250D03*
X71596250Y-63976250D03*
X65246250Y-66516250D03*
X52546250Y-68738750D03*
X46196250Y-71278750D03*
X33496250Y-68738750D03*
X27146250Y-71278750D03*
D12*
X139036250Y-73836250D03*
X153166250Y-73696250D03*
X141956250Y-94056250D03*
X141956250Y-98056250D03*
X140956250Y-94056250D03*
X140956250Y-98056250D03*
X140956250Y-114056250D03*
X140956250Y-116056250D03*
X46196250Y-80206850D03*
X46196250Y-85718650D03*
X46196250Y-99060000D03*
X46196250Y-103822500D03*
X65246250Y-76346050D03*
X65246250Y-81680050D03*
X65246250Y-98766250D03*
X65246250Y-101766250D03*
X84296250Y-75716250D03*
X84296250Y-80716250D03*
X84296250Y-94716250D03*
X84296250Y-99716250D03*
X86956250Y-113056250D03*
X90956250Y-120801250D03*
X103346250Y-74666250D03*
X103346250Y-81666250D03*
X103346250Y-94297500D03*
X103346250Y-99060000D03*
X105956250Y-113056250D03*
X109956250Y-121056250D03*
X122396250Y-72866250D03*
X122396250Y-82391250D03*
X122396250Y-94297500D03*
X122396250Y-98583750D03*
X124956250Y-112056250D03*
X128956250Y-121056250D03*
X170016250Y-74556250D03*
X170016250Y-83066250D03*
X170021250Y-92471250D03*
X170026250Y-100136250D03*
X168216250Y-112926250D03*
X162906250Y-118966250D03*
X189071250Y-75041250D03*
X189081250Y-81131250D03*
X189071250Y-92821250D03*
X189071250Y-99941250D03*
X186956250Y-113056250D03*
X181956250Y-119056250D03*
X208121250Y-74866250D03*
X208121250Y-80816250D03*
X208121250Y-93266250D03*
X208131250Y-99956250D03*
X205956250Y-113056250D03*
X200956250Y-119056250D03*
X227171250Y-74766250D03*
X227171250Y-81221250D03*
X227171250Y-93421250D03*
X227171250Y-99996250D03*
X246221250Y-78791250D03*
X246221250Y-85791250D03*
X246221250Y-97791250D03*
X246221250Y-104791250D03*
X265271250Y-79741250D03*
X265271250Y-85741250D03*
X265271250Y-98741250D03*
X265271250Y-104741250D03*
X152856250Y-93209740D03*
X149856250Y-99786250D03*
D13*
X140331251Y-72541249D02*
X152011249Y-72541249D01*
X139036250Y-73836250D02*
X140331251Y-72541249D01*
X152011249Y-72541249D02*
X153166250Y-73696250D01*
X141956250Y-94056250D02*
X141956250Y-98056250D01*
X140956250Y-94056250D02*
X140956250Y-98056250D01*
X140956250Y-114056250D02*
X140956250Y-116056250D01*
X46196250Y-80206850D02*
X46196250Y-80772535D01*
X46196250Y-80772535D02*
X46196250Y-85718650D01*
X46196250Y-99060000D02*
X46196250Y-103822500D01*
X65246250Y-76346050D02*
X65246250Y-81680050D01*
X65246250Y-98766250D02*
X65246250Y-101766250D01*
X84296250Y-75716250D02*
X84296250Y-80716250D01*
X84296250Y-94716250D02*
X84296250Y-99716250D01*
X86956250Y-116801250D02*
X90956250Y-120801250D01*
X86956250Y-113056250D02*
X86956250Y-116801250D01*
X103346250Y-74666250D02*
X103346250Y-81666250D01*
X103346250Y-94297500D02*
X103346250Y-99060000D01*
X105956250Y-113056250D02*
X105956250Y-117056250D01*
X105956250Y-117056250D02*
X109956250Y-121056250D01*
X122396250Y-72866250D02*
X122396250Y-82391250D01*
X122396250Y-94297500D02*
X122396250Y-98583750D01*
X124956250Y-112056250D02*
X124956250Y-117056250D01*
X124956250Y-117056250D02*
X128956250Y-121056250D01*
X170016250Y-74556250D02*
X170016250Y-81356250D01*
X170016250Y-81356250D02*
X170016250Y-83066250D01*
X170021250Y-93036935D02*
X170026250Y-93041935D01*
X170021250Y-92471250D02*
X170021250Y-93036935D01*
X170026250Y-93041935D02*
X170026250Y-100136250D01*
X168216250Y-112926250D02*
X168216250Y-113656250D01*
X168216250Y-113656250D02*
X162906250Y-118966250D01*
X189071250Y-75606935D02*
X189081250Y-75616935D01*
X189071250Y-75041250D02*
X189071250Y-75606935D01*
X189081250Y-75616935D02*
X189081250Y-81131250D01*
X189071250Y-92821250D02*
X189071250Y-97555050D01*
X189071250Y-97555050D02*
X189071250Y-99941250D01*
X186956250Y-113056250D02*
X186956250Y-114056250D01*
X186956250Y-114056250D02*
X181956250Y-119056250D01*
X208121250Y-74866250D02*
X208121250Y-80816250D01*
X208121250Y-93831935D02*
X208131250Y-93841935D01*
X208121250Y-93266250D02*
X208121250Y-93831935D01*
X208131250Y-93841935D02*
X208131250Y-99956250D01*
X205956250Y-113056250D02*
X205956250Y-114056250D01*
X205956250Y-114056250D02*
X200956250Y-119056250D01*
X227171250Y-74766250D02*
X227171250Y-81221250D01*
X227171250Y-93421250D02*
X227171250Y-99996250D01*
X246221250Y-78791250D02*
X246221250Y-85791250D01*
X246221250Y-97791250D02*
X246221250Y-104791250D01*
X265271250Y-79741250D02*
X265271250Y-85741250D01*
X265271250Y-98741250D02*
X265271250Y-104741250D01*
X152456251Y-93609739D02*
X152456251Y-97186249D01*
X152856250Y-93209740D02*
X152456251Y-93609739D01*
X152456251Y-97186249D02*
X149856250Y-99786250D01*
M02*
