G04 #@! TF.GenerationSoftware,KiCad,Pcbnew,(5.1.2)-1*
G04 #@! TF.CreationDate,2020-02-22T00:02:01+09:00*
G04 #@! TF.ProjectId,rkbd_44,726b6264-5f34-4342-9e6b-696361645f70,rev?*
G04 #@! TF.SameCoordinates,Original*
G04 #@! TF.FileFunction,Copper,L2,Bot*
G04 #@! TF.FilePolarity,Positive*
%FSLAX46Y46*%
G04 Gerber Fmt 4.6, Leading zero omitted, Abs format (unit mm)*
G04 Created by KiCad (PCBNEW (5.1.2)-1) date 2020-02-22 00:02:01*
%MOMM*%
%LPD*%
G04 APERTURE LIST*
%ADD10C,2.250000*%
%ADD11C,1.524000*%
%ADD12R,1.800000X1.100000*%
%ADD13R,0.900000X1.200000*%
%ADD14C,0.800000*%
%ADD15C,0.381000*%
%ADD16C,0.250000*%
G04 APERTURE END LIST*
D10*
X176371250Y-63976250D03*
X170021250Y-66516250D03*
X147478750Y-93186250D03*
X153828750Y-90646250D03*
D11*
X157604850Y-63468250D03*
X157604850Y-66008250D03*
X157604850Y-68548250D03*
X157604850Y-71088250D03*
X157604850Y-73628250D03*
X157604850Y-76168250D03*
X157604850Y-78708250D03*
X157604850Y-81248250D03*
X157604850Y-83788250D03*
X157604850Y-86328250D03*
X157604850Y-88868250D03*
X157604850Y-91408250D03*
X142384850Y-91408250D03*
X142384850Y-88868250D03*
X142384850Y-86328250D03*
X142384850Y-83788250D03*
X142384850Y-81248250D03*
X142384850Y-78708250D03*
X142384850Y-76168250D03*
X142384850Y-73628250D03*
X142384850Y-71088250D03*
X142384850Y-68548250D03*
X142384850Y-66008250D03*
X142384850Y-63468250D03*
D12*
X160496250Y-60526250D03*
X166696250Y-64226250D03*
X160496250Y-64226250D03*
X166696250Y-60526250D03*
D10*
X204946250Y-121126250D03*
X198596250Y-123666250D03*
X185896250Y-121126250D03*
X179546250Y-123666250D03*
X164465000Y-121126250D03*
X158115000Y-123666250D03*
X140652500Y-121126250D03*
X134302500Y-123666250D03*
X119221250Y-121126250D03*
X112871250Y-123666250D03*
X100171250Y-121126250D03*
X93821250Y-123666250D03*
X271621250Y-106838750D03*
X265271250Y-109378750D03*
X252571250Y-106838750D03*
X246221250Y-109378750D03*
X233521250Y-102076250D03*
X227171250Y-104616250D03*
X214471250Y-102076250D03*
X208121250Y-104616250D03*
X195421250Y-102076250D03*
X189071250Y-104616250D03*
X176371250Y-102076250D03*
X170021250Y-104616250D03*
X152558750Y-102076250D03*
X146208750Y-104616250D03*
X128746250Y-102076250D03*
X122396250Y-104616250D03*
X109696250Y-102076250D03*
X103346250Y-104616250D03*
X90646250Y-102076250D03*
X84296250Y-104616250D03*
X71596250Y-102076250D03*
X65246250Y-104616250D03*
X52546250Y-106838750D03*
X46196250Y-109378750D03*
X33496250Y-106838750D03*
X27146250Y-109378750D03*
X271621250Y-87788750D03*
X265271250Y-90328750D03*
X252571250Y-87788750D03*
X246221250Y-90328750D03*
X233521250Y-83026250D03*
X227171250Y-85566250D03*
X214471250Y-83026250D03*
X208121250Y-85566250D03*
X195421250Y-83026250D03*
X189071250Y-85566250D03*
X176371250Y-83026250D03*
X170021250Y-85566250D03*
X128746250Y-83026250D03*
X122396250Y-85566250D03*
X109696250Y-83026250D03*
X103346250Y-85566250D03*
X90646250Y-83026250D03*
X84296250Y-85566250D03*
X71596250Y-83026250D03*
X65246250Y-85566250D03*
X52546250Y-87788750D03*
X46196250Y-90328750D03*
X33496250Y-87788750D03*
X27146250Y-90328750D03*
X271621250Y-68738750D03*
X265271250Y-71278750D03*
X252571250Y-68738750D03*
X246221250Y-71278750D03*
X233521250Y-63976250D03*
X227171250Y-66516250D03*
X214471250Y-63976250D03*
X208121250Y-66516250D03*
X195421250Y-63976250D03*
X189071250Y-66516250D03*
X128746250Y-63976250D03*
X122396250Y-66516250D03*
X109696250Y-63976250D03*
X103346250Y-66516250D03*
X90646250Y-63976250D03*
X84296250Y-66516250D03*
X71596250Y-63976250D03*
X65246250Y-66516250D03*
X52546250Y-68738750D03*
X46196250Y-71278750D03*
X33496250Y-68738750D03*
X27146250Y-71278750D03*
D13*
X211200000Y-133350000D03*
X207900000Y-133350000D03*
X192150000Y-133350000D03*
X188850000Y-133350000D03*
X170718750Y-133350000D03*
X167418750Y-133350000D03*
X149287500Y-133350000D03*
X145987500Y-133350000D03*
X125475000Y-133350000D03*
X122175000Y-133350000D03*
X106425000Y-133350000D03*
X103125000Y-133350000D03*
X277875000Y-119062500D03*
X274575000Y-119062500D03*
X258825000Y-119062500D03*
X255525000Y-119062500D03*
X239775000Y-114300000D03*
X236475000Y-114300000D03*
X220725000Y-114300000D03*
X217425000Y-114300000D03*
X201675000Y-114300000D03*
X198375000Y-114300000D03*
X182625000Y-114300000D03*
X179325000Y-114300000D03*
X158812500Y-114300000D03*
X155512500Y-114300000D03*
X135731250Y-114300000D03*
X132431250Y-114300000D03*
X115950000Y-114300000D03*
X112650000Y-114300000D03*
X96900000Y-114300000D03*
X93600000Y-114300000D03*
X77850000Y-114300000D03*
X74550000Y-114300000D03*
X58800000Y-119062500D03*
X55500000Y-119062500D03*
X39750000Y-119062500D03*
X36450000Y-119062500D03*
X277875000Y-100012500D03*
X274575000Y-100012500D03*
X258825000Y-100012500D03*
X255525000Y-100012500D03*
X239775000Y-95250000D03*
X236475000Y-95250000D03*
X220725000Y-95250000D03*
X217425000Y-95250000D03*
X201675000Y-95250000D03*
X198375000Y-95250000D03*
X182625000Y-95250000D03*
X179325000Y-95250000D03*
X158812500Y-95250000D03*
X155512500Y-95250000D03*
X135000000Y-95250000D03*
X131700000Y-95250000D03*
X115950000Y-95250000D03*
X112650000Y-95250000D03*
X96900000Y-95250000D03*
X93600000Y-95250000D03*
X77850000Y-95250000D03*
X74550000Y-95250000D03*
X58800000Y-100012500D03*
X55500000Y-100012500D03*
X39750000Y-100012500D03*
X36450000Y-100012500D03*
X277875000Y-80962500D03*
X274575000Y-80962500D03*
X258825000Y-80962500D03*
X255525000Y-80962500D03*
X239775000Y-76200000D03*
X236475000Y-76200000D03*
X220725000Y-76200000D03*
X217425000Y-76200000D03*
X201675000Y-76200000D03*
X198375000Y-76200000D03*
X182625000Y-76200000D03*
X179325000Y-76200000D03*
X135000000Y-76200000D03*
X131700000Y-76200000D03*
X115950000Y-76200000D03*
X112650000Y-76200000D03*
X96900000Y-76200000D03*
X93600000Y-76200000D03*
X77850000Y-76200000D03*
X74550000Y-76200000D03*
X58800000Y-80962500D03*
X55500000Y-80962500D03*
X39750000Y-80962500D03*
X36450000Y-80962500D03*
D14*
X139036250Y-73836250D03*
X153166250Y-73696250D03*
X141956250Y-94056250D03*
X141956250Y-98056250D03*
X140956250Y-94056250D03*
X140956250Y-98056250D03*
X140956250Y-114056250D03*
X140956250Y-116056250D03*
X46196250Y-80206850D03*
X46196250Y-85718650D03*
X46196250Y-99060000D03*
X46196250Y-103822500D03*
X65246250Y-76346050D03*
X65246250Y-81680050D03*
X65246250Y-98766250D03*
X65246250Y-101766250D03*
X84296250Y-75716250D03*
X84296250Y-80716250D03*
X84296250Y-94716250D03*
X84296250Y-99716250D03*
X86956250Y-113056250D03*
X90956250Y-120801250D03*
X103346250Y-74666250D03*
X103346250Y-81666250D03*
X103346250Y-94297500D03*
X103346250Y-99060000D03*
X105956250Y-113056250D03*
X109956250Y-121056250D03*
X122396250Y-72866250D03*
X122396250Y-82391250D03*
X122396250Y-94297500D03*
X122396250Y-98583750D03*
X124956250Y-112056250D03*
X128956250Y-121056250D03*
X170016250Y-74556250D03*
X170016250Y-83066250D03*
X170021250Y-92471250D03*
X170026250Y-100136250D03*
X168216250Y-112926250D03*
X162906250Y-118966250D03*
X189071250Y-75041250D03*
X189081250Y-81131250D03*
X189071250Y-92821250D03*
X189071250Y-99941250D03*
X186956250Y-113056250D03*
X181956250Y-119056250D03*
X208121250Y-74866250D03*
X208121250Y-80816250D03*
X208121250Y-93266250D03*
X208131250Y-99956250D03*
X205956250Y-113056250D03*
X200956250Y-119056250D03*
X227171250Y-74766250D03*
X227171250Y-81221250D03*
X227171250Y-93421250D03*
X227171250Y-99996250D03*
X246221250Y-78791250D03*
X246221250Y-85791250D03*
X246221250Y-97791250D03*
X246221250Y-104791250D03*
X265271250Y-79741250D03*
X265271250Y-85741250D03*
X265271250Y-98741250D03*
X265271250Y-104741250D03*
X152856250Y-93209740D03*
X149856250Y-99786250D03*
D15*
X159386850Y-64226250D02*
X157604850Y-66008250D01*
X160496250Y-64226250D02*
X159386850Y-64226250D01*
X144924850Y-66008250D02*
X142384850Y-68548250D01*
X157604850Y-66008250D02*
X144924850Y-66008250D01*
X142384850Y-68548250D02*
X142384850Y-71088250D01*
D16*
X33496250Y-68738750D02*
X35794950Y-68738750D01*
X39750000Y-72693800D02*
X39750000Y-80962500D01*
X35794950Y-68738750D02*
X39750000Y-72693800D01*
X256225000Y-80962500D02*
X255525000Y-80962500D01*
X257150001Y-81887501D02*
X256225000Y-80962500D01*
X274499999Y-81887501D02*
X257150001Y-81887501D01*
X274575000Y-81812500D02*
X274499999Y-81887501D01*
X274575000Y-80962500D02*
X274575000Y-81812500D01*
X236475000Y-76350000D02*
X236475000Y-76200000D01*
X241087500Y-80962500D02*
X236475000Y-76350000D01*
X255525000Y-80962500D02*
X241087500Y-80962500D01*
X218125000Y-76200000D02*
X217425000Y-76200000D01*
X219050001Y-77125001D02*
X218125000Y-76200000D01*
X234849999Y-77125001D02*
X219050001Y-77125001D01*
X235775000Y-76200000D02*
X234849999Y-77125001D01*
X236475000Y-76200000D02*
X235775000Y-76200000D01*
X199075000Y-76200000D02*
X198375000Y-76200000D01*
X200000001Y-77125001D02*
X199075000Y-76200000D01*
X215799999Y-77125001D02*
X200000001Y-77125001D01*
X216725000Y-76200000D02*
X215799999Y-77125001D01*
X217425000Y-76200000D02*
X216725000Y-76200000D01*
X180025000Y-76200000D02*
X179325000Y-76200000D01*
X180950001Y-77125001D02*
X180025000Y-76200000D01*
X196749999Y-77125001D02*
X180950001Y-77125001D01*
X197675000Y-76200000D02*
X196749999Y-77125001D01*
X198375000Y-76200000D02*
X197675000Y-76200000D01*
X113350000Y-76200000D02*
X112650000Y-76200000D01*
X114275001Y-77125001D02*
X113350000Y-76200000D01*
X130074999Y-77125001D02*
X114275001Y-77125001D01*
X131000000Y-76200000D02*
X130074999Y-77125001D01*
X131700000Y-76200000D02*
X131000000Y-76200000D01*
X94300000Y-76200000D02*
X93600000Y-76200000D01*
X95225001Y-77125001D02*
X94300000Y-76200000D01*
X111024999Y-77125001D02*
X95225001Y-77125001D01*
X111950000Y-76200000D02*
X111024999Y-77125001D01*
X112650000Y-76200000D02*
X111950000Y-76200000D01*
X56200000Y-80962500D02*
X55500000Y-80962500D01*
X57125001Y-81887501D02*
X56200000Y-80962500D01*
X74550000Y-76200000D02*
X73850000Y-76200000D01*
X75250000Y-76200000D02*
X74550000Y-76200000D01*
X76175001Y-77125001D02*
X75250000Y-76200000D01*
X91974999Y-77125001D02*
X76175001Y-77125001D01*
X92900000Y-76200000D02*
X91974999Y-77125001D01*
X93600000Y-76200000D02*
X92900000Y-76200000D01*
X37150000Y-80962500D02*
X36450000Y-80962500D01*
X38075001Y-81887501D02*
X37150000Y-80962500D01*
X53874999Y-81887501D02*
X38075001Y-81887501D01*
X54800000Y-80962500D02*
X53874999Y-81887501D01*
X55500000Y-80962500D02*
X54800000Y-80962500D01*
X57125001Y-81887501D02*
X62295599Y-81887501D01*
X67983100Y-76200000D02*
X74550000Y-76200000D01*
X62295599Y-81887501D02*
X67983100Y-76200000D01*
X132400000Y-76200000D02*
X131700000Y-76200000D01*
X133325001Y-77125001D02*
X132400000Y-76200000D01*
X161628250Y-73628250D02*
X157604850Y-73628250D01*
X179325000Y-76200000D02*
X164200000Y-76200000D01*
X164200000Y-76200000D02*
X161628250Y-73628250D01*
X133325001Y-77125001D02*
X135710001Y-77125001D01*
X135775001Y-77060001D02*
X135812499Y-77060001D01*
X135710001Y-77125001D02*
X135775001Y-77060001D01*
X135812499Y-77060001D02*
X139036250Y-73836250D01*
X157536850Y-73696250D02*
X157604850Y-73628250D01*
X153166250Y-73696250D02*
X157536850Y-73696250D01*
X54137240Y-68738750D02*
X54149940Y-68726050D01*
X52546250Y-68738750D02*
X54137240Y-68738750D01*
X54149940Y-68726050D02*
X56178450Y-68726050D01*
X58800000Y-71347600D02*
X58800000Y-80962500D01*
X56178450Y-68726050D02*
X58800000Y-71347600D01*
X71596250Y-63976250D02*
X74695050Y-63976250D01*
X77850000Y-67131200D02*
X77850000Y-76200000D01*
X74695050Y-63976250D02*
X77850000Y-67131200D01*
X96900000Y-75350000D02*
X96900000Y-76200000D01*
X96900000Y-68639010D02*
X96900000Y-75350000D01*
X92237240Y-63976250D02*
X96900000Y-68639010D01*
X90646250Y-63976250D02*
X92237240Y-63976250D01*
X111287240Y-63976250D02*
X111312640Y-64001650D01*
X109696250Y-63976250D02*
X111287240Y-63976250D01*
X111312640Y-64001650D02*
X113277650Y-64001650D01*
X115950000Y-66674000D02*
X115950000Y-76200000D01*
X113277650Y-64001650D02*
X115950000Y-66674000D01*
X128746250Y-63976250D02*
X131337050Y-63976250D01*
X135000000Y-67639200D02*
X135000000Y-76200000D01*
X131337050Y-63976250D02*
X135000000Y-67639200D01*
X176371250Y-63976250D02*
X179066250Y-63976250D01*
X182625000Y-67535000D02*
X182625000Y-76200000D01*
X179066250Y-63976250D02*
X182625000Y-67535000D01*
X195421250Y-63976250D02*
X198251250Y-63976250D01*
X201675000Y-67400000D02*
X201675000Y-76200000D01*
X198251250Y-63976250D02*
X201675000Y-67400000D01*
X220725000Y-68639010D02*
X220725000Y-76200000D01*
X214471250Y-63976250D02*
X216062240Y-63976250D01*
X216062240Y-63976250D02*
X220725000Y-68639010D01*
X239775000Y-67875000D02*
X239775000Y-76200000D01*
X233521250Y-63976250D02*
X235876250Y-63976250D01*
X235876250Y-63976250D02*
X239775000Y-67875000D01*
X252571250Y-68738750D02*
X254638750Y-68738750D01*
X258825000Y-72925000D02*
X258825000Y-80962500D01*
X254638750Y-68738750D02*
X258825000Y-72925000D01*
X271621250Y-68738750D02*
X274638750Y-68738750D01*
X277875000Y-71975000D02*
X277875000Y-80962500D01*
X274638750Y-68738750D02*
X277875000Y-71975000D01*
X39750000Y-99162500D02*
X39750000Y-100012500D01*
X39750000Y-92451510D02*
X39750000Y-99162500D01*
X35087240Y-87788750D02*
X39750000Y-92451510D01*
X33496250Y-87788750D02*
X35087240Y-87788750D01*
X256225000Y-100012500D02*
X255525000Y-100012500D01*
X257150001Y-100937501D02*
X256225000Y-100012500D01*
X274499999Y-100937501D02*
X257150001Y-100937501D01*
X274575000Y-100862500D02*
X274499999Y-100937501D01*
X274575000Y-100012500D02*
X274575000Y-100862500D01*
X236475000Y-95400000D02*
X236475000Y-95250000D01*
X241087500Y-100012500D02*
X236475000Y-95400000D01*
X255525000Y-100012500D02*
X241087500Y-100012500D01*
X218125000Y-95250000D02*
X217425000Y-95250000D01*
X219050001Y-96175001D02*
X218125000Y-95250000D01*
X234849999Y-96175001D02*
X219050001Y-96175001D01*
X235775000Y-95250000D02*
X234849999Y-96175001D01*
X236475000Y-95250000D02*
X235775000Y-95250000D01*
X199075000Y-95250000D02*
X198375000Y-95250000D01*
X200000001Y-96175001D02*
X199075000Y-95250000D01*
X215799999Y-96175001D02*
X200000001Y-96175001D01*
X216725000Y-95250000D02*
X215799999Y-96175001D01*
X217425000Y-95250000D02*
X216725000Y-95250000D01*
X180025000Y-95250000D02*
X179325000Y-95250000D01*
X180950001Y-96175001D02*
X180025000Y-95250000D01*
X196749999Y-96175001D02*
X180950001Y-96175001D01*
X197675000Y-95250000D02*
X196749999Y-96175001D01*
X198375000Y-95250000D02*
X197675000Y-95250000D01*
X156212500Y-95250000D02*
X155512500Y-95250000D01*
X157137501Y-96175001D02*
X156212500Y-95250000D01*
X178625000Y-95250000D02*
X177699999Y-96175001D01*
X179325000Y-95250000D02*
X178625000Y-95250000D01*
X162745001Y-96175001D02*
X157137501Y-96175001D01*
X94300000Y-95250000D02*
X93600000Y-95250000D01*
X95225001Y-96175001D02*
X94300000Y-95250000D01*
X111024999Y-96175001D02*
X95225001Y-96175001D01*
X111950000Y-95250000D02*
X111024999Y-96175001D01*
X112650000Y-95250000D02*
X111950000Y-95250000D01*
X75250000Y-95250000D02*
X74550000Y-95250000D01*
X76175001Y-96175001D02*
X75250000Y-95250000D01*
X91974999Y-96175001D02*
X76175001Y-96175001D01*
X92900000Y-95250000D02*
X91974999Y-96175001D01*
X93600000Y-95250000D02*
X92900000Y-95250000D01*
X56200000Y-100012500D02*
X55500000Y-100012500D01*
X57125001Y-100937501D02*
X56200000Y-100012500D01*
X68162499Y-100937501D02*
X57125001Y-100937501D01*
X73850000Y-95250000D02*
X68162499Y-100937501D01*
X74550000Y-95250000D02*
X73850000Y-95250000D01*
X37150000Y-100012500D02*
X36450000Y-100012500D01*
X38075001Y-100937501D02*
X37150000Y-100012500D01*
X53874999Y-100937501D02*
X38075001Y-100937501D01*
X54800000Y-100012500D02*
X53874999Y-100937501D01*
X55500000Y-100012500D02*
X54800000Y-100012500D01*
X113350000Y-95250000D02*
X112650000Y-95250000D01*
X114275001Y-96175001D02*
X113350000Y-95250000D01*
X130074999Y-96175001D02*
X114275001Y-96175001D01*
X131000000Y-95250000D02*
X130074999Y-96175001D01*
X131700000Y-95250000D02*
X131000000Y-95250000D01*
X132400000Y-95250000D02*
X131700000Y-95250000D01*
X133325001Y-96175001D02*
X132400000Y-95250000D01*
X154087499Y-96175001D02*
X133325001Y-96175001D01*
X155012500Y-95250000D02*
X154087499Y-96175001D01*
X155012500Y-95250000D02*
X154812500Y-95250000D01*
X155512500Y-95250000D02*
X155012500Y-95250000D01*
X164532747Y-92170249D02*
X168537499Y-96175001D01*
X158366849Y-92170249D02*
X164532747Y-92170249D01*
X157604850Y-91408250D02*
X158366849Y-92170249D01*
X177699999Y-96175001D02*
X168537499Y-96175001D01*
X168537499Y-96175001D02*
X162745001Y-96175001D01*
X53612499Y-88913749D02*
X53612499Y-88918499D01*
X52487500Y-87788750D02*
X53612499Y-88913749D01*
X58800000Y-94106000D02*
X58800000Y-100012500D01*
X53612499Y-88918499D02*
X58800000Y-94106000D01*
X77850000Y-89280000D02*
X77850000Y-95250000D01*
X71596250Y-83026250D02*
X77850000Y-89280000D01*
X96900000Y-94400000D02*
X96900000Y-95250000D01*
X96900000Y-87689010D02*
X96900000Y-94400000D01*
X92237240Y-83026250D02*
X96900000Y-87689010D01*
X90646250Y-83026250D02*
X92237240Y-83026250D01*
X115950000Y-86232000D02*
X115950000Y-95250000D01*
X112744250Y-83026250D02*
X115950000Y-86232000D01*
X109696250Y-83026250D02*
X112744250Y-83026250D01*
X135000000Y-85622400D02*
X135000000Y-95250000D01*
X128746250Y-83026250D02*
X132403850Y-83026250D01*
X132403850Y-83026250D02*
X135000000Y-85622400D01*
X158112500Y-95250000D02*
X158812500Y-95250000D01*
X157173749Y-94311249D02*
X158112500Y-95250000D01*
X148603749Y-94311249D02*
X157173749Y-94311249D01*
X147478750Y-93186250D02*
X148603749Y-94311249D01*
X182625000Y-94400000D02*
X182625000Y-95250000D01*
X182625000Y-87689010D02*
X182625000Y-94400000D01*
X177962240Y-83026250D02*
X182625000Y-87689010D01*
X176371250Y-83026250D02*
X177962240Y-83026250D01*
X195421250Y-83026250D02*
X197426250Y-83026250D01*
X201675000Y-87275000D02*
X201675000Y-95250000D01*
X197426250Y-83026250D02*
X201675000Y-87275000D01*
X220725000Y-94400000D02*
X220725000Y-95250000D01*
X220725000Y-87689010D02*
X220725000Y-94400000D01*
X216062240Y-83026250D02*
X220725000Y-87689010D01*
X214471250Y-83026250D02*
X216062240Y-83026250D01*
X233521250Y-83026250D02*
X235926250Y-83026250D01*
X239775000Y-86875000D02*
X239775000Y-95250000D01*
X235926250Y-83026250D02*
X239775000Y-86875000D01*
X252571250Y-87788750D02*
X254688750Y-87788750D01*
X258825000Y-91925000D02*
X258825000Y-100012500D01*
X254688750Y-87788750D02*
X258825000Y-91925000D01*
X271621250Y-87788750D02*
X273688750Y-87788750D01*
X277875000Y-91975000D02*
X277875000Y-100012500D01*
X273688750Y-87788750D02*
X277875000Y-91975000D01*
X39750000Y-113092500D02*
X39750000Y-119062500D01*
X33496250Y-106838750D02*
X39750000Y-113092500D01*
X273875000Y-119062500D02*
X272881250Y-120056250D01*
X274575000Y-119062500D02*
X273875000Y-119062500D01*
X256225000Y-119062500D02*
X255525000Y-119062500D01*
X257218750Y-120056250D02*
X256225000Y-119062500D01*
X272881250Y-120056250D02*
X257218750Y-120056250D01*
X236475000Y-114450000D02*
X236475000Y-114300000D01*
X241087500Y-119062500D02*
X236475000Y-114450000D01*
X255525000Y-119062500D02*
X241087500Y-119062500D01*
X218125000Y-114300000D02*
X217425000Y-114300000D01*
X219050001Y-115225001D02*
X218125000Y-114300000D01*
X234849999Y-115225001D02*
X219050001Y-115225001D01*
X235775000Y-114300000D02*
X234849999Y-115225001D01*
X236475000Y-114300000D02*
X235775000Y-114300000D01*
X199075000Y-114300000D02*
X198375000Y-114300000D01*
X200000001Y-115225001D02*
X199075000Y-114300000D01*
X215799999Y-115225001D02*
X200000001Y-115225001D01*
X216725000Y-114300000D02*
X215799999Y-115225001D01*
X217425000Y-114300000D02*
X216725000Y-114300000D01*
X180025000Y-114300000D02*
X179325000Y-114300000D01*
X180950001Y-115225001D02*
X180025000Y-114300000D01*
X196749999Y-115225001D02*
X180950001Y-115225001D01*
X197675000Y-114300000D02*
X196749999Y-115225001D01*
X198375000Y-114300000D02*
X197675000Y-114300000D01*
X156212500Y-114300000D02*
X155512500Y-114300000D01*
X157137501Y-115225001D02*
X156212500Y-114300000D01*
X177699999Y-115225001D02*
X157137501Y-115225001D01*
X178625000Y-114300000D02*
X177699999Y-115225001D01*
X179325000Y-114300000D02*
X178625000Y-114300000D01*
X133131250Y-114300000D02*
X132431250Y-114300000D01*
X134056251Y-115225001D02*
X133131250Y-114300000D01*
X154812500Y-114300000D02*
X153887499Y-115225001D01*
X155512500Y-114300000D02*
X154812500Y-114300000D01*
X113350000Y-114300000D02*
X112650000Y-114300000D01*
X114275001Y-115225001D02*
X113350000Y-114300000D01*
X130806249Y-115225001D02*
X114275001Y-115225001D01*
X131731250Y-114300000D02*
X130806249Y-115225001D01*
X132431250Y-114300000D02*
X131731250Y-114300000D01*
X94300000Y-114300000D02*
X93600000Y-114300000D01*
X95225001Y-115225001D02*
X94300000Y-114300000D01*
X111024999Y-115225001D02*
X95225001Y-115225001D01*
X111950000Y-114300000D02*
X111024999Y-115225001D01*
X112650000Y-114300000D02*
X111950000Y-114300000D01*
X75250000Y-114300000D02*
X74550000Y-114300000D01*
X76175001Y-115225001D02*
X75250000Y-114300000D01*
X91974999Y-115225001D02*
X76175001Y-115225001D01*
X92900000Y-114300000D02*
X91974999Y-115225001D01*
X93600000Y-114300000D02*
X92900000Y-114300000D01*
X56200000Y-119062500D02*
X55500000Y-119062500D01*
X57125001Y-119987501D02*
X56200000Y-119062500D01*
X68162499Y-119987501D02*
X57125001Y-119987501D01*
X73850000Y-114300000D02*
X68162499Y-119987501D01*
X74550000Y-114300000D02*
X73850000Y-114300000D01*
X37150000Y-119062500D02*
X36450000Y-119062500D01*
X38075001Y-119987501D02*
X37150000Y-119062500D01*
X53874999Y-119987501D02*
X38075001Y-119987501D01*
X54800000Y-119062500D02*
X53874999Y-119987501D01*
X55500000Y-119062500D02*
X54800000Y-119062500D01*
X147956250Y-115056250D02*
X148125001Y-115225001D01*
X141956250Y-109056250D02*
X147956250Y-115056250D01*
X141956250Y-98056250D02*
X141956250Y-109056250D01*
X153887499Y-115225001D02*
X148125001Y-115225001D01*
X148125001Y-115225001D02*
X134056251Y-115225001D01*
X141956250Y-93490565D02*
X139521935Y-91056250D01*
X141956250Y-94056250D02*
X141956250Y-93490565D01*
X139521935Y-91056250D02*
X139521935Y-89331935D01*
X139985620Y-88868250D02*
X142384850Y-88868250D01*
X139521935Y-89331935D02*
X139985620Y-88868250D01*
X58800000Y-113092500D02*
X58800000Y-119062500D01*
X52546250Y-106838750D02*
X58800000Y-113092500D01*
X77850000Y-108330000D02*
X77850000Y-114300000D01*
X71596250Y-102076250D02*
X77850000Y-108330000D01*
X96900000Y-108330000D02*
X96900000Y-114300000D01*
X90646250Y-102076250D02*
X96900000Y-108330000D01*
X115950000Y-108330000D02*
X115950000Y-114300000D01*
X109696250Y-102076250D02*
X115950000Y-108330000D01*
X135731250Y-109061250D02*
X135731250Y-114300000D01*
X128746250Y-102076250D02*
X135731250Y-109061250D01*
X158812500Y-113450000D02*
X158812500Y-114300000D01*
X158812500Y-106739010D02*
X158812500Y-113450000D01*
X154149740Y-102076250D02*
X158812500Y-106739010D01*
X152558750Y-102076250D02*
X154149740Y-102076250D01*
X176371250Y-102076250D02*
X178336250Y-102076250D01*
X182625000Y-106365000D02*
X182625000Y-114300000D01*
X178336250Y-102076250D02*
X182625000Y-106365000D01*
X201675000Y-106739010D02*
X201675000Y-114300000D01*
X195421250Y-102076250D02*
X197012240Y-102076250D01*
X197012240Y-102076250D02*
X201675000Y-106739010D01*
X220725000Y-106739010D02*
X220725000Y-114300000D01*
X214471250Y-102076250D02*
X216062240Y-102076250D01*
X216062240Y-102076250D02*
X220725000Y-106739010D01*
X239775000Y-105915000D02*
X239775000Y-114300000D01*
X233521250Y-102076250D02*
X235936250Y-102076250D01*
X235936250Y-102076250D02*
X239775000Y-105915000D01*
X252571250Y-106838750D02*
X255738750Y-106838750D01*
X258825000Y-109925000D02*
X258825000Y-119062500D01*
X255738750Y-106838750D02*
X258825000Y-109925000D01*
X271621250Y-106838750D02*
X273738750Y-106838750D01*
X277875000Y-110975000D02*
X277875000Y-119062500D01*
X273738750Y-106838750D02*
X277875000Y-110975000D01*
X106425000Y-132500000D02*
X106425000Y-133350000D01*
X106425000Y-125789010D02*
X106425000Y-132500000D01*
X101762240Y-121126250D02*
X106425000Y-125789010D01*
X100171250Y-121126250D02*
X101762240Y-121126250D01*
X189550000Y-133350000D02*
X188850000Y-133350000D01*
X190475001Y-134275001D02*
X189550000Y-133350000D01*
X206274999Y-134275001D02*
X190475001Y-134275001D01*
X207200000Y-133350000D02*
X206274999Y-134275001D01*
X207900000Y-133350000D02*
X207200000Y-133350000D01*
X168118750Y-133350000D02*
X167418750Y-133350000D01*
X169043751Y-134275001D02*
X168118750Y-133350000D01*
X187224999Y-134275001D02*
X169043751Y-134275001D01*
X188150000Y-133350000D02*
X187224999Y-134275001D01*
X188850000Y-133350000D02*
X188150000Y-133350000D01*
X146687500Y-133350000D02*
X145987500Y-133350000D01*
X147612501Y-134275001D02*
X146687500Y-133350000D01*
X166718750Y-133350000D02*
X165793749Y-134275001D01*
X167418750Y-133350000D02*
X166718750Y-133350000D01*
X122875000Y-133350000D02*
X122175000Y-133350000D01*
X123800001Y-134275001D02*
X122875000Y-133350000D01*
X144362499Y-134275001D02*
X123800001Y-134275001D01*
X145287500Y-133350000D02*
X144362499Y-134275001D01*
X145987500Y-133350000D02*
X145287500Y-133350000D01*
X103825000Y-133350000D02*
X103125000Y-133350000D01*
X104750001Y-134275001D02*
X103825000Y-133350000D01*
X120549999Y-134275001D02*
X104750001Y-134275001D01*
X121475000Y-133350000D02*
X120549999Y-134275001D01*
X122175000Y-133350000D02*
X121475000Y-133350000D01*
X155175001Y-134275001D02*
X147612501Y-134275001D01*
X140956250Y-98056250D02*
X140956250Y-114056250D01*
X140956250Y-116056250D02*
X140956250Y-118056250D01*
X140956250Y-118056250D02*
X157175001Y-134275001D01*
X165793749Y-134275001D02*
X157175001Y-134275001D01*
X157175001Y-134275001D02*
X155175001Y-134275001D01*
X141307220Y-86328250D02*
X142384850Y-86328250D01*
X139071926Y-88563544D02*
X141307220Y-86328250D01*
X139071926Y-92171926D02*
X139071926Y-88563544D01*
X140956250Y-94056250D02*
X139071926Y-92171926D01*
X125475000Y-127380000D02*
X125475000Y-133350000D01*
X119221250Y-121126250D02*
X125475000Y-127380000D01*
X149287500Y-129761250D02*
X149287500Y-133350000D01*
X140652500Y-121126250D02*
X149287500Y-129761250D01*
X170718750Y-124693750D02*
X170718750Y-133350000D01*
X164465000Y-121126250D02*
X167151250Y-121126250D01*
X167151250Y-121126250D02*
X170718750Y-124693750D01*
X192150000Y-125789010D02*
X192150000Y-133350000D01*
X185896250Y-121126250D02*
X187487240Y-121126250D01*
X187487240Y-121126250D02*
X192150000Y-125789010D01*
X204946250Y-121126250D02*
X208076250Y-121126250D01*
X211200000Y-124250000D02*
X211200000Y-133350000D01*
X208076250Y-121126250D02*
X211200000Y-124250000D01*
X27146250Y-93374752D02*
X27146250Y-109378750D01*
X27146250Y-87268050D02*
X27146250Y-93374752D01*
X27146250Y-71278750D02*
X27146250Y-87268050D01*
X31769050Y-82645250D02*
X27146250Y-87268050D01*
X140776250Y-67616850D02*
X140776250Y-73856250D01*
X38449250Y-82645250D02*
X31769050Y-82645250D01*
X142384850Y-66008250D02*
X140776250Y-67616850D01*
X38756989Y-82337511D02*
X38449250Y-82645250D01*
X140776250Y-73856250D02*
X137057489Y-77575011D01*
X137057489Y-77575011D02*
X67244499Y-77575011D01*
X67244499Y-77575011D02*
X62482000Y-82337510D01*
X62482000Y-82337510D02*
X38756989Y-82337511D01*
X46196250Y-71278750D02*
X46196250Y-80206850D01*
X46196250Y-90270000D02*
X46137500Y-90328750D01*
X46196250Y-85718650D02*
X46196250Y-87750650D01*
X46145450Y-109327950D02*
X46196250Y-109378750D01*
X46196250Y-87750650D02*
X46196250Y-90328750D01*
X46196250Y-90328750D02*
X46196250Y-99060000D01*
X46196250Y-103822500D02*
X46196250Y-109378750D01*
X137988079Y-78025021D02*
X142384850Y-73628250D01*
X67430899Y-78025021D02*
X137988079Y-78025021D01*
X62668401Y-82787519D02*
X67430899Y-78025021D01*
X46196250Y-87750650D02*
X51159380Y-82787520D01*
X51159380Y-82787520D02*
X62668401Y-82787519D01*
X65246250Y-66516250D02*
X65246250Y-76346050D01*
X65246250Y-83512520D02*
X65246250Y-85566250D01*
X65246250Y-81680050D02*
X65246250Y-83512520D01*
X65246250Y-85566250D02*
X65246250Y-98766250D01*
X65246250Y-101766250D02*
X65246250Y-104616250D01*
X140078069Y-78475031D02*
X142384850Y-76168250D01*
X67617299Y-78475031D02*
X140078069Y-78475031D01*
X65246250Y-83512520D02*
X65246250Y-80846080D01*
X65246250Y-80846080D02*
X67617299Y-78475031D01*
X84296250Y-66516250D02*
X84296250Y-75716250D01*
X84296250Y-85566250D02*
X84296250Y-94716250D01*
X84296250Y-99716250D02*
X84296250Y-104616250D01*
X84296250Y-82716250D02*
X84296250Y-85566250D01*
X84296250Y-80716250D02*
X84296250Y-82716250D01*
X84296250Y-104616250D02*
X84296250Y-110396250D01*
X84296250Y-110396250D02*
X86956250Y-113056250D01*
X90956250Y-120801250D02*
X93821250Y-123666250D01*
X84296250Y-82716250D02*
X88087459Y-78925041D01*
X141307220Y-78708250D02*
X142384850Y-78708250D01*
X141090429Y-78925041D02*
X141307220Y-78708250D01*
X136385041Y-78925041D02*
X141090429Y-78925041D01*
X136385041Y-78925041D02*
X136637459Y-78925041D01*
X88087459Y-78925041D02*
X136385041Y-78925041D01*
X103346250Y-66516250D02*
X103346250Y-74666250D01*
X103346250Y-85566250D02*
X103346250Y-94297500D01*
X103346250Y-99060000D02*
X103346250Y-104616250D01*
X103346250Y-81666250D02*
X103346250Y-82666250D01*
X103346250Y-83666250D02*
X103346250Y-85566250D01*
X103346250Y-82666250D02*
X103346250Y-83446250D01*
X103346250Y-83446250D02*
X103346250Y-83666250D01*
X103346250Y-104616250D02*
X103346250Y-110446250D01*
X103346250Y-110446250D02*
X105956250Y-113056250D01*
X112566250Y-123666250D02*
X112871250Y-123666250D01*
X109956250Y-121056250D02*
X112566250Y-123666250D01*
X140511651Y-79375051D02*
X142384850Y-81248250D01*
X103346250Y-83446250D02*
X107417449Y-79375051D01*
X107417449Y-79375051D02*
X140511651Y-79375051D01*
X122396250Y-66516250D02*
X122396250Y-72866250D01*
X122396250Y-85566250D02*
X122396250Y-94297500D01*
X122396250Y-98583750D02*
X122396250Y-104616250D01*
X122396250Y-83616250D02*
X122396250Y-85566250D01*
X122396250Y-82391250D02*
X122396250Y-83616250D01*
X122396250Y-104616250D02*
X122396250Y-109496250D01*
X122396250Y-109496250D02*
X124956250Y-112056250D01*
X131566250Y-123666250D02*
X134302500Y-123666250D01*
X128956250Y-121056250D02*
X131566250Y-123666250D01*
X122396250Y-83616250D02*
X126187439Y-79825061D01*
X138421661Y-79825061D02*
X142384850Y-83788250D01*
X126187439Y-79825061D02*
X138421661Y-79825061D01*
X170021250Y-68107240D02*
X170016250Y-68112240D01*
X170021250Y-66516250D02*
X170021250Y-68107240D01*
X170016250Y-68112240D02*
X170016250Y-74556250D01*
X170016250Y-85561250D02*
X170021250Y-85566250D01*
X170016250Y-84216250D02*
X170016250Y-85561250D01*
X170016250Y-83066250D02*
X170016250Y-84216250D01*
X170026250Y-104611250D02*
X170021250Y-104616250D01*
X170026250Y-100136250D02*
X170026250Y-104611250D01*
X170021250Y-104616250D02*
X170021250Y-111121250D01*
X170021250Y-111121250D02*
X168216250Y-112926250D01*
X158206250Y-123666250D02*
X158115000Y-123666250D01*
X162906250Y-118966250D02*
X158206250Y-123666250D01*
X158682480Y-88868250D02*
X158684480Y-88866250D01*
X157604850Y-88868250D02*
X158682480Y-88868250D01*
X170021250Y-91811250D02*
X170021250Y-92471250D01*
X158682480Y-88868250D02*
X164538250Y-88868250D01*
X167776251Y-89306251D02*
X170021250Y-91551250D01*
X164976251Y-89306251D02*
X167776251Y-89306251D01*
X164538250Y-88868250D02*
X164976251Y-89306251D01*
X170021250Y-85566250D02*
X170021250Y-91551250D01*
X170021250Y-91551250D02*
X170021250Y-91811250D01*
X189071250Y-66516250D02*
X189071250Y-75041250D01*
X189081250Y-85556250D02*
X189071250Y-85566250D01*
X189071250Y-85566250D02*
X189071250Y-92821250D01*
X189071250Y-99941250D02*
X189071250Y-104616250D01*
X189071250Y-104616250D02*
X189071250Y-110941250D01*
X189071250Y-110941250D02*
X186956250Y-113056250D01*
X181956250Y-121256250D02*
X179546250Y-123666250D01*
X181956250Y-119056250D02*
X181956250Y-121256250D01*
X189081250Y-83081250D02*
X189081250Y-85556250D01*
X189081250Y-81131250D02*
X189081250Y-83081250D01*
X165606300Y-86328250D02*
X157604850Y-86328250D01*
X172559499Y-79375051D02*
X165606300Y-86328250D01*
X186255051Y-79375051D02*
X172559499Y-79375051D01*
X189081250Y-83081250D02*
X189081250Y-82201250D01*
X189081250Y-82201250D02*
X186255051Y-79375051D01*
X208121250Y-66516250D02*
X208121250Y-74866250D01*
X208121250Y-80816250D02*
X208121250Y-81381935D01*
X208121250Y-81381935D02*
X208121250Y-82116250D01*
X208121250Y-85566250D02*
X208121250Y-93266250D01*
X208131250Y-104606250D02*
X208121250Y-104616250D01*
X208131250Y-99956250D02*
X208131250Y-104606250D01*
X208121250Y-104616250D02*
X208121250Y-110891250D01*
X208121250Y-110891250D02*
X205956250Y-113056250D01*
X200956250Y-121306250D02*
X198596250Y-123666250D01*
X200956250Y-119056250D02*
X200956250Y-121306250D01*
X179495041Y-78925041D02*
X179281250Y-78925041D01*
X204305041Y-78925041D02*
X208121250Y-82741250D01*
X179495041Y-78925041D02*
X204305041Y-78925041D01*
X208121250Y-82116250D02*
X208121250Y-82741250D01*
X208121250Y-82741250D02*
X208121250Y-85566250D01*
X179495041Y-78925041D02*
X165317459Y-78925041D01*
X158682480Y-83788250D02*
X158684480Y-83786250D01*
X157604850Y-83788250D02*
X158682480Y-83788250D01*
X160456250Y-83786250D02*
X165317459Y-78925041D01*
X158684480Y-83786250D02*
X160456250Y-83786250D01*
X227171250Y-75066250D02*
X227171250Y-74766250D01*
X227171250Y-66516250D02*
X227171250Y-74766250D01*
X227171250Y-81221250D02*
X227171250Y-81786935D01*
X227171250Y-85566250D02*
X227171250Y-93421250D01*
X227171250Y-100561935D02*
X227171250Y-104616250D01*
X227171250Y-99996250D02*
X227171250Y-100561935D01*
X227171250Y-82546250D02*
X227171250Y-85566250D01*
X227171250Y-81786935D02*
X227171250Y-82196250D01*
X227171250Y-82196250D02*
X227171250Y-82546250D01*
X161834250Y-81248250D02*
X157604850Y-81248250D01*
X164607469Y-78475031D02*
X161834250Y-81248250D01*
X227171250Y-82196250D02*
X223450031Y-78475031D01*
X223450031Y-78475031D02*
X164607469Y-78475031D01*
X157606250Y-78806250D02*
X157656250Y-78856250D01*
X246221250Y-71278750D02*
X246221250Y-78791250D01*
X246221250Y-90328750D02*
X246221250Y-97791250D01*
X246221250Y-104791250D02*
X246221250Y-109378750D01*
X240762519Y-81862519D02*
X240714698Y-81862518D01*
X246221250Y-87321250D02*
X240762519Y-81862519D01*
X246221250Y-87321250D02*
X246221250Y-90328750D01*
X246221250Y-85791250D02*
X246221250Y-87321250D01*
X240714698Y-81862518D02*
X237932340Y-79080160D01*
X237932340Y-79080160D02*
X237564145Y-78711965D01*
X235225554Y-78711964D02*
X234538611Y-78025021D01*
X237564145Y-78711965D02*
X235225554Y-78711964D01*
X234538611Y-78025021D02*
X232656250Y-78025021D01*
X179377479Y-78025021D02*
X179206250Y-78025021D01*
X232656250Y-78025021D02*
X179377479Y-78025021D01*
X163134250Y-78708250D02*
X157604850Y-78708250D01*
X179377479Y-78025021D02*
X163817479Y-78025021D01*
X163817479Y-78025021D02*
X163134250Y-78708250D01*
X265271250Y-71278750D02*
X265271250Y-79741250D01*
X265271250Y-90328750D02*
X265271250Y-98741250D01*
X265271250Y-104741250D02*
X265271250Y-109378750D01*
X265271250Y-87741250D02*
X265271250Y-90328750D01*
X265271250Y-85741250D02*
X265271250Y-87366250D01*
X265271250Y-87366250D02*
X265271250Y-87741250D01*
X235411955Y-78261955D02*
X234725011Y-77575011D01*
X263646250Y-85741250D02*
X256641250Y-85741250D01*
X265271250Y-87366250D02*
X263646250Y-85741250D01*
X256641250Y-85741250D02*
X252312510Y-81412510D01*
X252312510Y-81412510D02*
X240901099Y-81412509D01*
X240901099Y-81412509D02*
X237750545Y-78261955D01*
X237750545Y-78261955D02*
X235411955Y-78261955D01*
X172057489Y-77575011D02*
X163735011Y-77575011D01*
X172057489Y-77575011D02*
X171813899Y-77575011D01*
X234725011Y-77575011D02*
X172057489Y-77575011D01*
X162328250Y-76168250D02*
X157604850Y-76168250D01*
X163735011Y-77575011D02*
X162328250Y-76168250D01*
X153828750Y-92237240D02*
X152856250Y-93209740D01*
X153828750Y-90646250D02*
X153828750Y-92237240D01*
X149856250Y-99786250D02*
X147186250Y-99786250D01*
X146208750Y-100763750D02*
X146208750Y-104616250D01*
X147186250Y-99786250D02*
X146208750Y-100763750D01*
X153066750Y-91408250D02*
X153828750Y-90646250D01*
X142384850Y-91408250D02*
X153066750Y-91408250D01*
X158366849Y-67786251D02*
X157604850Y-68548250D01*
X159086249Y-67786251D02*
X158366849Y-67786251D01*
X166346250Y-60526250D02*
X159086249Y-67786251D01*
X166696250Y-60526250D02*
X166346250Y-60526250D01*
M02*
