M48
; DRILL file {KiCad (5.1.2)-1} date 2020/02/22 0:02:04
; FORMAT={-:-/ absolute / inch / decimal}
; #@! TF.CreationDate,2020-02-22T00:02:04+09:00
; #@! TF.GenerationSoftware,Kicad,Pcbnew,(5.1.2)-1
; #@! TF.FileFunction,Plated,1,2,PTH
FMAT,2
INCH
T1C0.0157
T2C0.0320
T3C0.0579
%
G90
G05
T1
X1.8187Y-3.1578
X1.8187Y-3.3748
X1.8187Y-3.9
X1.8187Y-4.0875
X2.5688Y-3.0057
X2.5688Y-3.2157
X2.5688Y-3.8884
X2.5688Y-4.0065
X3.3188Y-2.981
X3.3188Y-3.1778
X3.3188Y-3.729
X3.3188Y-3.9258
X3.4235Y-4.451
X3.581Y-4.756
X4.0687Y-2.9396
X4.0687Y-3.2152
X4.0687Y-3.7125
X4.0687Y-3.9
X4.1715Y-4.451
X4.329Y-4.766
X4.8187Y-2.8687
X4.8187Y-3.2437
X4.8187Y-3.7125
X4.8187Y-3.8813
X4.9195Y-4.4117
X5.077Y-4.766
X5.4739Y-2.9069
X5.5495Y-3.703
X5.5495Y-3.8605
X5.5495Y-4.4904
X5.5495Y-4.5691
X5.5888Y-3.703
X5.5888Y-3.8605
X5.8999Y-3.9286
X6.018Y-3.6697
X6.0302Y-2.9014
X6.4136Y-4.6837
X6.6227Y-4.4459
X6.6936Y-2.9353
X6.6936Y-3.2703
X6.6937Y-3.6406
X6.6939Y-3.9424
X7.1636Y-4.6873
X7.3605Y-4.451
X7.4437Y-2.9544
X7.4437Y-3.6544
X7.4437Y-3.9347
X7.4441Y-3.1941
X7.9117Y-4.6873
X8.1085Y-4.451
X8.1937Y-2.9475
X8.1937Y-3.1817
X8.1937Y-3.6719
X8.1941Y-3.9353
X8.9437Y-2.9436
X8.9437Y-3.1977
X8.9437Y-3.678
X8.9437Y-3.9369
X9.6937Y-3.102
X9.6937Y-3.3776
X9.6937Y-3.85
X9.6937Y-4.1256
X10.4437Y-3.1394
X10.4437Y-3.3756
X10.4437Y-3.8875
X10.4437Y-4.1237
T2
X5.6057Y-2.4987
X5.6057Y-2.5987
X5.6057Y-2.6987
X5.6057Y-2.7988
X5.6057Y-2.8987
X5.6057Y-2.9987
X5.6057Y-3.0987
X5.6057Y-3.1987
X5.6057Y-3.2988
X5.6057Y-3.3987
X5.6057Y-3.4987
X5.6057Y-3.5987
X6.2049Y-2.4987
X6.2049Y-2.5987
X6.2049Y-2.6987
X6.2049Y-2.7988
X6.2049Y-2.8987
X6.2049Y-2.9987
X6.2049Y-3.0987
X6.2049Y-3.1987
X6.2049Y-3.2988
X6.2049Y-3.3987
X6.2049Y-3.4987
X6.2049Y-3.5987
T3
X5.7562Y-4.1187
X6.0062Y-4.0187
X9.6937Y-3.5562
X9.9437Y-3.4562
X2.5688Y-4.1187
X2.8188Y-4.0187
X4.0687Y-3.3687
X4.3187Y-3.2687
X7.0687Y-4.8687
X7.3187Y-4.7687
X8.1937Y-3.3687
X8.4437Y-3.2687
X10.4437Y-4.3062
X10.6937Y-4.2062
X1.8187Y-2.8062
X2.0688Y-2.7062
X8.9437Y-3.3687
X9.1937Y-3.2687
X8.1937Y-4.1187
X8.4437Y-4.0187
X9.6937Y-2.8062
X9.9437Y-2.7062
X1.8187Y-3.5562
X2.0688Y-3.4562
X5.2875Y-4.8687
X5.5375Y-4.7687
X4.0687Y-2.6187
X4.3187Y-2.5187
X8.9437Y-4.1187
X9.1937Y-4.0187
X7.4437Y-2.6187
X7.6937Y-2.5187
X4.8187Y-4.1187
X5.0687Y-4.0187
X1.0687Y-3.5562
X1.3187Y-3.4562
X1.0687Y-4.3062
X1.3187Y-4.2062
X6.6937Y-2.6187
X6.9437Y-2.5187
X3.3188Y-3.3687
X3.5688Y-3.2687
X6.225Y-4.8687
X6.475Y-4.7687
X10.4437Y-3.5562
X10.6937Y-3.4562
X6.6937Y-4.1187
X6.9437Y-4.0187
X1.0687Y-2.8062
X1.3187Y-2.7062
X7.4437Y-3.3687
X7.6937Y-3.2687
X2.5688Y-2.6187
X2.8188Y-2.5187
X8.9437Y-2.6187
X9.1937Y-2.5187
X9.6937Y-4.3062
X9.9437Y-4.2062
X4.0687Y-4.1187
X4.3187Y-4.0187
X4.8187Y-2.6187
X5.0687Y-2.5187
X3.3188Y-4.1187
X3.5688Y-4.0187
X4.8187Y-3.3687
X5.0687Y-3.2687
X1.8187Y-4.3062
X2.0688Y-4.2062
X5.8062Y-3.6687
X6.0562Y-3.5688
X10.4437Y-2.8062
X10.6937Y-2.7062
X3.6938Y-4.8687
X3.9438Y-4.7687
X6.6937Y-3.3687
X6.9437Y-3.2687
X7.4437Y-4.1187
X7.6937Y-4.0187
X2.5688Y-3.3687
X2.8188Y-3.2687
X7.8187Y-4.8687
X8.0687Y-4.7687
X8.1937Y-2.6187
X8.4437Y-2.5187
X4.4437Y-4.8687
X4.6937Y-4.7687
X3.3188Y-2.6187
X3.5688Y-2.5187
T0
M30
