M48
; DRILL file {KiCad (5.1.2)-1} date 2020/02/22 0:02:04
; FORMAT={-:-/ absolute / inch / decimal}
; #@! TF.CreationDate,2020-02-22T00:02:04+09:00
; #@! TF.GenerationSoftware,Kicad,Pcbnew,(5.1.2)-1
; #@! TF.FileFunction,NonPlated,1,2,NPTH
FMAT,2
INCH
T1C0.0689
T2C0.1570
%
G90
G05
T1
X5.7062Y-4.2188
X6.1063Y-4.2188
X9.6437Y-3.6562
X10.0437Y-3.6562
X2.5187Y-4.2188
X2.9187Y-4.2188
X4.0187Y-3.4688
X4.4188Y-3.4688
X7.0187Y-4.9688
X7.4188Y-4.9688
X8.1437Y-3.4688
X8.5437Y-3.4688
X10.3937Y-4.4062
X10.7937Y-4.4062
X1.7688Y-2.9062
X2.1687Y-2.9062
X8.8937Y-3.4688
X9.2937Y-3.4688
X8.1437Y-4.2188
X8.5437Y-4.2188
X9.6437Y-2.9062
X10.0437Y-2.9062
X1.7688Y-3.6562
X2.1687Y-3.6562
X5.2375Y-4.9688
X5.6375Y-4.9688
X4.0187Y-2.7188
X4.4188Y-2.7188
X8.8937Y-4.2188
X9.2937Y-4.2188
X7.3937Y-2.7188
X7.7938Y-2.7188
X4.7687Y-4.2188
X5.1688Y-4.2188
X1.0188Y-3.6562
X1.4187Y-3.6562
X1.0188Y-4.4062
X1.4187Y-4.4062
X6.6437Y-2.7188
X7.0438Y-2.7188
X3.2687Y-3.4688
X3.6687Y-3.4688
X6.175Y-4.9688
X6.575Y-4.9688
X10.3937Y-3.6562
X10.7937Y-3.6562
X6.6437Y-4.2188
X7.0438Y-4.2188
X1.0188Y-2.9062
X1.4187Y-2.9062
X7.3937Y-3.4688
X7.7938Y-3.4688
X2.5187Y-2.7188
X2.9187Y-2.7188
X8.8937Y-2.7188
X9.2937Y-2.7188
X9.6437Y-4.4062
X10.0437Y-4.4062
X4.0187Y-4.2188
X4.4188Y-4.2188
X4.7687Y-2.7188
X5.1688Y-2.7188
X3.2687Y-4.2188
X3.6687Y-4.2188
X4.7687Y-3.4688
X5.1688Y-3.4688
X1.7688Y-4.4062
X2.1687Y-4.4062
X5.7062Y-3.4688
X6.1063Y-3.4688
X10.3937Y-2.9062
X10.7937Y-2.9062
X3.6437Y-4.9688
X4.0438Y-4.9688
X6.6437Y-3.4688
X7.0438Y-3.4688
X7.3937Y-4.2188
X7.7938Y-4.2188
X2.5187Y-3.4688
X2.9187Y-3.4688
X7.7687Y-4.9688
X8.1687Y-4.9688
X8.1437Y-2.7188
X8.5437Y-2.7188
X4.3937Y-4.9688
X4.7938Y-4.9688
X3.2687Y-2.7188
X3.6687Y-2.7188
T2
X4.5938Y-4.9688
X3.4688Y-2.7188
X5.9062Y-4.2188
X9.8438Y-3.6562
X2.7188Y-4.2188
X4.2188Y-3.4688
X7.2188Y-4.9688
X8.3438Y-3.4688
X10.5938Y-4.4062
X1.9688Y-2.9062
X9.0938Y-3.4688
X8.3438Y-4.2188
X9.8438Y-2.9062
X1.9688Y-3.6562
X5.4375Y-4.9688
X4.2188Y-2.7188
X9.0938Y-4.2188
X7.5938Y-2.7188
X4.9688Y-4.2188
X1.2188Y-3.6562
X1.2188Y-4.4062
X6.8438Y-2.7188
X3.4688Y-3.4688
X6.375Y-4.9688
X10.5938Y-3.6562
X6.8438Y-4.2188
X1.2188Y-2.9062
X7.5938Y-3.4688
X2.7188Y-2.7188
X9.0938Y-2.7188
X9.8438Y-4.4062
X4.2188Y-4.2188
X4.9688Y-2.7188
X3.4688Y-4.2188
X4.9688Y-3.4688
X1.9688Y-4.4062
X5.9062Y-3.4688
X10.5938Y-2.9062
X3.8438Y-4.9688
X6.8438Y-3.4688
X7.5938Y-4.2188
X2.7188Y-3.4688
X7.9688Y-4.9688
X8.3438Y-2.7188
T0
M30
