G04 #@! TF.GenerationSoftware,KiCad,Pcbnew,(5.1.2)-1*
G04 #@! TF.CreationDate,2020-02-22T00:02:01+09:00*
G04 #@! TF.ProjectId,rkbd_44,726b6264-5f34-4342-9e6b-696361645f70,rev?*
G04 #@! TF.SameCoordinates,Original*
G04 #@! TF.FileFunction,Soldermask,Top*
G04 #@! TF.FilePolarity,Negative*
%FSLAX46Y46*%
G04 Gerber Fmt 4.6, Leading zero omitted, Abs format (unit mm)*
G04 Created by KiCad (PCBNEW (5.1.2)-1) date 2020-02-22 00:02:01*
%MOMM*%
%LPD*%
G04 APERTURE LIST*
%ADD10C,0.100000*%
G04 APERTURE END LIST*
D10*
G36*
X203002724Y-124239934D02*
G01*
X203220724Y-124330233D01*
X203374873Y-124394083D01*
X203709798Y-124617873D01*
X203994627Y-124902702D01*
X204218417Y-125237627D01*
X204250812Y-125315836D01*
X204372566Y-125609776D01*
X204451150Y-126004844D01*
X204451150Y-126407656D01*
X204372566Y-126802724D01*
X204321701Y-126925522D01*
X204218417Y-127174873D01*
X203994627Y-127509798D01*
X203709798Y-127794627D01*
X203374873Y-128018417D01*
X203220724Y-128082267D01*
X203002724Y-128172566D01*
X202607656Y-128251150D01*
X202204844Y-128251150D01*
X201809776Y-128172566D01*
X201591776Y-128082267D01*
X201437627Y-128018417D01*
X201102702Y-127794627D01*
X200817873Y-127509798D01*
X200594083Y-127174873D01*
X200490799Y-126925522D01*
X200439934Y-126802724D01*
X200361350Y-126407656D01*
X200361350Y-126004844D01*
X200439934Y-125609776D01*
X200561688Y-125315836D01*
X200594083Y-125237627D01*
X200817873Y-124902702D01*
X201102702Y-124617873D01*
X201437627Y-124394083D01*
X201591776Y-124330233D01*
X201809776Y-124239934D01*
X202204844Y-124161350D01*
X202607656Y-124161350D01*
X203002724Y-124239934D01*
X203002724Y-124239934D01*
G37*
G36*
X162521474Y-124239934D02*
G01*
X162739474Y-124330233D01*
X162893623Y-124394083D01*
X163228548Y-124617873D01*
X163513377Y-124902702D01*
X163737167Y-125237627D01*
X163769562Y-125315836D01*
X163891316Y-125609776D01*
X163969900Y-126004844D01*
X163969900Y-126407656D01*
X163891316Y-126802724D01*
X163840451Y-126925522D01*
X163737167Y-127174873D01*
X163513377Y-127509798D01*
X163228548Y-127794627D01*
X162893623Y-128018417D01*
X162739474Y-128082267D01*
X162521474Y-128172566D01*
X162126406Y-128251150D01*
X161723594Y-128251150D01*
X161328526Y-128172566D01*
X161110526Y-128082267D01*
X160956377Y-128018417D01*
X160621452Y-127794627D01*
X160336623Y-127509798D01*
X160112833Y-127174873D01*
X160009549Y-126925522D01*
X159958684Y-126802724D01*
X159880100Y-126407656D01*
X159880100Y-126004844D01*
X159958684Y-125609776D01*
X160080438Y-125315836D01*
X160112833Y-125237627D01*
X160336623Y-124902702D01*
X160621452Y-124617873D01*
X160956377Y-124394083D01*
X161110526Y-124330233D01*
X161328526Y-124239934D01*
X161723594Y-124161350D01*
X162126406Y-124161350D01*
X162521474Y-124239934D01*
X162521474Y-124239934D01*
G37*
G36*
X138708974Y-124239934D02*
G01*
X138926974Y-124330233D01*
X139081123Y-124394083D01*
X139416048Y-124617873D01*
X139700877Y-124902702D01*
X139924667Y-125237627D01*
X139957062Y-125315836D01*
X140078816Y-125609776D01*
X140157400Y-126004844D01*
X140157400Y-126407656D01*
X140078816Y-126802724D01*
X140027951Y-126925522D01*
X139924667Y-127174873D01*
X139700877Y-127509798D01*
X139416048Y-127794627D01*
X139081123Y-128018417D01*
X138926974Y-128082267D01*
X138708974Y-128172566D01*
X138313906Y-128251150D01*
X137911094Y-128251150D01*
X137516026Y-128172566D01*
X137298026Y-128082267D01*
X137143877Y-128018417D01*
X136808952Y-127794627D01*
X136524123Y-127509798D01*
X136300333Y-127174873D01*
X136197049Y-126925522D01*
X136146184Y-126802724D01*
X136067600Y-126407656D01*
X136067600Y-126004844D01*
X136146184Y-125609776D01*
X136267938Y-125315836D01*
X136300333Y-125237627D01*
X136524123Y-124902702D01*
X136808952Y-124617873D01*
X137143877Y-124394083D01*
X137298026Y-124330233D01*
X137516026Y-124239934D01*
X137911094Y-124161350D01*
X138313906Y-124161350D01*
X138708974Y-124239934D01*
X138708974Y-124239934D01*
G37*
G36*
X117277724Y-124239934D02*
G01*
X117495724Y-124330233D01*
X117649873Y-124394083D01*
X117984798Y-124617873D01*
X118269627Y-124902702D01*
X118493417Y-125237627D01*
X118525812Y-125315836D01*
X118647566Y-125609776D01*
X118726150Y-126004844D01*
X118726150Y-126407656D01*
X118647566Y-126802724D01*
X118596701Y-126925522D01*
X118493417Y-127174873D01*
X118269627Y-127509798D01*
X117984798Y-127794627D01*
X117649873Y-128018417D01*
X117495724Y-128082267D01*
X117277724Y-128172566D01*
X116882656Y-128251150D01*
X116479844Y-128251150D01*
X116084776Y-128172566D01*
X115866776Y-128082267D01*
X115712627Y-128018417D01*
X115377702Y-127794627D01*
X115092873Y-127509798D01*
X114869083Y-127174873D01*
X114765799Y-126925522D01*
X114714934Y-126802724D01*
X114636350Y-126407656D01*
X114636350Y-126004844D01*
X114714934Y-125609776D01*
X114836688Y-125315836D01*
X114869083Y-125237627D01*
X115092873Y-124902702D01*
X115377702Y-124617873D01*
X115712627Y-124394083D01*
X115866776Y-124330233D01*
X116084776Y-124239934D01*
X116479844Y-124161350D01*
X116882656Y-124161350D01*
X117277724Y-124239934D01*
X117277724Y-124239934D01*
G37*
G36*
X98227724Y-124239934D02*
G01*
X98445724Y-124330233D01*
X98599873Y-124394083D01*
X98934798Y-124617873D01*
X99219627Y-124902702D01*
X99443417Y-125237627D01*
X99475812Y-125315836D01*
X99597566Y-125609776D01*
X99676150Y-126004844D01*
X99676150Y-126407656D01*
X99597566Y-126802724D01*
X99546701Y-126925522D01*
X99443417Y-127174873D01*
X99219627Y-127509798D01*
X98934798Y-127794627D01*
X98599873Y-128018417D01*
X98445724Y-128082267D01*
X98227724Y-128172566D01*
X97832656Y-128251150D01*
X97429844Y-128251150D01*
X97034776Y-128172566D01*
X96816776Y-128082267D01*
X96662627Y-128018417D01*
X96327702Y-127794627D01*
X96042873Y-127509798D01*
X95819083Y-127174873D01*
X95715799Y-126925522D01*
X95664934Y-126802724D01*
X95586350Y-126407656D01*
X95586350Y-126004844D01*
X95664934Y-125609776D01*
X95786688Y-125315836D01*
X95819083Y-125237627D01*
X96042873Y-124902702D01*
X96327702Y-124617873D01*
X96662627Y-124394083D01*
X96816776Y-124330233D01*
X97034776Y-124239934D01*
X97429844Y-124161350D01*
X97832656Y-124161350D01*
X98227724Y-124239934D01*
X98227724Y-124239934D01*
G37*
G36*
X183952724Y-124239934D02*
G01*
X184170724Y-124330233D01*
X184324873Y-124394083D01*
X184659798Y-124617873D01*
X184944627Y-124902702D01*
X185168417Y-125237627D01*
X185200812Y-125315836D01*
X185322566Y-125609776D01*
X185401150Y-126004844D01*
X185401150Y-126407656D01*
X185322566Y-126802724D01*
X185271701Y-126925522D01*
X185168417Y-127174873D01*
X184944627Y-127509798D01*
X184659798Y-127794627D01*
X184324873Y-128018417D01*
X184170724Y-128082267D01*
X183952724Y-128172566D01*
X183557656Y-128251150D01*
X183154844Y-128251150D01*
X182759776Y-128172566D01*
X182541776Y-128082267D01*
X182387627Y-128018417D01*
X182052702Y-127794627D01*
X181767873Y-127509798D01*
X181544083Y-127174873D01*
X181440799Y-126925522D01*
X181389934Y-126802724D01*
X181311350Y-126407656D01*
X181311350Y-126004844D01*
X181389934Y-125609776D01*
X181511688Y-125315836D01*
X181544083Y-125237627D01*
X181767873Y-124902702D01*
X182052702Y-124617873D01*
X182387627Y-124394083D01*
X182541776Y-124330233D01*
X182759776Y-124239934D01*
X183154844Y-124161350D01*
X183557656Y-124161350D01*
X183952724Y-124239934D01*
X183952724Y-124239934D01*
G37*
G36*
X167275104Y-125315835D02*
G01*
X167443626Y-125385639D01*
X167595291Y-125486978D01*
X167724272Y-125615959D01*
X167825611Y-125767624D01*
X167895415Y-125936146D01*
X167931000Y-126115047D01*
X167931000Y-126297453D01*
X167895415Y-126476354D01*
X167825611Y-126644876D01*
X167724272Y-126796541D01*
X167595291Y-126925522D01*
X167443626Y-127026861D01*
X167275104Y-127096665D01*
X167096203Y-127132250D01*
X166913797Y-127132250D01*
X166734896Y-127096665D01*
X166566374Y-127026861D01*
X166414709Y-126925522D01*
X166285728Y-126796541D01*
X166184389Y-126644876D01*
X166114585Y-126476354D01*
X166079000Y-126297453D01*
X166079000Y-126115047D01*
X166114585Y-125936146D01*
X166184389Y-125767624D01*
X166285728Y-125615959D01*
X166414709Y-125486978D01*
X166566374Y-125385639D01*
X166734896Y-125315835D01*
X166913797Y-125280250D01*
X167096203Y-125280250D01*
X167275104Y-125315835D01*
X167275104Y-125315835D01*
G37*
G36*
X133302604Y-125315835D02*
G01*
X133471126Y-125385639D01*
X133622791Y-125486978D01*
X133751772Y-125615959D01*
X133853111Y-125767624D01*
X133922915Y-125936146D01*
X133958500Y-126115047D01*
X133958500Y-126297453D01*
X133922915Y-126476354D01*
X133853111Y-126644876D01*
X133751772Y-126796541D01*
X133622791Y-126925522D01*
X133471126Y-127026861D01*
X133302604Y-127096665D01*
X133123703Y-127132250D01*
X132941297Y-127132250D01*
X132762396Y-127096665D01*
X132593874Y-127026861D01*
X132442209Y-126925522D01*
X132313228Y-126796541D01*
X132211889Y-126644876D01*
X132142085Y-126476354D01*
X132106500Y-126297453D01*
X132106500Y-126115047D01*
X132142085Y-125936146D01*
X132211889Y-125767624D01*
X132313228Y-125615959D01*
X132442209Y-125486978D01*
X132593874Y-125385639D01*
X132762396Y-125315835D01*
X132941297Y-125280250D01*
X133123703Y-125280250D01*
X133302604Y-125315835D01*
X133302604Y-125315835D01*
G37*
G36*
X143462604Y-125315835D02*
G01*
X143631126Y-125385639D01*
X143782791Y-125486978D01*
X143911772Y-125615959D01*
X144013111Y-125767624D01*
X144082915Y-125936146D01*
X144118500Y-126115047D01*
X144118500Y-126297453D01*
X144082915Y-126476354D01*
X144013111Y-126644876D01*
X143911772Y-126796541D01*
X143782791Y-126925522D01*
X143631126Y-127026861D01*
X143462604Y-127096665D01*
X143283703Y-127132250D01*
X143101297Y-127132250D01*
X142922396Y-127096665D01*
X142753874Y-127026861D01*
X142602209Y-126925522D01*
X142473228Y-126796541D01*
X142371889Y-126644876D01*
X142302085Y-126476354D01*
X142266500Y-126297453D01*
X142266500Y-126115047D01*
X142302085Y-125936146D01*
X142371889Y-125767624D01*
X142473228Y-125615959D01*
X142602209Y-125486978D01*
X142753874Y-125385639D01*
X142922396Y-125315835D01*
X143101297Y-125280250D01*
X143283703Y-125280250D01*
X143462604Y-125315835D01*
X143462604Y-125315835D01*
G37*
G36*
X111871354Y-125315835D02*
G01*
X112039876Y-125385639D01*
X112191541Y-125486978D01*
X112320522Y-125615959D01*
X112421861Y-125767624D01*
X112491665Y-125936146D01*
X112527250Y-126115047D01*
X112527250Y-126297453D01*
X112491665Y-126476354D01*
X112421861Y-126644876D01*
X112320522Y-126796541D01*
X112191541Y-126925522D01*
X112039876Y-127026861D01*
X111871354Y-127096665D01*
X111692453Y-127132250D01*
X111510047Y-127132250D01*
X111331146Y-127096665D01*
X111162624Y-127026861D01*
X111010959Y-126925522D01*
X110881978Y-126796541D01*
X110780639Y-126644876D01*
X110710835Y-126476354D01*
X110675250Y-126297453D01*
X110675250Y-126115047D01*
X110710835Y-125936146D01*
X110780639Y-125767624D01*
X110881978Y-125615959D01*
X111010959Y-125486978D01*
X111162624Y-125385639D01*
X111331146Y-125315835D01*
X111510047Y-125280250D01*
X111692453Y-125280250D01*
X111871354Y-125315835D01*
X111871354Y-125315835D01*
G37*
G36*
X122031354Y-125315835D02*
G01*
X122199876Y-125385639D01*
X122351541Y-125486978D01*
X122480522Y-125615959D01*
X122581861Y-125767624D01*
X122651665Y-125936146D01*
X122687250Y-126115047D01*
X122687250Y-126297453D01*
X122651665Y-126476354D01*
X122581861Y-126644876D01*
X122480522Y-126796541D01*
X122351541Y-126925522D01*
X122199876Y-127026861D01*
X122031354Y-127096665D01*
X121852453Y-127132250D01*
X121670047Y-127132250D01*
X121491146Y-127096665D01*
X121322624Y-127026861D01*
X121170959Y-126925522D01*
X121041978Y-126796541D01*
X120940639Y-126644876D01*
X120870835Y-126476354D01*
X120835250Y-126297453D01*
X120835250Y-126115047D01*
X120870835Y-125936146D01*
X120940639Y-125767624D01*
X121041978Y-125615959D01*
X121170959Y-125486978D01*
X121322624Y-125385639D01*
X121491146Y-125315835D01*
X121670047Y-125280250D01*
X121852453Y-125280250D01*
X122031354Y-125315835D01*
X122031354Y-125315835D01*
G37*
G36*
X92821354Y-125315835D02*
G01*
X92989876Y-125385639D01*
X93141541Y-125486978D01*
X93270522Y-125615959D01*
X93371861Y-125767624D01*
X93441665Y-125936146D01*
X93477250Y-126115047D01*
X93477250Y-126297453D01*
X93441665Y-126476354D01*
X93371861Y-126644876D01*
X93270522Y-126796541D01*
X93141541Y-126925522D01*
X92989876Y-127026861D01*
X92821354Y-127096665D01*
X92642453Y-127132250D01*
X92460047Y-127132250D01*
X92281146Y-127096665D01*
X92112624Y-127026861D01*
X91960959Y-126925522D01*
X91831978Y-126796541D01*
X91730639Y-126644876D01*
X91660835Y-126476354D01*
X91625250Y-126297453D01*
X91625250Y-126115047D01*
X91660835Y-125936146D01*
X91730639Y-125767624D01*
X91831978Y-125615959D01*
X91960959Y-125486978D01*
X92112624Y-125385639D01*
X92281146Y-125315835D01*
X92460047Y-125280250D01*
X92642453Y-125280250D01*
X92821354Y-125315835D01*
X92821354Y-125315835D01*
G37*
G36*
X178546354Y-125315835D02*
G01*
X178714876Y-125385639D01*
X178866541Y-125486978D01*
X178995522Y-125615959D01*
X179096861Y-125767624D01*
X179166665Y-125936146D01*
X179202250Y-126115047D01*
X179202250Y-126297453D01*
X179166665Y-126476354D01*
X179096861Y-126644876D01*
X178995522Y-126796541D01*
X178866541Y-126925522D01*
X178714876Y-127026861D01*
X178546354Y-127096665D01*
X178367453Y-127132250D01*
X178185047Y-127132250D01*
X178006146Y-127096665D01*
X177837624Y-127026861D01*
X177685959Y-126925522D01*
X177556978Y-126796541D01*
X177455639Y-126644876D01*
X177385835Y-126476354D01*
X177350250Y-126297453D01*
X177350250Y-126115047D01*
X177385835Y-125936146D01*
X177455639Y-125767624D01*
X177556978Y-125615959D01*
X177685959Y-125486978D01*
X177837624Y-125385639D01*
X178006146Y-125315835D01*
X178185047Y-125280250D01*
X178367453Y-125280250D01*
X178546354Y-125315835D01*
X178546354Y-125315835D01*
G37*
G36*
X207756354Y-125315835D02*
G01*
X207924876Y-125385639D01*
X208076541Y-125486978D01*
X208205522Y-125615959D01*
X208306861Y-125767624D01*
X208376665Y-125936146D01*
X208412250Y-126115047D01*
X208412250Y-126297453D01*
X208376665Y-126476354D01*
X208306861Y-126644876D01*
X208205522Y-126796541D01*
X208076541Y-126925522D01*
X207924876Y-127026861D01*
X207756354Y-127096665D01*
X207577453Y-127132250D01*
X207395047Y-127132250D01*
X207216146Y-127096665D01*
X207047624Y-127026861D01*
X206895959Y-126925522D01*
X206766978Y-126796541D01*
X206665639Y-126644876D01*
X206595835Y-126476354D01*
X206560250Y-126297453D01*
X206560250Y-126115047D01*
X206595835Y-125936146D01*
X206665639Y-125767624D01*
X206766978Y-125615959D01*
X206895959Y-125486978D01*
X207047624Y-125385639D01*
X207216146Y-125315835D01*
X207395047Y-125280250D01*
X207577453Y-125280250D01*
X207756354Y-125315835D01*
X207756354Y-125315835D01*
G37*
G36*
X197596354Y-125315835D02*
G01*
X197764876Y-125385639D01*
X197916541Y-125486978D01*
X198045522Y-125615959D01*
X198146861Y-125767624D01*
X198216665Y-125936146D01*
X198252250Y-126115047D01*
X198252250Y-126297453D01*
X198216665Y-126476354D01*
X198146861Y-126644876D01*
X198045522Y-126796541D01*
X197916541Y-126925522D01*
X197764876Y-127026861D01*
X197596354Y-127096665D01*
X197417453Y-127132250D01*
X197235047Y-127132250D01*
X197056146Y-127096665D01*
X196887624Y-127026861D01*
X196735959Y-126925522D01*
X196606978Y-126796541D01*
X196505639Y-126644876D01*
X196435835Y-126476354D01*
X196400250Y-126297453D01*
X196400250Y-126115047D01*
X196435835Y-125936146D01*
X196505639Y-125767624D01*
X196606978Y-125615959D01*
X196735959Y-125486978D01*
X196887624Y-125385639D01*
X197056146Y-125315835D01*
X197235047Y-125280250D01*
X197417453Y-125280250D01*
X197596354Y-125315835D01*
X197596354Y-125315835D01*
G37*
G36*
X188706354Y-125315835D02*
G01*
X188874876Y-125385639D01*
X189026541Y-125486978D01*
X189155522Y-125615959D01*
X189256861Y-125767624D01*
X189326665Y-125936146D01*
X189362250Y-126115047D01*
X189362250Y-126297453D01*
X189326665Y-126476354D01*
X189256861Y-126644876D01*
X189155522Y-126796541D01*
X189026541Y-126925522D01*
X188874876Y-127026861D01*
X188706354Y-127096665D01*
X188527453Y-127132250D01*
X188345047Y-127132250D01*
X188166146Y-127096665D01*
X187997624Y-127026861D01*
X187845959Y-126925522D01*
X187716978Y-126796541D01*
X187615639Y-126644876D01*
X187545835Y-126476354D01*
X187510250Y-126297453D01*
X187510250Y-126115047D01*
X187545835Y-125936146D01*
X187615639Y-125767624D01*
X187716978Y-125615959D01*
X187845959Y-125486978D01*
X187997624Y-125385639D01*
X188166146Y-125315835D01*
X188345047Y-125280250D01*
X188527453Y-125280250D01*
X188706354Y-125315835D01*
X188706354Y-125315835D01*
G37*
G36*
X102981354Y-125315835D02*
G01*
X103149876Y-125385639D01*
X103301541Y-125486978D01*
X103430522Y-125615959D01*
X103531861Y-125767624D01*
X103601665Y-125936146D01*
X103637250Y-126115047D01*
X103637250Y-126297453D01*
X103601665Y-126476354D01*
X103531861Y-126644876D01*
X103430522Y-126796541D01*
X103301541Y-126925522D01*
X103149876Y-127026861D01*
X102981354Y-127096665D01*
X102802453Y-127132250D01*
X102620047Y-127132250D01*
X102441146Y-127096665D01*
X102272624Y-127026861D01*
X102120959Y-126925522D01*
X101991978Y-126796541D01*
X101890639Y-126644876D01*
X101820835Y-126476354D01*
X101785250Y-126297453D01*
X101785250Y-126115047D01*
X101820835Y-125936146D01*
X101890639Y-125767624D01*
X101991978Y-125615959D01*
X102120959Y-125486978D01*
X102272624Y-125385639D01*
X102441146Y-125315835D01*
X102620047Y-125280250D01*
X102802453Y-125280250D01*
X102981354Y-125315835D01*
X102981354Y-125315835D01*
G37*
G36*
X157115104Y-125315835D02*
G01*
X157283626Y-125385639D01*
X157435291Y-125486978D01*
X157564272Y-125615959D01*
X157665611Y-125767624D01*
X157735415Y-125936146D01*
X157771000Y-126115047D01*
X157771000Y-126297453D01*
X157735415Y-126476354D01*
X157665611Y-126644876D01*
X157564272Y-126796541D01*
X157435291Y-126925522D01*
X157283626Y-127026861D01*
X157115104Y-127096665D01*
X156936203Y-127132250D01*
X156753797Y-127132250D01*
X156574896Y-127096665D01*
X156406374Y-127026861D01*
X156254709Y-126925522D01*
X156125728Y-126796541D01*
X156024389Y-126644876D01*
X155954585Y-126476354D01*
X155919000Y-126297453D01*
X155919000Y-126115047D01*
X155954585Y-125936146D01*
X156024389Y-125767624D01*
X156125728Y-125615959D01*
X156254709Y-125486978D01*
X156406374Y-125385639D01*
X156574896Y-125315835D01*
X156753797Y-125280250D01*
X156936203Y-125280250D01*
X157115104Y-125315835D01*
X157115104Y-125315835D01*
G37*
G36*
X50602724Y-109952434D02*
G01*
X50820724Y-110042733D01*
X50974873Y-110106583D01*
X51309798Y-110330373D01*
X51594627Y-110615202D01*
X51818417Y-110950127D01*
X51850812Y-111028336D01*
X51972566Y-111322276D01*
X52051150Y-111717344D01*
X52051150Y-112120156D01*
X51972566Y-112515224D01*
X51921701Y-112638022D01*
X51818417Y-112887373D01*
X51594627Y-113222298D01*
X51309798Y-113507127D01*
X50974873Y-113730917D01*
X50820724Y-113794767D01*
X50602724Y-113885066D01*
X50207656Y-113963650D01*
X49804844Y-113963650D01*
X49409776Y-113885066D01*
X49191776Y-113794767D01*
X49037627Y-113730917D01*
X48702702Y-113507127D01*
X48417873Y-113222298D01*
X48194083Y-112887373D01*
X48090799Y-112638022D01*
X48039934Y-112515224D01*
X47961350Y-112120156D01*
X47961350Y-111717344D01*
X48039934Y-111322276D01*
X48161688Y-111028336D01*
X48194083Y-110950127D01*
X48417873Y-110615202D01*
X48702702Y-110330373D01*
X49037627Y-110106583D01*
X49191776Y-110042733D01*
X49409776Y-109952434D01*
X49804844Y-109873850D01*
X50207656Y-109873850D01*
X50602724Y-109952434D01*
X50602724Y-109952434D01*
G37*
G36*
X250627724Y-109952434D02*
G01*
X250845724Y-110042733D01*
X250999873Y-110106583D01*
X251334798Y-110330373D01*
X251619627Y-110615202D01*
X251843417Y-110950127D01*
X251875812Y-111028336D01*
X251997566Y-111322276D01*
X252076150Y-111717344D01*
X252076150Y-112120156D01*
X251997566Y-112515224D01*
X251946701Y-112638022D01*
X251843417Y-112887373D01*
X251619627Y-113222298D01*
X251334798Y-113507127D01*
X250999873Y-113730917D01*
X250845724Y-113794767D01*
X250627724Y-113885066D01*
X250232656Y-113963650D01*
X249829844Y-113963650D01*
X249434776Y-113885066D01*
X249216776Y-113794767D01*
X249062627Y-113730917D01*
X248727702Y-113507127D01*
X248442873Y-113222298D01*
X248219083Y-112887373D01*
X248115799Y-112638022D01*
X248064934Y-112515224D01*
X247986350Y-112120156D01*
X247986350Y-111717344D01*
X248064934Y-111322276D01*
X248186688Y-111028336D01*
X248219083Y-110950127D01*
X248442873Y-110615202D01*
X248727702Y-110330373D01*
X249062627Y-110106583D01*
X249216776Y-110042733D01*
X249434776Y-109952434D01*
X249829844Y-109873850D01*
X250232656Y-109873850D01*
X250627724Y-109952434D01*
X250627724Y-109952434D01*
G37*
G36*
X31552724Y-109952434D02*
G01*
X31770724Y-110042733D01*
X31924873Y-110106583D01*
X32259798Y-110330373D01*
X32544627Y-110615202D01*
X32768417Y-110950127D01*
X32800812Y-111028336D01*
X32922566Y-111322276D01*
X33001150Y-111717344D01*
X33001150Y-112120156D01*
X32922566Y-112515224D01*
X32871701Y-112638022D01*
X32768417Y-112887373D01*
X32544627Y-113222298D01*
X32259798Y-113507127D01*
X31924873Y-113730917D01*
X31770724Y-113794767D01*
X31552724Y-113885066D01*
X31157656Y-113963650D01*
X30754844Y-113963650D01*
X30359776Y-113885066D01*
X30141776Y-113794767D01*
X29987627Y-113730917D01*
X29652702Y-113507127D01*
X29367873Y-113222298D01*
X29144083Y-112887373D01*
X29040799Y-112638022D01*
X28989934Y-112515224D01*
X28911350Y-112120156D01*
X28911350Y-111717344D01*
X28989934Y-111322276D01*
X29111688Y-111028336D01*
X29144083Y-110950127D01*
X29367873Y-110615202D01*
X29652702Y-110330373D01*
X29987627Y-110106583D01*
X30141776Y-110042733D01*
X30359776Y-109952434D01*
X30754844Y-109873850D01*
X31157656Y-109873850D01*
X31552724Y-109952434D01*
X31552724Y-109952434D01*
G37*
G36*
X269677724Y-109952434D02*
G01*
X269895724Y-110042733D01*
X270049873Y-110106583D01*
X270384798Y-110330373D01*
X270669627Y-110615202D01*
X270893417Y-110950127D01*
X270925812Y-111028336D01*
X271047566Y-111322276D01*
X271126150Y-111717344D01*
X271126150Y-112120156D01*
X271047566Y-112515224D01*
X270996701Y-112638022D01*
X270893417Y-112887373D01*
X270669627Y-113222298D01*
X270384798Y-113507127D01*
X270049873Y-113730917D01*
X269895724Y-113794767D01*
X269677724Y-113885066D01*
X269282656Y-113963650D01*
X268879844Y-113963650D01*
X268484776Y-113885066D01*
X268266776Y-113794767D01*
X268112627Y-113730917D01*
X267777702Y-113507127D01*
X267492873Y-113222298D01*
X267269083Y-112887373D01*
X267165799Y-112638022D01*
X267114934Y-112515224D01*
X267036350Y-112120156D01*
X267036350Y-111717344D01*
X267114934Y-111322276D01*
X267236688Y-111028336D01*
X267269083Y-110950127D01*
X267492873Y-110615202D01*
X267777702Y-110330373D01*
X268112627Y-110106583D01*
X268266776Y-110042733D01*
X268484776Y-109952434D01*
X268879844Y-109873850D01*
X269282656Y-109873850D01*
X269677724Y-109952434D01*
X269677724Y-109952434D01*
G37*
G36*
X264271354Y-111028335D02*
G01*
X264439876Y-111098139D01*
X264591541Y-111199478D01*
X264720522Y-111328459D01*
X264821861Y-111480124D01*
X264891665Y-111648646D01*
X264927250Y-111827547D01*
X264927250Y-112009953D01*
X264891665Y-112188854D01*
X264821861Y-112357376D01*
X264720522Y-112509041D01*
X264591541Y-112638022D01*
X264439876Y-112739361D01*
X264271354Y-112809165D01*
X264092453Y-112844750D01*
X263910047Y-112844750D01*
X263731146Y-112809165D01*
X263562624Y-112739361D01*
X263410959Y-112638022D01*
X263281978Y-112509041D01*
X263180639Y-112357376D01*
X263110835Y-112188854D01*
X263075250Y-112009953D01*
X263075250Y-111827547D01*
X263110835Y-111648646D01*
X263180639Y-111480124D01*
X263281978Y-111328459D01*
X263410959Y-111199478D01*
X263562624Y-111098139D01*
X263731146Y-111028335D01*
X263910047Y-110992750D01*
X264092453Y-110992750D01*
X264271354Y-111028335D01*
X264271354Y-111028335D01*
G37*
G36*
X26146354Y-111028335D02*
G01*
X26314876Y-111098139D01*
X26466541Y-111199478D01*
X26595522Y-111328459D01*
X26696861Y-111480124D01*
X26766665Y-111648646D01*
X26802250Y-111827547D01*
X26802250Y-112009953D01*
X26766665Y-112188854D01*
X26696861Y-112357376D01*
X26595522Y-112509041D01*
X26466541Y-112638022D01*
X26314876Y-112739361D01*
X26146354Y-112809165D01*
X25967453Y-112844750D01*
X25785047Y-112844750D01*
X25606146Y-112809165D01*
X25437624Y-112739361D01*
X25285959Y-112638022D01*
X25156978Y-112509041D01*
X25055639Y-112357376D01*
X24985835Y-112188854D01*
X24950250Y-112009953D01*
X24950250Y-111827547D01*
X24985835Y-111648646D01*
X25055639Y-111480124D01*
X25156978Y-111328459D01*
X25285959Y-111199478D01*
X25437624Y-111098139D01*
X25606146Y-111028335D01*
X25785047Y-110992750D01*
X25967453Y-110992750D01*
X26146354Y-111028335D01*
X26146354Y-111028335D01*
G37*
G36*
X45196354Y-111028335D02*
G01*
X45364876Y-111098139D01*
X45516541Y-111199478D01*
X45645522Y-111328459D01*
X45746861Y-111480124D01*
X45816665Y-111648646D01*
X45852250Y-111827547D01*
X45852250Y-112009953D01*
X45816665Y-112188854D01*
X45746861Y-112357376D01*
X45645522Y-112509041D01*
X45516541Y-112638022D01*
X45364876Y-112739361D01*
X45196354Y-112809165D01*
X45017453Y-112844750D01*
X44835047Y-112844750D01*
X44656146Y-112809165D01*
X44487624Y-112739361D01*
X44335959Y-112638022D01*
X44206978Y-112509041D01*
X44105639Y-112357376D01*
X44035835Y-112188854D01*
X44000250Y-112009953D01*
X44000250Y-111827547D01*
X44035835Y-111648646D01*
X44105639Y-111480124D01*
X44206978Y-111328459D01*
X44335959Y-111199478D01*
X44487624Y-111098139D01*
X44656146Y-111028335D01*
X44835047Y-110992750D01*
X45017453Y-110992750D01*
X45196354Y-111028335D01*
X45196354Y-111028335D01*
G37*
G36*
X55356354Y-111028335D02*
G01*
X55524876Y-111098139D01*
X55676541Y-111199478D01*
X55805522Y-111328459D01*
X55906861Y-111480124D01*
X55976665Y-111648646D01*
X56012250Y-111827547D01*
X56012250Y-112009953D01*
X55976665Y-112188854D01*
X55906861Y-112357376D01*
X55805522Y-112509041D01*
X55676541Y-112638022D01*
X55524876Y-112739361D01*
X55356354Y-112809165D01*
X55177453Y-112844750D01*
X54995047Y-112844750D01*
X54816146Y-112809165D01*
X54647624Y-112739361D01*
X54495959Y-112638022D01*
X54366978Y-112509041D01*
X54265639Y-112357376D01*
X54195835Y-112188854D01*
X54160250Y-112009953D01*
X54160250Y-111827547D01*
X54195835Y-111648646D01*
X54265639Y-111480124D01*
X54366978Y-111328459D01*
X54495959Y-111199478D01*
X54647624Y-111098139D01*
X54816146Y-111028335D01*
X54995047Y-110992750D01*
X55177453Y-110992750D01*
X55356354Y-111028335D01*
X55356354Y-111028335D01*
G37*
G36*
X245221354Y-111028335D02*
G01*
X245389876Y-111098139D01*
X245541541Y-111199478D01*
X245670522Y-111328459D01*
X245771861Y-111480124D01*
X245841665Y-111648646D01*
X245877250Y-111827547D01*
X245877250Y-112009953D01*
X245841665Y-112188854D01*
X245771861Y-112357376D01*
X245670522Y-112509041D01*
X245541541Y-112638022D01*
X245389876Y-112739361D01*
X245221354Y-112809165D01*
X245042453Y-112844750D01*
X244860047Y-112844750D01*
X244681146Y-112809165D01*
X244512624Y-112739361D01*
X244360959Y-112638022D01*
X244231978Y-112509041D01*
X244130639Y-112357376D01*
X244060835Y-112188854D01*
X244025250Y-112009953D01*
X244025250Y-111827547D01*
X244060835Y-111648646D01*
X244130639Y-111480124D01*
X244231978Y-111328459D01*
X244360959Y-111199478D01*
X244512624Y-111098139D01*
X244681146Y-111028335D01*
X244860047Y-110992750D01*
X245042453Y-110992750D01*
X245221354Y-111028335D01*
X245221354Y-111028335D01*
G37*
G36*
X36306354Y-111028335D02*
G01*
X36474876Y-111098139D01*
X36626541Y-111199478D01*
X36755522Y-111328459D01*
X36856861Y-111480124D01*
X36926665Y-111648646D01*
X36962250Y-111827547D01*
X36962250Y-112009953D01*
X36926665Y-112188854D01*
X36856861Y-112357376D01*
X36755522Y-112509041D01*
X36626541Y-112638022D01*
X36474876Y-112739361D01*
X36306354Y-112809165D01*
X36127453Y-112844750D01*
X35945047Y-112844750D01*
X35766146Y-112809165D01*
X35597624Y-112739361D01*
X35445959Y-112638022D01*
X35316978Y-112509041D01*
X35215639Y-112357376D01*
X35145835Y-112188854D01*
X35110250Y-112009953D01*
X35110250Y-111827547D01*
X35145835Y-111648646D01*
X35215639Y-111480124D01*
X35316978Y-111328459D01*
X35445959Y-111199478D01*
X35597624Y-111098139D01*
X35766146Y-111028335D01*
X35945047Y-110992750D01*
X36127453Y-110992750D01*
X36306354Y-111028335D01*
X36306354Y-111028335D01*
G37*
G36*
X255381354Y-111028335D02*
G01*
X255549876Y-111098139D01*
X255701541Y-111199478D01*
X255830522Y-111328459D01*
X255931861Y-111480124D01*
X256001665Y-111648646D01*
X256037250Y-111827547D01*
X256037250Y-112009953D01*
X256001665Y-112188854D01*
X255931861Y-112357376D01*
X255830522Y-112509041D01*
X255701541Y-112638022D01*
X255549876Y-112739361D01*
X255381354Y-112809165D01*
X255202453Y-112844750D01*
X255020047Y-112844750D01*
X254841146Y-112809165D01*
X254672624Y-112739361D01*
X254520959Y-112638022D01*
X254391978Y-112509041D01*
X254290639Y-112357376D01*
X254220835Y-112188854D01*
X254185250Y-112009953D01*
X254185250Y-111827547D01*
X254220835Y-111648646D01*
X254290639Y-111480124D01*
X254391978Y-111328459D01*
X254520959Y-111199478D01*
X254672624Y-111098139D01*
X254841146Y-111028335D01*
X255020047Y-110992750D01*
X255202453Y-110992750D01*
X255381354Y-111028335D01*
X255381354Y-111028335D01*
G37*
G36*
X274431354Y-111028335D02*
G01*
X274599876Y-111098139D01*
X274751541Y-111199478D01*
X274880522Y-111328459D01*
X274981861Y-111480124D01*
X275051665Y-111648646D01*
X275087250Y-111827547D01*
X275087250Y-112009953D01*
X275051665Y-112188854D01*
X274981861Y-112357376D01*
X274880522Y-112509041D01*
X274751541Y-112638022D01*
X274599876Y-112739361D01*
X274431354Y-112809165D01*
X274252453Y-112844750D01*
X274070047Y-112844750D01*
X273891146Y-112809165D01*
X273722624Y-112739361D01*
X273570959Y-112638022D01*
X273441978Y-112509041D01*
X273340639Y-112357376D01*
X273270835Y-112188854D01*
X273235250Y-112009953D01*
X273235250Y-111827547D01*
X273270835Y-111648646D01*
X273340639Y-111480124D01*
X273441978Y-111328459D01*
X273570959Y-111199478D01*
X273722624Y-111098139D01*
X273891146Y-111028335D01*
X274070047Y-110992750D01*
X274252453Y-110992750D01*
X274431354Y-111028335D01*
X274431354Y-111028335D01*
G37*
G36*
X88702724Y-105189934D02*
G01*
X88920724Y-105280233D01*
X89074873Y-105344083D01*
X89409798Y-105567873D01*
X89694627Y-105852702D01*
X89918417Y-106187627D01*
X89950812Y-106265836D01*
X90072566Y-106559776D01*
X90151150Y-106954844D01*
X90151150Y-107357656D01*
X90072566Y-107752724D01*
X90021701Y-107875522D01*
X89918417Y-108124873D01*
X89694627Y-108459798D01*
X89409798Y-108744627D01*
X89074873Y-108968417D01*
X88920724Y-109032267D01*
X88702724Y-109122566D01*
X88307656Y-109201150D01*
X87904844Y-109201150D01*
X87509776Y-109122566D01*
X87291776Y-109032267D01*
X87137627Y-108968417D01*
X86802702Y-108744627D01*
X86517873Y-108459798D01*
X86294083Y-108124873D01*
X86190799Y-107875522D01*
X86139934Y-107752724D01*
X86061350Y-107357656D01*
X86061350Y-106954844D01*
X86139934Y-106559776D01*
X86261688Y-106265836D01*
X86294083Y-106187627D01*
X86517873Y-105852702D01*
X86802702Y-105567873D01*
X87137627Y-105344083D01*
X87291776Y-105280233D01*
X87509776Y-105189934D01*
X87904844Y-105111350D01*
X88307656Y-105111350D01*
X88702724Y-105189934D01*
X88702724Y-105189934D01*
G37*
G36*
X69652724Y-105189934D02*
G01*
X69870724Y-105280233D01*
X70024873Y-105344083D01*
X70359798Y-105567873D01*
X70644627Y-105852702D01*
X70868417Y-106187627D01*
X70900812Y-106265836D01*
X71022566Y-106559776D01*
X71101150Y-106954844D01*
X71101150Y-107357656D01*
X71022566Y-107752724D01*
X70971701Y-107875522D01*
X70868417Y-108124873D01*
X70644627Y-108459798D01*
X70359798Y-108744627D01*
X70024873Y-108968417D01*
X69870724Y-109032267D01*
X69652724Y-109122566D01*
X69257656Y-109201150D01*
X68854844Y-109201150D01*
X68459776Y-109122566D01*
X68241776Y-109032267D01*
X68087627Y-108968417D01*
X67752702Y-108744627D01*
X67467873Y-108459798D01*
X67244083Y-108124873D01*
X67140799Y-107875522D01*
X67089934Y-107752724D01*
X67011350Y-107357656D01*
X67011350Y-106954844D01*
X67089934Y-106559776D01*
X67211688Y-106265836D01*
X67244083Y-106187627D01*
X67467873Y-105852702D01*
X67752702Y-105567873D01*
X68087627Y-105344083D01*
X68241776Y-105280233D01*
X68459776Y-105189934D01*
X68854844Y-105111350D01*
X69257656Y-105111350D01*
X69652724Y-105189934D01*
X69652724Y-105189934D01*
G37*
G36*
X107752724Y-105189934D02*
G01*
X107970724Y-105280233D01*
X108124873Y-105344083D01*
X108459798Y-105567873D01*
X108744627Y-105852702D01*
X108968417Y-106187627D01*
X109000812Y-106265836D01*
X109122566Y-106559776D01*
X109201150Y-106954844D01*
X109201150Y-107357656D01*
X109122566Y-107752724D01*
X109071701Y-107875522D01*
X108968417Y-108124873D01*
X108744627Y-108459798D01*
X108459798Y-108744627D01*
X108124873Y-108968417D01*
X107970724Y-109032267D01*
X107752724Y-109122566D01*
X107357656Y-109201150D01*
X106954844Y-109201150D01*
X106559776Y-109122566D01*
X106341776Y-109032267D01*
X106187627Y-108968417D01*
X105852702Y-108744627D01*
X105567873Y-108459798D01*
X105344083Y-108124873D01*
X105240799Y-107875522D01*
X105189934Y-107752724D01*
X105111350Y-107357656D01*
X105111350Y-106954844D01*
X105189934Y-106559776D01*
X105311688Y-106265836D01*
X105344083Y-106187627D01*
X105567873Y-105852702D01*
X105852702Y-105567873D01*
X106187627Y-105344083D01*
X106341776Y-105280233D01*
X106559776Y-105189934D01*
X106954844Y-105111350D01*
X107357656Y-105111350D01*
X107752724Y-105189934D01*
X107752724Y-105189934D01*
G37*
G36*
X126802724Y-105189934D02*
G01*
X127020724Y-105280233D01*
X127174873Y-105344083D01*
X127509798Y-105567873D01*
X127794627Y-105852702D01*
X128018417Y-106187627D01*
X128050812Y-106265836D01*
X128172566Y-106559776D01*
X128251150Y-106954844D01*
X128251150Y-107357656D01*
X128172566Y-107752724D01*
X128121701Y-107875522D01*
X128018417Y-108124873D01*
X127794627Y-108459798D01*
X127509798Y-108744627D01*
X127174873Y-108968417D01*
X127020724Y-109032267D01*
X126802724Y-109122566D01*
X126407656Y-109201150D01*
X126004844Y-109201150D01*
X125609776Y-109122566D01*
X125391776Y-109032267D01*
X125237627Y-108968417D01*
X124902702Y-108744627D01*
X124617873Y-108459798D01*
X124394083Y-108124873D01*
X124290799Y-107875522D01*
X124239934Y-107752724D01*
X124161350Y-107357656D01*
X124161350Y-106954844D01*
X124239934Y-106559776D01*
X124361688Y-106265836D01*
X124394083Y-106187627D01*
X124617873Y-105852702D01*
X124902702Y-105567873D01*
X125237627Y-105344083D01*
X125391776Y-105280233D01*
X125609776Y-105189934D01*
X126004844Y-105111350D01*
X126407656Y-105111350D01*
X126802724Y-105189934D01*
X126802724Y-105189934D01*
G37*
G36*
X212527724Y-105189934D02*
G01*
X212745724Y-105280233D01*
X212899873Y-105344083D01*
X213234798Y-105567873D01*
X213519627Y-105852702D01*
X213743417Y-106187627D01*
X213775812Y-106265836D01*
X213897566Y-106559776D01*
X213976150Y-106954844D01*
X213976150Y-107357656D01*
X213897566Y-107752724D01*
X213846701Y-107875522D01*
X213743417Y-108124873D01*
X213519627Y-108459798D01*
X213234798Y-108744627D01*
X212899873Y-108968417D01*
X212745724Y-109032267D01*
X212527724Y-109122566D01*
X212132656Y-109201150D01*
X211729844Y-109201150D01*
X211334776Y-109122566D01*
X211116776Y-109032267D01*
X210962627Y-108968417D01*
X210627702Y-108744627D01*
X210342873Y-108459798D01*
X210119083Y-108124873D01*
X210015799Y-107875522D01*
X209964934Y-107752724D01*
X209886350Y-107357656D01*
X209886350Y-106954844D01*
X209964934Y-106559776D01*
X210086688Y-106265836D01*
X210119083Y-106187627D01*
X210342873Y-105852702D01*
X210627702Y-105567873D01*
X210962627Y-105344083D01*
X211116776Y-105280233D01*
X211334776Y-105189934D01*
X211729844Y-105111350D01*
X212132656Y-105111350D01*
X212527724Y-105189934D01*
X212527724Y-105189934D01*
G37*
G36*
X193477724Y-105189934D02*
G01*
X193695724Y-105280233D01*
X193849873Y-105344083D01*
X194184798Y-105567873D01*
X194469627Y-105852702D01*
X194693417Y-106187627D01*
X194725812Y-106265836D01*
X194847566Y-106559776D01*
X194926150Y-106954844D01*
X194926150Y-107357656D01*
X194847566Y-107752724D01*
X194796701Y-107875522D01*
X194693417Y-108124873D01*
X194469627Y-108459798D01*
X194184798Y-108744627D01*
X193849873Y-108968417D01*
X193695724Y-109032267D01*
X193477724Y-109122566D01*
X193082656Y-109201150D01*
X192679844Y-109201150D01*
X192284776Y-109122566D01*
X192066776Y-109032267D01*
X191912627Y-108968417D01*
X191577702Y-108744627D01*
X191292873Y-108459798D01*
X191069083Y-108124873D01*
X190965799Y-107875522D01*
X190914934Y-107752724D01*
X190836350Y-107357656D01*
X190836350Y-106954844D01*
X190914934Y-106559776D01*
X191036688Y-106265836D01*
X191069083Y-106187627D01*
X191292873Y-105852702D01*
X191577702Y-105567873D01*
X191912627Y-105344083D01*
X192066776Y-105280233D01*
X192284776Y-105189934D01*
X192679844Y-105111350D01*
X193082656Y-105111350D01*
X193477724Y-105189934D01*
X193477724Y-105189934D01*
G37*
G36*
X174427724Y-105189934D02*
G01*
X174645724Y-105280233D01*
X174799873Y-105344083D01*
X175134798Y-105567873D01*
X175419627Y-105852702D01*
X175643417Y-106187627D01*
X175675812Y-106265836D01*
X175797566Y-106559776D01*
X175876150Y-106954844D01*
X175876150Y-107357656D01*
X175797566Y-107752724D01*
X175746701Y-107875522D01*
X175643417Y-108124873D01*
X175419627Y-108459798D01*
X175134798Y-108744627D01*
X174799873Y-108968417D01*
X174645724Y-109032267D01*
X174427724Y-109122566D01*
X174032656Y-109201150D01*
X173629844Y-109201150D01*
X173234776Y-109122566D01*
X173016776Y-109032267D01*
X172862627Y-108968417D01*
X172527702Y-108744627D01*
X172242873Y-108459798D01*
X172019083Y-108124873D01*
X171915799Y-107875522D01*
X171864934Y-107752724D01*
X171786350Y-107357656D01*
X171786350Y-106954844D01*
X171864934Y-106559776D01*
X171986688Y-106265836D01*
X172019083Y-106187627D01*
X172242873Y-105852702D01*
X172527702Y-105567873D01*
X172862627Y-105344083D01*
X173016776Y-105280233D01*
X173234776Y-105189934D01*
X173629844Y-105111350D01*
X174032656Y-105111350D01*
X174427724Y-105189934D01*
X174427724Y-105189934D01*
G37*
G36*
X231577724Y-105189934D02*
G01*
X231795724Y-105280233D01*
X231949873Y-105344083D01*
X232284798Y-105567873D01*
X232569627Y-105852702D01*
X232793417Y-106187627D01*
X232825812Y-106265836D01*
X232947566Y-106559776D01*
X233026150Y-106954844D01*
X233026150Y-107357656D01*
X232947566Y-107752724D01*
X232896701Y-107875522D01*
X232793417Y-108124873D01*
X232569627Y-108459798D01*
X232284798Y-108744627D01*
X231949873Y-108968417D01*
X231795724Y-109032267D01*
X231577724Y-109122566D01*
X231182656Y-109201150D01*
X230779844Y-109201150D01*
X230384776Y-109122566D01*
X230166776Y-109032267D01*
X230012627Y-108968417D01*
X229677702Y-108744627D01*
X229392873Y-108459798D01*
X229169083Y-108124873D01*
X229065799Y-107875522D01*
X229014934Y-107752724D01*
X228936350Y-107357656D01*
X228936350Y-106954844D01*
X229014934Y-106559776D01*
X229136688Y-106265836D01*
X229169083Y-106187627D01*
X229392873Y-105852702D01*
X229677702Y-105567873D01*
X230012627Y-105344083D01*
X230166776Y-105280233D01*
X230384776Y-105189934D01*
X230779844Y-105111350D01*
X231182656Y-105111350D01*
X231577724Y-105189934D01*
X231577724Y-105189934D01*
G37*
G36*
X150615224Y-105189934D02*
G01*
X150833224Y-105280233D01*
X150987373Y-105344083D01*
X151322298Y-105567873D01*
X151607127Y-105852702D01*
X151830917Y-106187627D01*
X151863312Y-106265836D01*
X151985066Y-106559776D01*
X152063650Y-106954844D01*
X152063650Y-107357656D01*
X151985066Y-107752724D01*
X151934201Y-107875522D01*
X151830917Y-108124873D01*
X151607127Y-108459798D01*
X151322298Y-108744627D01*
X150987373Y-108968417D01*
X150833224Y-109032267D01*
X150615224Y-109122566D01*
X150220156Y-109201150D01*
X149817344Y-109201150D01*
X149422276Y-109122566D01*
X149204276Y-109032267D01*
X149050127Y-108968417D01*
X148715202Y-108744627D01*
X148430373Y-108459798D01*
X148206583Y-108124873D01*
X148103299Y-107875522D01*
X148052434Y-107752724D01*
X147973850Y-107357656D01*
X147973850Y-106954844D01*
X148052434Y-106559776D01*
X148174188Y-106265836D01*
X148206583Y-106187627D01*
X148430373Y-105852702D01*
X148715202Y-105567873D01*
X149050127Y-105344083D01*
X149204276Y-105280233D01*
X149422276Y-105189934D01*
X149817344Y-105111350D01*
X150220156Y-105111350D01*
X150615224Y-105189934D01*
X150615224Y-105189934D01*
G37*
G36*
X112506354Y-106265835D02*
G01*
X112674876Y-106335639D01*
X112826541Y-106436978D01*
X112955522Y-106565959D01*
X113056861Y-106717624D01*
X113126665Y-106886146D01*
X113162250Y-107065047D01*
X113162250Y-107247453D01*
X113126665Y-107426354D01*
X113056861Y-107594876D01*
X112955522Y-107746541D01*
X112826541Y-107875522D01*
X112674876Y-107976861D01*
X112506354Y-108046665D01*
X112327453Y-108082250D01*
X112145047Y-108082250D01*
X111966146Y-108046665D01*
X111797624Y-107976861D01*
X111645959Y-107875522D01*
X111516978Y-107746541D01*
X111415639Y-107594876D01*
X111345835Y-107426354D01*
X111310250Y-107247453D01*
X111310250Y-107065047D01*
X111345835Y-106886146D01*
X111415639Y-106717624D01*
X111516978Y-106565959D01*
X111645959Y-106436978D01*
X111797624Y-106335639D01*
X111966146Y-106265835D01*
X112145047Y-106230250D01*
X112327453Y-106230250D01*
X112506354Y-106265835D01*
X112506354Y-106265835D01*
G37*
G36*
X93456354Y-106265835D02*
G01*
X93624876Y-106335639D01*
X93776541Y-106436978D01*
X93905522Y-106565959D01*
X94006861Y-106717624D01*
X94076665Y-106886146D01*
X94112250Y-107065047D01*
X94112250Y-107247453D01*
X94076665Y-107426354D01*
X94006861Y-107594876D01*
X93905522Y-107746541D01*
X93776541Y-107875522D01*
X93624876Y-107976861D01*
X93456354Y-108046665D01*
X93277453Y-108082250D01*
X93095047Y-108082250D01*
X92916146Y-108046665D01*
X92747624Y-107976861D01*
X92595959Y-107875522D01*
X92466978Y-107746541D01*
X92365639Y-107594876D01*
X92295835Y-107426354D01*
X92260250Y-107247453D01*
X92260250Y-107065047D01*
X92295835Y-106886146D01*
X92365639Y-106717624D01*
X92466978Y-106565959D01*
X92595959Y-106436978D01*
X92747624Y-106335639D01*
X92916146Y-106265835D01*
X93095047Y-106230250D01*
X93277453Y-106230250D01*
X93456354Y-106265835D01*
X93456354Y-106265835D01*
G37*
G36*
X83296354Y-106265835D02*
G01*
X83464876Y-106335639D01*
X83616541Y-106436978D01*
X83745522Y-106565959D01*
X83846861Y-106717624D01*
X83916665Y-106886146D01*
X83952250Y-107065047D01*
X83952250Y-107247453D01*
X83916665Y-107426354D01*
X83846861Y-107594876D01*
X83745522Y-107746541D01*
X83616541Y-107875522D01*
X83464876Y-107976861D01*
X83296354Y-108046665D01*
X83117453Y-108082250D01*
X82935047Y-108082250D01*
X82756146Y-108046665D01*
X82587624Y-107976861D01*
X82435959Y-107875522D01*
X82306978Y-107746541D01*
X82205639Y-107594876D01*
X82135835Y-107426354D01*
X82100250Y-107247453D01*
X82100250Y-107065047D01*
X82135835Y-106886146D01*
X82205639Y-106717624D01*
X82306978Y-106565959D01*
X82435959Y-106436978D01*
X82587624Y-106335639D01*
X82756146Y-106265835D01*
X82935047Y-106230250D01*
X83117453Y-106230250D01*
X83296354Y-106265835D01*
X83296354Y-106265835D01*
G37*
G36*
X102346354Y-106265835D02*
G01*
X102514876Y-106335639D01*
X102666541Y-106436978D01*
X102795522Y-106565959D01*
X102896861Y-106717624D01*
X102966665Y-106886146D01*
X103002250Y-107065047D01*
X103002250Y-107247453D01*
X102966665Y-107426354D01*
X102896861Y-107594876D01*
X102795522Y-107746541D01*
X102666541Y-107875522D01*
X102514876Y-107976861D01*
X102346354Y-108046665D01*
X102167453Y-108082250D01*
X101985047Y-108082250D01*
X101806146Y-108046665D01*
X101637624Y-107976861D01*
X101485959Y-107875522D01*
X101356978Y-107746541D01*
X101255639Y-107594876D01*
X101185835Y-107426354D01*
X101150250Y-107247453D01*
X101150250Y-107065047D01*
X101185835Y-106886146D01*
X101255639Y-106717624D01*
X101356978Y-106565959D01*
X101485959Y-106436978D01*
X101637624Y-106335639D01*
X101806146Y-106265835D01*
X101985047Y-106230250D01*
X102167453Y-106230250D01*
X102346354Y-106265835D01*
X102346354Y-106265835D01*
G37*
G36*
X131556354Y-106265835D02*
G01*
X131724876Y-106335639D01*
X131876541Y-106436978D01*
X132005522Y-106565959D01*
X132106861Y-106717624D01*
X132176665Y-106886146D01*
X132212250Y-107065047D01*
X132212250Y-107247453D01*
X132176665Y-107426354D01*
X132106861Y-107594876D01*
X132005522Y-107746541D01*
X131876541Y-107875522D01*
X131724876Y-107976861D01*
X131556354Y-108046665D01*
X131377453Y-108082250D01*
X131195047Y-108082250D01*
X131016146Y-108046665D01*
X130847624Y-107976861D01*
X130695959Y-107875522D01*
X130566978Y-107746541D01*
X130465639Y-107594876D01*
X130395835Y-107426354D01*
X130360250Y-107247453D01*
X130360250Y-107065047D01*
X130395835Y-106886146D01*
X130465639Y-106717624D01*
X130566978Y-106565959D01*
X130695959Y-106436978D01*
X130847624Y-106335639D01*
X131016146Y-106265835D01*
X131195047Y-106230250D01*
X131377453Y-106230250D01*
X131556354Y-106265835D01*
X131556354Y-106265835D01*
G37*
G36*
X121396354Y-106265835D02*
G01*
X121564876Y-106335639D01*
X121716541Y-106436978D01*
X121845522Y-106565959D01*
X121946861Y-106717624D01*
X122016665Y-106886146D01*
X122052250Y-107065047D01*
X122052250Y-107247453D01*
X122016665Y-107426354D01*
X121946861Y-107594876D01*
X121845522Y-107746541D01*
X121716541Y-107875522D01*
X121564876Y-107976861D01*
X121396354Y-108046665D01*
X121217453Y-108082250D01*
X121035047Y-108082250D01*
X120856146Y-108046665D01*
X120687624Y-107976861D01*
X120535959Y-107875522D01*
X120406978Y-107746541D01*
X120305639Y-107594876D01*
X120235835Y-107426354D01*
X120200250Y-107247453D01*
X120200250Y-107065047D01*
X120235835Y-106886146D01*
X120305639Y-106717624D01*
X120406978Y-106565959D01*
X120535959Y-106436978D01*
X120687624Y-106335639D01*
X120856146Y-106265835D01*
X121035047Y-106230250D01*
X121217453Y-106230250D01*
X121396354Y-106265835D01*
X121396354Y-106265835D01*
G37*
G36*
X155368854Y-106265835D02*
G01*
X155537376Y-106335639D01*
X155689041Y-106436978D01*
X155818022Y-106565959D01*
X155919361Y-106717624D01*
X155989165Y-106886146D01*
X156024750Y-107065047D01*
X156024750Y-107247453D01*
X155989165Y-107426354D01*
X155919361Y-107594876D01*
X155818022Y-107746541D01*
X155689041Y-107875522D01*
X155537376Y-107976861D01*
X155368854Y-108046665D01*
X155189953Y-108082250D01*
X155007547Y-108082250D01*
X154828646Y-108046665D01*
X154660124Y-107976861D01*
X154508459Y-107875522D01*
X154379478Y-107746541D01*
X154278139Y-107594876D01*
X154208335Y-107426354D01*
X154172750Y-107247453D01*
X154172750Y-107065047D01*
X154208335Y-106886146D01*
X154278139Y-106717624D01*
X154379478Y-106565959D01*
X154508459Y-106436978D01*
X154660124Y-106335639D01*
X154828646Y-106265835D01*
X155007547Y-106230250D01*
X155189953Y-106230250D01*
X155368854Y-106265835D01*
X155368854Y-106265835D01*
G37*
G36*
X145208854Y-106265835D02*
G01*
X145377376Y-106335639D01*
X145529041Y-106436978D01*
X145658022Y-106565959D01*
X145759361Y-106717624D01*
X145829165Y-106886146D01*
X145864750Y-107065047D01*
X145864750Y-107247453D01*
X145829165Y-107426354D01*
X145759361Y-107594876D01*
X145658022Y-107746541D01*
X145529041Y-107875522D01*
X145377376Y-107976861D01*
X145208854Y-108046665D01*
X145029953Y-108082250D01*
X144847547Y-108082250D01*
X144668646Y-108046665D01*
X144500124Y-107976861D01*
X144348459Y-107875522D01*
X144219478Y-107746541D01*
X144118139Y-107594876D01*
X144048335Y-107426354D01*
X144012750Y-107247453D01*
X144012750Y-107065047D01*
X144048335Y-106886146D01*
X144118139Y-106717624D01*
X144219478Y-106565959D01*
X144348459Y-106436978D01*
X144500124Y-106335639D01*
X144668646Y-106265835D01*
X144847547Y-106230250D01*
X145029953Y-106230250D01*
X145208854Y-106265835D01*
X145208854Y-106265835D01*
G37*
G36*
X179181354Y-106265835D02*
G01*
X179349876Y-106335639D01*
X179501541Y-106436978D01*
X179630522Y-106565959D01*
X179731861Y-106717624D01*
X179801665Y-106886146D01*
X179837250Y-107065047D01*
X179837250Y-107247453D01*
X179801665Y-107426354D01*
X179731861Y-107594876D01*
X179630522Y-107746541D01*
X179501541Y-107875522D01*
X179349876Y-107976861D01*
X179181354Y-108046665D01*
X179002453Y-108082250D01*
X178820047Y-108082250D01*
X178641146Y-108046665D01*
X178472624Y-107976861D01*
X178320959Y-107875522D01*
X178191978Y-107746541D01*
X178090639Y-107594876D01*
X178020835Y-107426354D01*
X177985250Y-107247453D01*
X177985250Y-107065047D01*
X178020835Y-106886146D01*
X178090639Y-106717624D01*
X178191978Y-106565959D01*
X178320959Y-106436978D01*
X178472624Y-106335639D01*
X178641146Y-106265835D01*
X178820047Y-106230250D01*
X179002453Y-106230250D01*
X179181354Y-106265835D01*
X179181354Y-106265835D01*
G37*
G36*
X198231354Y-106265835D02*
G01*
X198399876Y-106335639D01*
X198551541Y-106436978D01*
X198680522Y-106565959D01*
X198781861Y-106717624D01*
X198851665Y-106886146D01*
X198887250Y-107065047D01*
X198887250Y-107247453D01*
X198851665Y-107426354D01*
X198781861Y-107594876D01*
X198680522Y-107746541D01*
X198551541Y-107875522D01*
X198399876Y-107976861D01*
X198231354Y-108046665D01*
X198052453Y-108082250D01*
X197870047Y-108082250D01*
X197691146Y-108046665D01*
X197522624Y-107976861D01*
X197370959Y-107875522D01*
X197241978Y-107746541D01*
X197140639Y-107594876D01*
X197070835Y-107426354D01*
X197035250Y-107247453D01*
X197035250Y-107065047D01*
X197070835Y-106886146D01*
X197140639Y-106717624D01*
X197241978Y-106565959D01*
X197370959Y-106436978D01*
X197522624Y-106335639D01*
X197691146Y-106265835D01*
X197870047Y-106230250D01*
X198052453Y-106230250D01*
X198231354Y-106265835D01*
X198231354Y-106265835D01*
G37*
G36*
X169021354Y-106265835D02*
G01*
X169189876Y-106335639D01*
X169341541Y-106436978D01*
X169470522Y-106565959D01*
X169571861Y-106717624D01*
X169641665Y-106886146D01*
X169677250Y-107065047D01*
X169677250Y-107247453D01*
X169641665Y-107426354D01*
X169571861Y-107594876D01*
X169470522Y-107746541D01*
X169341541Y-107875522D01*
X169189876Y-107976861D01*
X169021354Y-108046665D01*
X168842453Y-108082250D01*
X168660047Y-108082250D01*
X168481146Y-108046665D01*
X168312624Y-107976861D01*
X168160959Y-107875522D01*
X168031978Y-107746541D01*
X167930639Y-107594876D01*
X167860835Y-107426354D01*
X167825250Y-107247453D01*
X167825250Y-107065047D01*
X167860835Y-106886146D01*
X167930639Y-106717624D01*
X168031978Y-106565959D01*
X168160959Y-106436978D01*
X168312624Y-106335639D01*
X168481146Y-106265835D01*
X168660047Y-106230250D01*
X168842453Y-106230250D01*
X169021354Y-106265835D01*
X169021354Y-106265835D01*
G37*
G36*
X74406354Y-106265835D02*
G01*
X74574876Y-106335639D01*
X74726541Y-106436978D01*
X74855522Y-106565959D01*
X74956861Y-106717624D01*
X75026665Y-106886146D01*
X75062250Y-107065047D01*
X75062250Y-107247453D01*
X75026665Y-107426354D01*
X74956861Y-107594876D01*
X74855522Y-107746541D01*
X74726541Y-107875522D01*
X74574876Y-107976861D01*
X74406354Y-108046665D01*
X74227453Y-108082250D01*
X74045047Y-108082250D01*
X73866146Y-108046665D01*
X73697624Y-107976861D01*
X73545959Y-107875522D01*
X73416978Y-107746541D01*
X73315639Y-107594876D01*
X73245835Y-107426354D01*
X73210250Y-107247453D01*
X73210250Y-107065047D01*
X73245835Y-106886146D01*
X73315639Y-106717624D01*
X73416978Y-106565959D01*
X73545959Y-106436978D01*
X73697624Y-106335639D01*
X73866146Y-106265835D01*
X74045047Y-106230250D01*
X74227453Y-106230250D01*
X74406354Y-106265835D01*
X74406354Y-106265835D01*
G37*
G36*
X64246354Y-106265835D02*
G01*
X64414876Y-106335639D01*
X64566541Y-106436978D01*
X64695522Y-106565959D01*
X64796861Y-106717624D01*
X64866665Y-106886146D01*
X64902250Y-107065047D01*
X64902250Y-107247453D01*
X64866665Y-107426354D01*
X64796861Y-107594876D01*
X64695522Y-107746541D01*
X64566541Y-107875522D01*
X64414876Y-107976861D01*
X64246354Y-108046665D01*
X64067453Y-108082250D01*
X63885047Y-108082250D01*
X63706146Y-108046665D01*
X63537624Y-107976861D01*
X63385959Y-107875522D01*
X63256978Y-107746541D01*
X63155639Y-107594876D01*
X63085835Y-107426354D01*
X63050250Y-107247453D01*
X63050250Y-107065047D01*
X63085835Y-106886146D01*
X63155639Y-106717624D01*
X63256978Y-106565959D01*
X63385959Y-106436978D01*
X63537624Y-106335639D01*
X63706146Y-106265835D01*
X63885047Y-106230250D01*
X64067453Y-106230250D01*
X64246354Y-106265835D01*
X64246354Y-106265835D01*
G37*
G36*
X226171354Y-106265835D02*
G01*
X226339876Y-106335639D01*
X226491541Y-106436978D01*
X226620522Y-106565959D01*
X226721861Y-106717624D01*
X226791665Y-106886146D01*
X226827250Y-107065047D01*
X226827250Y-107247453D01*
X226791665Y-107426354D01*
X226721861Y-107594876D01*
X226620522Y-107746541D01*
X226491541Y-107875522D01*
X226339876Y-107976861D01*
X226171354Y-108046665D01*
X225992453Y-108082250D01*
X225810047Y-108082250D01*
X225631146Y-108046665D01*
X225462624Y-107976861D01*
X225310959Y-107875522D01*
X225181978Y-107746541D01*
X225080639Y-107594876D01*
X225010835Y-107426354D01*
X224975250Y-107247453D01*
X224975250Y-107065047D01*
X225010835Y-106886146D01*
X225080639Y-106717624D01*
X225181978Y-106565959D01*
X225310959Y-106436978D01*
X225462624Y-106335639D01*
X225631146Y-106265835D01*
X225810047Y-106230250D01*
X225992453Y-106230250D01*
X226171354Y-106265835D01*
X226171354Y-106265835D01*
G37*
G36*
X236331354Y-106265835D02*
G01*
X236499876Y-106335639D01*
X236651541Y-106436978D01*
X236780522Y-106565959D01*
X236881861Y-106717624D01*
X236951665Y-106886146D01*
X236987250Y-107065047D01*
X236987250Y-107247453D01*
X236951665Y-107426354D01*
X236881861Y-107594876D01*
X236780522Y-107746541D01*
X236651541Y-107875522D01*
X236499876Y-107976861D01*
X236331354Y-108046665D01*
X236152453Y-108082250D01*
X235970047Y-108082250D01*
X235791146Y-108046665D01*
X235622624Y-107976861D01*
X235470959Y-107875522D01*
X235341978Y-107746541D01*
X235240639Y-107594876D01*
X235170835Y-107426354D01*
X235135250Y-107247453D01*
X235135250Y-107065047D01*
X235170835Y-106886146D01*
X235240639Y-106717624D01*
X235341978Y-106565959D01*
X235470959Y-106436978D01*
X235622624Y-106335639D01*
X235791146Y-106265835D01*
X235970047Y-106230250D01*
X236152453Y-106230250D01*
X236331354Y-106265835D01*
X236331354Y-106265835D01*
G37*
G36*
X207121354Y-106265835D02*
G01*
X207289876Y-106335639D01*
X207441541Y-106436978D01*
X207570522Y-106565959D01*
X207671861Y-106717624D01*
X207741665Y-106886146D01*
X207777250Y-107065047D01*
X207777250Y-107247453D01*
X207741665Y-107426354D01*
X207671861Y-107594876D01*
X207570522Y-107746541D01*
X207441541Y-107875522D01*
X207289876Y-107976861D01*
X207121354Y-108046665D01*
X206942453Y-108082250D01*
X206760047Y-108082250D01*
X206581146Y-108046665D01*
X206412624Y-107976861D01*
X206260959Y-107875522D01*
X206131978Y-107746541D01*
X206030639Y-107594876D01*
X205960835Y-107426354D01*
X205925250Y-107247453D01*
X205925250Y-107065047D01*
X205960835Y-106886146D01*
X206030639Y-106717624D01*
X206131978Y-106565959D01*
X206260959Y-106436978D01*
X206412624Y-106335639D01*
X206581146Y-106265835D01*
X206760047Y-106230250D01*
X206942453Y-106230250D01*
X207121354Y-106265835D01*
X207121354Y-106265835D01*
G37*
G36*
X217281354Y-106265835D02*
G01*
X217449876Y-106335639D01*
X217601541Y-106436978D01*
X217730522Y-106565959D01*
X217831861Y-106717624D01*
X217901665Y-106886146D01*
X217937250Y-107065047D01*
X217937250Y-107247453D01*
X217901665Y-107426354D01*
X217831861Y-107594876D01*
X217730522Y-107746541D01*
X217601541Y-107875522D01*
X217449876Y-107976861D01*
X217281354Y-108046665D01*
X217102453Y-108082250D01*
X216920047Y-108082250D01*
X216741146Y-108046665D01*
X216572624Y-107976861D01*
X216420959Y-107875522D01*
X216291978Y-107746541D01*
X216190639Y-107594876D01*
X216120835Y-107426354D01*
X216085250Y-107247453D01*
X216085250Y-107065047D01*
X216120835Y-106886146D01*
X216190639Y-106717624D01*
X216291978Y-106565959D01*
X216420959Y-106436978D01*
X216572624Y-106335639D01*
X216741146Y-106265835D01*
X216920047Y-106230250D01*
X217102453Y-106230250D01*
X217281354Y-106265835D01*
X217281354Y-106265835D01*
G37*
G36*
X188071354Y-106265835D02*
G01*
X188239876Y-106335639D01*
X188391541Y-106436978D01*
X188520522Y-106565959D01*
X188621861Y-106717624D01*
X188691665Y-106886146D01*
X188727250Y-107065047D01*
X188727250Y-107247453D01*
X188691665Y-107426354D01*
X188621861Y-107594876D01*
X188520522Y-107746541D01*
X188391541Y-107875522D01*
X188239876Y-107976861D01*
X188071354Y-108046665D01*
X187892453Y-108082250D01*
X187710047Y-108082250D01*
X187531146Y-108046665D01*
X187362624Y-107976861D01*
X187210959Y-107875522D01*
X187081978Y-107746541D01*
X186980639Y-107594876D01*
X186910835Y-107426354D01*
X186875250Y-107247453D01*
X186875250Y-107065047D01*
X186910835Y-106886146D01*
X186980639Y-106717624D01*
X187081978Y-106565959D01*
X187210959Y-106436978D01*
X187362624Y-106335639D01*
X187531146Y-106265835D01*
X187710047Y-106230250D01*
X187892453Y-106230250D01*
X188071354Y-106265835D01*
X188071354Y-106265835D01*
G37*
G36*
X31552724Y-90902434D02*
G01*
X31770724Y-90992733D01*
X31924873Y-91056583D01*
X32259798Y-91280373D01*
X32544627Y-91565202D01*
X32768417Y-91900127D01*
X32800812Y-91978336D01*
X32922566Y-92272276D01*
X33001150Y-92667344D01*
X33001150Y-93070156D01*
X32922566Y-93465224D01*
X32871701Y-93588022D01*
X32768417Y-93837373D01*
X32544627Y-94172298D01*
X32259798Y-94457127D01*
X31924873Y-94680917D01*
X31770724Y-94744767D01*
X31552724Y-94835066D01*
X31157656Y-94913650D01*
X30754844Y-94913650D01*
X30359776Y-94835066D01*
X30141776Y-94744767D01*
X29987627Y-94680917D01*
X29652702Y-94457127D01*
X29367873Y-94172298D01*
X29144083Y-93837373D01*
X29040799Y-93588022D01*
X28989934Y-93465224D01*
X28911350Y-93070156D01*
X28911350Y-92667344D01*
X28989934Y-92272276D01*
X29111688Y-91978336D01*
X29144083Y-91900127D01*
X29367873Y-91565202D01*
X29652702Y-91280373D01*
X29987627Y-91056583D01*
X30141776Y-90992733D01*
X30359776Y-90902434D01*
X30754844Y-90823850D01*
X31157656Y-90823850D01*
X31552724Y-90902434D01*
X31552724Y-90902434D01*
G37*
G36*
X50602724Y-90902434D02*
G01*
X50820724Y-90992733D01*
X50974873Y-91056583D01*
X51309798Y-91280373D01*
X51594627Y-91565202D01*
X51818417Y-91900127D01*
X51850812Y-91978336D01*
X51972566Y-92272276D01*
X52051150Y-92667344D01*
X52051150Y-93070156D01*
X51972566Y-93465224D01*
X51921701Y-93588022D01*
X51818417Y-93837373D01*
X51594627Y-94172298D01*
X51309798Y-94457127D01*
X50974873Y-94680917D01*
X50820724Y-94744767D01*
X50602724Y-94835066D01*
X50207656Y-94913650D01*
X49804844Y-94913650D01*
X49409776Y-94835066D01*
X49191776Y-94744767D01*
X49037627Y-94680917D01*
X48702702Y-94457127D01*
X48417873Y-94172298D01*
X48194083Y-93837373D01*
X48090799Y-93588022D01*
X48039934Y-93465224D01*
X47961350Y-93070156D01*
X47961350Y-92667344D01*
X48039934Y-92272276D01*
X48161688Y-91978336D01*
X48194083Y-91900127D01*
X48417873Y-91565202D01*
X48702702Y-91280373D01*
X49037627Y-91056583D01*
X49191776Y-90992733D01*
X49409776Y-90902434D01*
X49804844Y-90823850D01*
X50207656Y-90823850D01*
X50602724Y-90902434D01*
X50602724Y-90902434D01*
G37*
G36*
X269677724Y-90902434D02*
G01*
X269895724Y-90992733D01*
X270049873Y-91056583D01*
X270384798Y-91280373D01*
X270669627Y-91565202D01*
X270893417Y-91900127D01*
X270925812Y-91978336D01*
X271047566Y-92272276D01*
X271126150Y-92667344D01*
X271126150Y-93070156D01*
X271047566Y-93465224D01*
X270996701Y-93588022D01*
X270893417Y-93837373D01*
X270669627Y-94172298D01*
X270384798Y-94457127D01*
X270049873Y-94680917D01*
X269895724Y-94744767D01*
X269677724Y-94835066D01*
X269282656Y-94913650D01*
X268879844Y-94913650D01*
X268484776Y-94835066D01*
X268266776Y-94744767D01*
X268112627Y-94680917D01*
X267777702Y-94457127D01*
X267492873Y-94172298D01*
X267269083Y-93837373D01*
X267165799Y-93588022D01*
X267114934Y-93465224D01*
X267036350Y-93070156D01*
X267036350Y-92667344D01*
X267114934Y-92272276D01*
X267236688Y-91978336D01*
X267269083Y-91900127D01*
X267492873Y-91565202D01*
X267777702Y-91280373D01*
X268112627Y-91056583D01*
X268266776Y-90992733D01*
X268484776Y-90902434D01*
X268879844Y-90823850D01*
X269282656Y-90823850D01*
X269677724Y-90902434D01*
X269677724Y-90902434D01*
G37*
G36*
X250627724Y-90902434D02*
G01*
X250845724Y-90992733D01*
X250999873Y-91056583D01*
X251334798Y-91280373D01*
X251619627Y-91565202D01*
X251843417Y-91900127D01*
X251875812Y-91978336D01*
X251997566Y-92272276D01*
X252076150Y-92667344D01*
X252076150Y-93070156D01*
X251997566Y-93465224D01*
X251946701Y-93588022D01*
X251843417Y-93837373D01*
X251619627Y-94172298D01*
X251334798Y-94457127D01*
X250999873Y-94680917D01*
X250845724Y-94744767D01*
X250627724Y-94835066D01*
X250232656Y-94913650D01*
X249829844Y-94913650D01*
X249434776Y-94835066D01*
X249216776Y-94744767D01*
X249062627Y-94680917D01*
X248727702Y-94457127D01*
X248442873Y-94172298D01*
X248219083Y-93837373D01*
X248115799Y-93588022D01*
X248064934Y-93465224D01*
X247986350Y-93070156D01*
X247986350Y-92667344D01*
X248064934Y-92272276D01*
X248186688Y-91978336D01*
X248219083Y-91900127D01*
X248442873Y-91565202D01*
X248727702Y-91280373D01*
X249062627Y-91056583D01*
X249216776Y-90992733D01*
X249434776Y-90902434D01*
X249829844Y-90823850D01*
X250232656Y-90823850D01*
X250627724Y-90902434D01*
X250627724Y-90902434D01*
G37*
G36*
X255381354Y-91978335D02*
G01*
X255549876Y-92048139D01*
X255701541Y-92149478D01*
X255830522Y-92278459D01*
X255931861Y-92430124D01*
X256001665Y-92598646D01*
X256037250Y-92777547D01*
X256037250Y-92959953D01*
X256001665Y-93138854D01*
X255931861Y-93307376D01*
X255830522Y-93459041D01*
X255701541Y-93588022D01*
X255549876Y-93689361D01*
X255381354Y-93759165D01*
X255202453Y-93794750D01*
X255020047Y-93794750D01*
X254841146Y-93759165D01*
X254672624Y-93689361D01*
X254520959Y-93588022D01*
X254391978Y-93459041D01*
X254290639Y-93307376D01*
X254220835Y-93138854D01*
X254185250Y-92959953D01*
X254185250Y-92777547D01*
X254220835Y-92598646D01*
X254290639Y-92430124D01*
X254391978Y-92278459D01*
X254520959Y-92149478D01*
X254672624Y-92048139D01*
X254841146Y-91978335D01*
X255020047Y-91942750D01*
X255202453Y-91942750D01*
X255381354Y-91978335D01*
X255381354Y-91978335D01*
G37*
G36*
X36306354Y-91978335D02*
G01*
X36474876Y-92048139D01*
X36626541Y-92149478D01*
X36755522Y-92278459D01*
X36856861Y-92430124D01*
X36926665Y-92598646D01*
X36962250Y-92777547D01*
X36962250Y-92959953D01*
X36926665Y-93138854D01*
X36856861Y-93307376D01*
X36755522Y-93459041D01*
X36626541Y-93588022D01*
X36474876Y-93689361D01*
X36306354Y-93759165D01*
X36127453Y-93794750D01*
X35945047Y-93794750D01*
X35766146Y-93759165D01*
X35597624Y-93689361D01*
X35445959Y-93588022D01*
X35316978Y-93459041D01*
X35215639Y-93307376D01*
X35145835Y-93138854D01*
X35110250Y-92959953D01*
X35110250Y-92777547D01*
X35145835Y-92598646D01*
X35215639Y-92430124D01*
X35316978Y-92278459D01*
X35445959Y-92149478D01*
X35597624Y-92048139D01*
X35766146Y-91978335D01*
X35945047Y-91942750D01*
X36127453Y-91942750D01*
X36306354Y-91978335D01*
X36306354Y-91978335D01*
G37*
G36*
X55356354Y-91978335D02*
G01*
X55524876Y-92048139D01*
X55676541Y-92149478D01*
X55805522Y-92278459D01*
X55906861Y-92430124D01*
X55976665Y-92598646D01*
X56012250Y-92777547D01*
X56012250Y-92959953D01*
X55976665Y-93138854D01*
X55906861Y-93307376D01*
X55805522Y-93459041D01*
X55676541Y-93588022D01*
X55524876Y-93689361D01*
X55356354Y-93759165D01*
X55177453Y-93794750D01*
X54995047Y-93794750D01*
X54816146Y-93759165D01*
X54647624Y-93689361D01*
X54495959Y-93588022D01*
X54366978Y-93459041D01*
X54265639Y-93307376D01*
X54195835Y-93138854D01*
X54160250Y-92959953D01*
X54160250Y-92777547D01*
X54195835Y-92598646D01*
X54265639Y-92430124D01*
X54366978Y-92278459D01*
X54495959Y-92149478D01*
X54647624Y-92048139D01*
X54816146Y-91978335D01*
X54995047Y-91942750D01*
X55177453Y-91942750D01*
X55356354Y-91978335D01*
X55356354Y-91978335D01*
G37*
G36*
X45196354Y-91978335D02*
G01*
X45364876Y-92048139D01*
X45516541Y-92149478D01*
X45645522Y-92278459D01*
X45746861Y-92430124D01*
X45816665Y-92598646D01*
X45852250Y-92777547D01*
X45852250Y-92959953D01*
X45816665Y-93138854D01*
X45746861Y-93307376D01*
X45645522Y-93459041D01*
X45516541Y-93588022D01*
X45364876Y-93689361D01*
X45196354Y-93759165D01*
X45017453Y-93794750D01*
X44835047Y-93794750D01*
X44656146Y-93759165D01*
X44487624Y-93689361D01*
X44335959Y-93588022D01*
X44206978Y-93459041D01*
X44105639Y-93307376D01*
X44035835Y-93138854D01*
X44000250Y-92959953D01*
X44000250Y-92777547D01*
X44035835Y-92598646D01*
X44105639Y-92430124D01*
X44206978Y-92278459D01*
X44335959Y-92149478D01*
X44487624Y-92048139D01*
X44656146Y-91978335D01*
X44835047Y-91942750D01*
X45017453Y-91942750D01*
X45196354Y-91978335D01*
X45196354Y-91978335D01*
G37*
G36*
X26146354Y-91978335D02*
G01*
X26314876Y-92048139D01*
X26466541Y-92149478D01*
X26595522Y-92278459D01*
X26696861Y-92430124D01*
X26766665Y-92598646D01*
X26802250Y-92777547D01*
X26802250Y-92959953D01*
X26766665Y-93138854D01*
X26696861Y-93307376D01*
X26595522Y-93459041D01*
X26466541Y-93588022D01*
X26314876Y-93689361D01*
X26146354Y-93759165D01*
X25967453Y-93794750D01*
X25785047Y-93794750D01*
X25606146Y-93759165D01*
X25437624Y-93689361D01*
X25285959Y-93588022D01*
X25156978Y-93459041D01*
X25055639Y-93307376D01*
X24985835Y-93138854D01*
X24950250Y-92959953D01*
X24950250Y-92777547D01*
X24985835Y-92598646D01*
X25055639Y-92430124D01*
X25156978Y-92278459D01*
X25285959Y-92149478D01*
X25437624Y-92048139D01*
X25606146Y-91978335D01*
X25785047Y-91942750D01*
X25967453Y-91942750D01*
X26146354Y-91978335D01*
X26146354Y-91978335D01*
G37*
G36*
X264271354Y-91978335D02*
G01*
X264439876Y-92048139D01*
X264591541Y-92149478D01*
X264720522Y-92278459D01*
X264821861Y-92430124D01*
X264891665Y-92598646D01*
X264927250Y-92777547D01*
X264927250Y-92959953D01*
X264891665Y-93138854D01*
X264821861Y-93307376D01*
X264720522Y-93459041D01*
X264591541Y-93588022D01*
X264439876Y-93689361D01*
X264271354Y-93759165D01*
X264092453Y-93794750D01*
X263910047Y-93794750D01*
X263731146Y-93759165D01*
X263562624Y-93689361D01*
X263410959Y-93588022D01*
X263281978Y-93459041D01*
X263180639Y-93307376D01*
X263110835Y-93138854D01*
X263075250Y-92959953D01*
X263075250Y-92777547D01*
X263110835Y-92598646D01*
X263180639Y-92430124D01*
X263281978Y-92278459D01*
X263410959Y-92149478D01*
X263562624Y-92048139D01*
X263731146Y-91978335D01*
X263910047Y-91942750D01*
X264092453Y-91942750D01*
X264271354Y-91978335D01*
X264271354Y-91978335D01*
G37*
G36*
X274431354Y-91978335D02*
G01*
X274599876Y-92048139D01*
X274751541Y-92149478D01*
X274880522Y-92278459D01*
X274981861Y-92430124D01*
X275051665Y-92598646D01*
X275087250Y-92777547D01*
X275087250Y-92959953D01*
X275051665Y-93138854D01*
X274981861Y-93307376D01*
X274880522Y-93459041D01*
X274751541Y-93588022D01*
X274599876Y-93689361D01*
X274431354Y-93759165D01*
X274252453Y-93794750D01*
X274070047Y-93794750D01*
X273891146Y-93759165D01*
X273722624Y-93689361D01*
X273570959Y-93588022D01*
X273441978Y-93459041D01*
X273340639Y-93307376D01*
X273270835Y-93138854D01*
X273235250Y-92959953D01*
X273235250Y-92777547D01*
X273270835Y-92598646D01*
X273340639Y-92430124D01*
X273441978Y-92278459D01*
X273570959Y-92149478D01*
X273722624Y-92048139D01*
X273891146Y-91978335D01*
X274070047Y-91942750D01*
X274252453Y-91942750D01*
X274431354Y-91978335D01*
X274431354Y-91978335D01*
G37*
G36*
X245221354Y-91978335D02*
G01*
X245389876Y-92048139D01*
X245541541Y-92149478D01*
X245670522Y-92278459D01*
X245771861Y-92430124D01*
X245841665Y-92598646D01*
X245877250Y-92777547D01*
X245877250Y-92959953D01*
X245841665Y-93138854D01*
X245771861Y-93307376D01*
X245670522Y-93459041D01*
X245541541Y-93588022D01*
X245389876Y-93689361D01*
X245221354Y-93759165D01*
X245042453Y-93794750D01*
X244860047Y-93794750D01*
X244681146Y-93759165D01*
X244512624Y-93689361D01*
X244360959Y-93588022D01*
X244231978Y-93459041D01*
X244130639Y-93307376D01*
X244060835Y-93138854D01*
X244025250Y-92959953D01*
X244025250Y-92777547D01*
X244060835Y-92598646D01*
X244130639Y-92430124D01*
X244231978Y-92278459D01*
X244360959Y-92149478D01*
X244512624Y-92048139D01*
X244681146Y-91978335D01*
X244860047Y-91942750D01*
X245042453Y-91942750D01*
X245221354Y-91978335D01*
X245221354Y-91978335D01*
G37*
G36*
X142621992Y-90626492D02*
G01*
X142769951Y-90687779D01*
X142903105Y-90776749D01*
X143016351Y-90889995D01*
X143105321Y-91023149D01*
X143166608Y-91171108D01*
X143197850Y-91328175D01*
X143197850Y-91488325D01*
X143166608Y-91645392D01*
X143105321Y-91793351D01*
X143016351Y-91926505D01*
X142903105Y-92039751D01*
X142769951Y-92128721D01*
X142621992Y-92190008D01*
X142464925Y-92221250D01*
X142304775Y-92221250D01*
X142147708Y-92190008D01*
X141999749Y-92128721D01*
X141866595Y-92039751D01*
X141753349Y-91926505D01*
X141664379Y-91793351D01*
X141603092Y-91645392D01*
X141571850Y-91488325D01*
X141571850Y-91328175D01*
X141603092Y-91171108D01*
X141664379Y-91023149D01*
X141753349Y-90889995D01*
X141866595Y-90776749D01*
X141999749Y-90687779D01*
X142147708Y-90626492D01*
X142304775Y-90595250D01*
X142464925Y-90595250D01*
X142621992Y-90626492D01*
X142621992Y-90626492D01*
G37*
G36*
X157841992Y-90626492D02*
G01*
X157989951Y-90687779D01*
X158123105Y-90776749D01*
X158236351Y-90889995D01*
X158325321Y-91023149D01*
X158386608Y-91171108D01*
X158417850Y-91328175D01*
X158417850Y-91488325D01*
X158386608Y-91645392D01*
X158325321Y-91793351D01*
X158236351Y-91926505D01*
X158123105Y-92039751D01*
X157989951Y-92128721D01*
X157841992Y-92190008D01*
X157684925Y-92221250D01*
X157524775Y-92221250D01*
X157367708Y-92190008D01*
X157219749Y-92128721D01*
X157086595Y-92039751D01*
X156973349Y-91926505D01*
X156884379Y-91793351D01*
X156823092Y-91645392D01*
X156791850Y-91488325D01*
X156791850Y-91328175D01*
X156823092Y-91171108D01*
X156884379Y-91023149D01*
X156973349Y-90889995D01*
X157086595Y-90776749D01*
X157219749Y-90687779D01*
X157367708Y-90626492D01*
X157524775Y-90595250D01*
X157684925Y-90595250D01*
X157841992Y-90626492D01*
X157841992Y-90626492D01*
G37*
G36*
X126802724Y-86139934D02*
G01*
X127020724Y-86230233D01*
X127174873Y-86294083D01*
X127509798Y-86517873D01*
X127794627Y-86802702D01*
X128018417Y-87137627D01*
X128050812Y-87215836D01*
X128172566Y-87509776D01*
X128251150Y-87904844D01*
X128251150Y-88307656D01*
X128172566Y-88702724D01*
X128121701Y-88825522D01*
X128018417Y-89074873D01*
X127794627Y-89409798D01*
X127509798Y-89694627D01*
X127174873Y-89918417D01*
X127020724Y-89982267D01*
X126802724Y-90072566D01*
X126407656Y-90151150D01*
X126004844Y-90151150D01*
X125609776Y-90072566D01*
X125391776Y-89982267D01*
X125237627Y-89918417D01*
X124902702Y-89694627D01*
X124617873Y-89409798D01*
X124394083Y-89074873D01*
X124290799Y-88825522D01*
X124239934Y-88702724D01*
X124161350Y-88307656D01*
X124161350Y-87904844D01*
X124239934Y-87509776D01*
X124361688Y-87215836D01*
X124394083Y-87137627D01*
X124617873Y-86802702D01*
X124902702Y-86517873D01*
X125237627Y-86294083D01*
X125391776Y-86230233D01*
X125609776Y-86139934D01*
X126004844Y-86061350D01*
X126407656Y-86061350D01*
X126802724Y-86139934D01*
X126802724Y-86139934D01*
G37*
G36*
X107752724Y-86139934D02*
G01*
X107970724Y-86230233D01*
X108124873Y-86294083D01*
X108459798Y-86517873D01*
X108744627Y-86802702D01*
X108968417Y-87137627D01*
X109000812Y-87215836D01*
X109122566Y-87509776D01*
X109201150Y-87904844D01*
X109201150Y-88307656D01*
X109122566Y-88702724D01*
X109071701Y-88825522D01*
X108968417Y-89074873D01*
X108744627Y-89409798D01*
X108459798Y-89694627D01*
X108124873Y-89918417D01*
X107970724Y-89982267D01*
X107752724Y-90072566D01*
X107357656Y-90151150D01*
X106954844Y-90151150D01*
X106559776Y-90072566D01*
X106341776Y-89982267D01*
X106187627Y-89918417D01*
X105852702Y-89694627D01*
X105567873Y-89409798D01*
X105344083Y-89074873D01*
X105240799Y-88825522D01*
X105189934Y-88702724D01*
X105111350Y-88307656D01*
X105111350Y-87904844D01*
X105189934Y-87509776D01*
X105311688Y-87215836D01*
X105344083Y-87137627D01*
X105567873Y-86802702D01*
X105852702Y-86517873D01*
X106187627Y-86294083D01*
X106341776Y-86230233D01*
X106559776Y-86139934D01*
X106954844Y-86061350D01*
X107357656Y-86061350D01*
X107752724Y-86139934D01*
X107752724Y-86139934D01*
G37*
G36*
X88702724Y-86139934D02*
G01*
X88920724Y-86230233D01*
X89074873Y-86294083D01*
X89409798Y-86517873D01*
X89694627Y-86802702D01*
X89918417Y-87137627D01*
X89950812Y-87215836D01*
X90072566Y-87509776D01*
X90151150Y-87904844D01*
X90151150Y-88307656D01*
X90072566Y-88702724D01*
X90021701Y-88825522D01*
X89918417Y-89074873D01*
X89694627Y-89409798D01*
X89409798Y-89694627D01*
X89074873Y-89918417D01*
X88920724Y-89982267D01*
X88702724Y-90072566D01*
X88307656Y-90151150D01*
X87904844Y-90151150D01*
X87509776Y-90072566D01*
X87291776Y-89982267D01*
X87137627Y-89918417D01*
X86802702Y-89694627D01*
X86517873Y-89409798D01*
X86294083Y-89074873D01*
X86190799Y-88825522D01*
X86139934Y-88702724D01*
X86061350Y-88307656D01*
X86061350Y-87904844D01*
X86139934Y-87509776D01*
X86261688Y-87215836D01*
X86294083Y-87137627D01*
X86517873Y-86802702D01*
X86802702Y-86517873D01*
X87137627Y-86294083D01*
X87291776Y-86230233D01*
X87509776Y-86139934D01*
X87904844Y-86061350D01*
X88307656Y-86061350D01*
X88702724Y-86139934D01*
X88702724Y-86139934D01*
G37*
G36*
X174427724Y-86139934D02*
G01*
X174645724Y-86230233D01*
X174799873Y-86294083D01*
X175134798Y-86517873D01*
X175419627Y-86802702D01*
X175643417Y-87137627D01*
X175675812Y-87215836D01*
X175797566Y-87509776D01*
X175876150Y-87904844D01*
X175876150Y-88307656D01*
X175797566Y-88702724D01*
X175746701Y-88825522D01*
X175643417Y-89074873D01*
X175419627Y-89409798D01*
X175134798Y-89694627D01*
X174799873Y-89918417D01*
X174645724Y-89982267D01*
X174427724Y-90072566D01*
X174032656Y-90151150D01*
X173629844Y-90151150D01*
X173234776Y-90072566D01*
X173016776Y-89982267D01*
X172862627Y-89918417D01*
X172527702Y-89694627D01*
X172242873Y-89409798D01*
X172019083Y-89074873D01*
X171915799Y-88825522D01*
X171864934Y-88702724D01*
X171786350Y-88307656D01*
X171786350Y-87904844D01*
X171864934Y-87509776D01*
X171986688Y-87215836D01*
X172019083Y-87137627D01*
X172242873Y-86802702D01*
X172527702Y-86517873D01*
X172862627Y-86294083D01*
X173016776Y-86230233D01*
X173234776Y-86139934D01*
X173629844Y-86061350D01*
X174032656Y-86061350D01*
X174427724Y-86139934D01*
X174427724Y-86139934D01*
G37*
G36*
X193477724Y-86139934D02*
G01*
X193695724Y-86230233D01*
X193849873Y-86294083D01*
X194184798Y-86517873D01*
X194469627Y-86802702D01*
X194693417Y-87137627D01*
X194725812Y-87215836D01*
X194847566Y-87509776D01*
X194926150Y-87904844D01*
X194926150Y-88307656D01*
X194847566Y-88702724D01*
X194796701Y-88825522D01*
X194693417Y-89074873D01*
X194469627Y-89409798D01*
X194184798Y-89694627D01*
X193849873Y-89918417D01*
X193695724Y-89982267D01*
X193477724Y-90072566D01*
X193082656Y-90151150D01*
X192679844Y-90151150D01*
X192284776Y-90072566D01*
X192066776Y-89982267D01*
X191912627Y-89918417D01*
X191577702Y-89694627D01*
X191292873Y-89409798D01*
X191069083Y-89074873D01*
X190965799Y-88825522D01*
X190914934Y-88702724D01*
X190836350Y-88307656D01*
X190836350Y-87904844D01*
X190914934Y-87509776D01*
X191036688Y-87215836D01*
X191069083Y-87137627D01*
X191292873Y-86802702D01*
X191577702Y-86517873D01*
X191912627Y-86294083D01*
X192066776Y-86230233D01*
X192284776Y-86139934D01*
X192679844Y-86061350D01*
X193082656Y-86061350D01*
X193477724Y-86139934D01*
X193477724Y-86139934D01*
G37*
G36*
X212527724Y-86139934D02*
G01*
X212745724Y-86230233D01*
X212899873Y-86294083D01*
X213234798Y-86517873D01*
X213519627Y-86802702D01*
X213743417Y-87137627D01*
X213775812Y-87215836D01*
X213897566Y-87509776D01*
X213976150Y-87904844D01*
X213976150Y-88307656D01*
X213897566Y-88702724D01*
X213846701Y-88825522D01*
X213743417Y-89074873D01*
X213519627Y-89409798D01*
X213234798Y-89694627D01*
X212899873Y-89918417D01*
X212745724Y-89982267D01*
X212527724Y-90072566D01*
X212132656Y-90151150D01*
X211729844Y-90151150D01*
X211334776Y-90072566D01*
X211116776Y-89982267D01*
X210962627Y-89918417D01*
X210627702Y-89694627D01*
X210342873Y-89409798D01*
X210119083Y-89074873D01*
X210015799Y-88825522D01*
X209964934Y-88702724D01*
X209886350Y-88307656D01*
X209886350Y-87904844D01*
X209964934Y-87509776D01*
X210086688Y-87215836D01*
X210119083Y-87137627D01*
X210342873Y-86802702D01*
X210627702Y-86517873D01*
X210962627Y-86294083D01*
X211116776Y-86230233D01*
X211334776Y-86139934D01*
X211729844Y-86061350D01*
X212132656Y-86061350D01*
X212527724Y-86139934D01*
X212527724Y-86139934D01*
G37*
G36*
X150615224Y-86139934D02*
G01*
X150833224Y-86230233D01*
X150987373Y-86294083D01*
X151322298Y-86517873D01*
X151607127Y-86802702D01*
X151830917Y-87137627D01*
X151863312Y-87215836D01*
X151985066Y-87509776D01*
X152063650Y-87904844D01*
X152063650Y-88307656D01*
X151985066Y-88702724D01*
X151934201Y-88825522D01*
X151830917Y-89074873D01*
X151607127Y-89409798D01*
X151322298Y-89694627D01*
X150987373Y-89918417D01*
X150833224Y-89982267D01*
X150615224Y-90072566D01*
X150220156Y-90151150D01*
X149817344Y-90151150D01*
X149422276Y-90072566D01*
X149204276Y-89982267D01*
X149050127Y-89918417D01*
X148715202Y-89694627D01*
X148430373Y-89409798D01*
X148206583Y-89074873D01*
X148103299Y-88825522D01*
X148052434Y-88702724D01*
X147973850Y-88307656D01*
X147973850Y-87904844D01*
X148052434Y-87509776D01*
X148174188Y-87215836D01*
X148206583Y-87137627D01*
X148430373Y-86802702D01*
X148715202Y-86517873D01*
X149050127Y-86294083D01*
X149204276Y-86230233D01*
X149422276Y-86139934D01*
X149817344Y-86061350D01*
X150220156Y-86061350D01*
X150615224Y-86139934D01*
X150615224Y-86139934D01*
G37*
G36*
X231577724Y-86139934D02*
G01*
X231795724Y-86230233D01*
X231949873Y-86294083D01*
X232284798Y-86517873D01*
X232569627Y-86802702D01*
X232793417Y-87137627D01*
X232825812Y-87215836D01*
X232947566Y-87509776D01*
X233026150Y-87904844D01*
X233026150Y-88307656D01*
X232947566Y-88702724D01*
X232896701Y-88825522D01*
X232793417Y-89074873D01*
X232569627Y-89409798D01*
X232284798Y-89694627D01*
X231949873Y-89918417D01*
X231795724Y-89982267D01*
X231577724Y-90072566D01*
X231182656Y-90151150D01*
X230779844Y-90151150D01*
X230384776Y-90072566D01*
X230166776Y-89982267D01*
X230012627Y-89918417D01*
X229677702Y-89694627D01*
X229392873Y-89409798D01*
X229169083Y-89074873D01*
X229065799Y-88825522D01*
X229014934Y-88702724D01*
X228936350Y-88307656D01*
X228936350Y-87904844D01*
X229014934Y-87509776D01*
X229136688Y-87215836D01*
X229169083Y-87137627D01*
X229392873Y-86802702D01*
X229677702Y-86517873D01*
X230012627Y-86294083D01*
X230166776Y-86230233D01*
X230384776Y-86139934D01*
X230779844Y-86061350D01*
X231182656Y-86061350D01*
X231577724Y-86139934D01*
X231577724Y-86139934D01*
G37*
G36*
X69652724Y-86139934D02*
G01*
X69870724Y-86230233D01*
X70024873Y-86294083D01*
X70359798Y-86517873D01*
X70644627Y-86802702D01*
X70868417Y-87137627D01*
X70900812Y-87215836D01*
X71022566Y-87509776D01*
X71101150Y-87904844D01*
X71101150Y-88307656D01*
X71022566Y-88702724D01*
X70971701Y-88825522D01*
X70868417Y-89074873D01*
X70644627Y-89409798D01*
X70359798Y-89694627D01*
X70024873Y-89918417D01*
X69870724Y-89982267D01*
X69652724Y-90072566D01*
X69257656Y-90151150D01*
X68854844Y-90151150D01*
X68459776Y-90072566D01*
X68241776Y-89982267D01*
X68087627Y-89918417D01*
X67752702Y-89694627D01*
X67467873Y-89409798D01*
X67244083Y-89074873D01*
X67140799Y-88825522D01*
X67089934Y-88702724D01*
X67011350Y-88307656D01*
X67011350Y-87904844D01*
X67089934Y-87509776D01*
X67211688Y-87215836D01*
X67244083Y-87137627D01*
X67467873Y-86802702D01*
X67752702Y-86517873D01*
X68087627Y-86294083D01*
X68241776Y-86230233D01*
X68459776Y-86139934D01*
X68854844Y-86061350D01*
X69257656Y-86061350D01*
X69652724Y-86139934D01*
X69652724Y-86139934D01*
G37*
G36*
X142621992Y-88086492D02*
G01*
X142769951Y-88147779D01*
X142903105Y-88236749D01*
X143016351Y-88349995D01*
X143105321Y-88483149D01*
X143166608Y-88631108D01*
X143197850Y-88788175D01*
X143197850Y-88948325D01*
X143166608Y-89105392D01*
X143105321Y-89253351D01*
X143016351Y-89386505D01*
X142903105Y-89499751D01*
X142769951Y-89588721D01*
X142621992Y-89650008D01*
X142464925Y-89681250D01*
X142304775Y-89681250D01*
X142147708Y-89650008D01*
X141999749Y-89588721D01*
X141866595Y-89499751D01*
X141753349Y-89386505D01*
X141664379Y-89253351D01*
X141603092Y-89105392D01*
X141571850Y-88948325D01*
X141571850Y-88788175D01*
X141603092Y-88631108D01*
X141664379Y-88483149D01*
X141753349Y-88349995D01*
X141866595Y-88236749D01*
X141999749Y-88147779D01*
X142147708Y-88086492D01*
X142304775Y-88055250D01*
X142464925Y-88055250D01*
X142621992Y-88086492D01*
X142621992Y-88086492D01*
G37*
G36*
X157841992Y-88086492D02*
G01*
X157989951Y-88147779D01*
X158123105Y-88236749D01*
X158236351Y-88349995D01*
X158325321Y-88483149D01*
X158386608Y-88631108D01*
X158417850Y-88788175D01*
X158417850Y-88948325D01*
X158386608Y-89105392D01*
X158325321Y-89253351D01*
X158236351Y-89386505D01*
X158123105Y-89499751D01*
X157989951Y-89588721D01*
X157841992Y-89650008D01*
X157684925Y-89681250D01*
X157524775Y-89681250D01*
X157367708Y-89650008D01*
X157219749Y-89588721D01*
X157086595Y-89499751D01*
X156973349Y-89386505D01*
X156884379Y-89253351D01*
X156823092Y-89105392D01*
X156791850Y-88948325D01*
X156791850Y-88788175D01*
X156823092Y-88631108D01*
X156884379Y-88483149D01*
X156973349Y-88349995D01*
X157086595Y-88236749D01*
X157219749Y-88147779D01*
X157367708Y-88086492D01*
X157524775Y-88055250D01*
X157684925Y-88055250D01*
X157841992Y-88086492D01*
X157841992Y-88086492D01*
G37*
G36*
X64246354Y-87215835D02*
G01*
X64414876Y-87285639D01*
X64566541Y-87386978D01*
X64695522Y-87515959D01*
X64796861Y-87667624D01*
X64866665Y-87836146D01*
X64902250Y-88015047D01*
X64902250Y-88197453D01*
X64866665Y-88376354D01*
X64796861Y-88544876D01*
X64695522Y-88696541D01*
X64566541Y-88825522D01*
X64414876Y-88926861D01*
X64246354Y-88996665D01*
X64067453Y-89032250D01*
X63885047Y-89032250D01*
X63706146Y-88996665D01*
X63537624Y-88926861D01*
X63385959Y-88825522D01*
X63256978Y-88696541D01*
X63155639Y-88544876D01*
X63085835Y-88376354D01*
X63050250Y-88197453D01*
X63050250Y-88015047D01*
X63085835Y-87836146D01*
X63155639Y-87667624D01*
X63256978Y-87515959D01*
X63385959Y-87386978D01*
X63537624Y-87285639D01*
X63706146Y-87215835D01*
X63885047Y-87180250D01*
X64067453Y-87180250D01*
X64246354Y-87215835D01*
X64246354Y-87215835D01*
G37*
G36*
X121396354Y-87215835D02*
G01*
X121564876Y-87285639D01*
X121716541Y-87386978D01*
X121845522Y-87515959D01*
X121946861Y-87667624D01*
X122016665Y-87836146D01*
X122052250Y-88015047D01*
X122052250Y-88197453D01*
X122016665Y-88376354D01*
X121946861Y-88544876D01*
X121845522Y-88696541D01*
X121716541Y-88825522D01*
X121564876Y-88926861D01*
X121396354Y-88996665D01*
X121217453Y-89032250D01*
X121035047Y-89032250D01*
X120856146Y-88996665D01*
X120687624Y-88926861D01*
X120535959Y-88825522D01*
X120406978Y-88696541D01*
X120305639Y-88544876D01*
X120235835Y-88376354D01*
X120200250Y-88197453D01*
X120200250Y-88015047D01*
X120235835Y-87836146D01*
X120305639Y-87667624D01*
X120406978Y-87515959D01*
X120535959Y-87386978D01*
X120687624Y-87285639D01*
X120856146Y-87215835D01*
X121035047Y-87180250D01*
X121217453Y-87180250D01*
X121396354Y-87215835D01*
X121396354Y-87215835D01*
G37*
G36*
X112506354Y-87215835D02*
G01*
X112674876Y-87285639D01*
X112826541Y-87386978D01*
X112955522Y-87515959D01*
X113056861Y-87667624D01*
X113126665Y-87836146D01*
X113162250Y-88015047D01*
X113162250Y-88197453D01*
X113126665Y-88376354D01*
X113056861Y-88544876D01*
X112955522Y-88696541D01*
X112826541Y-88825522D01*
X112674876Y-88926861D01*
X112506354Y-88996665D01*
X112327453Y-89032250D01*
X112145047Y-89032250D01*
X111966146Y-88996665D01*
X111797624Y-88926861D01*
X111645959Y-88825522D01*
X111516978Y-88696541D01*
X111415639Y-88544876D01*
X111345835Y-88376354D01*
X111310250Y-88197453D01*
X111310250Y-88015047D01*
X111345835Y-87836146D01*
X111415639Y-87667624D01*
X111516978Y-87515959D01*
X111645959Y-87386978D01*
X111797624Y-87285639D01*
X111966146Y-87215835D01*
X112145047Y-87180250D01*
X112327453Y-87180250D01*
X112506354Y-87215835D01*
X112506354Y-87215835D01*
G37*
G36*
X93456354Y-87215835D02*
G01*
X93624876Y-87285639D01*
X93776541Y-87386978D01*
X93905522Y-87515959D01*
X94006861Y-87667624D01*
X94076665Y-87836146D01*
X94112250Y-88015047D01*
X94112250Y-88197453D01*
X94076665Y-88376354D01*
X94006861Y-88544876D01*
X93905522Y-88696541D01*
X93776541Y-88825522D01*
X93624876Y-88926861D01*
X93456354Y-88996665D01*
X93277453Y-89032250D01*
X93095047Y-89032250D01*
X92916146Y-88996665D01*
X92747624Y-88926861D01*
X92595959Y-88825522D01*
X92466978Y-88696541D01*
X92365639Y-88544876D01*
X92295835Y-88376354D01*
X92260250Y-88197453D01*
X92260250Y-88015047D01*
X92295835Y-87836146D01*
X92365639Y-87667624D01*
X92466978Y-87515959D01*
X92595959Y-87386978D01*
X92747624Y-87285639D01*
X92916146Y-87215835D01*
X93095047Y-87180250D01*
X93277453Y-87180250D01*
X93456354Y-87215835D01*
X93456354Y-87215835D01*
G37*
G36*
X74406354Y-87215835D02*
G01*
X74574876Y-87285639D01*
X74726541Y-87386978D01*
X74855522Y-87515959D01*
X74956861Y-87667624D01*
X75026665Y-87836146D01*
X75062250Y-88015047D01*
X75062250Y-88197453D01*
X75026665Y-88376354D01*
X74956861Y-88544876D01*
X74855522Y-88696541D01*
X74726541Y-88825522D01*
X74574876Y-88926861D01*
X74406354Y-88996665D01*
X74227453Y-89032250D01*
X74045047Y-89032250D01*
X73866146Y-88996665D01*
X73697624Y-88926861D01*
X73545959Y-88825522D01*
X73416978Y-88696541D01*
X73315639Y-88544876D01*
X73245835Y-88376354D01*
X73210250Y-88197453D01*
X73210250Y-88015047D01*
X73245835Y-87836146D01*
X73315639Y-87667624D01*
X73416978Y-87515959D01*
X73545959Y-87386978D01*
X73697624Y-87285639D01*
X73866146Y-87215835D01*
X74045047Y-87180250D01*
X74227453Y-87180250D01*
X74406354Y-87215835D01*
X74406354Y-87215835D01*
G37*
G36*
X102346354Y-87215835D02*
G01*
X102514876Y-87285639D01*
X102666541Y-87386978D01*
X102795522Y-87515959D01*
X102896861Y-87667624D01*
X102966665Y-87836146D01*
X103002250Y-88015047D01*
X103002250Y-88197453D01*
X102966665Y-88376354D01*
X102896861Y-88544876D01*
X102795522Y-88696541D01*
X102666541Y-88825522D01*
X102514876Y-88926861D01*
X102346354Y-88996665D01*
X102167453Y-89032250D01*
X101985047Y-89032250D01*
X101806146Y-88996665D01*
X101637624Y-88926861D01*
X101485959Y-88825522D01*
X101356978Y-88696541D01*
X101255639Y-88544876D01*
X101185835Y-88376354D01*
X101150250Y-88197453D01*
X101150250Y-88015047D01*
X101185835Y-87836146D01*
X101255639Y-87667624D01*
X101356978Y-87515959D01*
X101485959Y-87386978D01*
X101637624Y-87285639D01*
X101806146Y-87215835D01*
X101985047Y-87180250D01*
X102167453Y-87180250D01*
X102346354Y-87215835D01*
X102346354Y-87215835D01*
G37*
G36*
X226171354Y-87215835D02*
G01*
X226339876Y-87285639D01*
X226491541Y-87386978D01*
X226620522Y-87515959D01*
X226721861Y-87667624D01*
X226791665Y-87836146D01*
X226827250Y-88015047D01*
X226827250Y-88197453D01*
X226791665Y-88376354D01*
X226721861Y-88544876D01*
X226620522Y-88696541D01*
X226491541Y-88825522D01*
X226339876Y-88926861D01*
X226171354Y-88996665D01*
X225992453Y-89032250D01*
X225810047Y-89032250D01*
X225631146Y-88996665D01*
X225462624Y-88926861D01*
X225310959Y-88825522D01*
X225181978Y-88696541D01*
X225080639Y-88544876D01*
X225010835Y-88376354D01*
X224975250Y-88197453D01*
X224975250Y-88015047D01*
X225010835Y-87836146D01*
X225080639Y-87667624D01*
X225181978Y-87515959D01*
X225310959Y-87386978D01*
X225462624Y-87285639D01*
X225631146Y-87215835D01*
X225810047Y-87180250D01*
X225992453Y-87180250D01*
X226171354Y-87215835D01*
X226171354Y-87215835D01*
G37*
G36*
X236331354Y-87215835D02*
G01*
X236499876Y-87285639D01*
X236651541Y-87386978D01*
X236780522Y-87515959D01*
X236881861Y-87667624D01*
X236951665Y-87836146D01*
X236987250Y-88015047D01*
X236987250Y-88197453D01*
X236951665Y-88376354D01*
X236881861Y-88544876D01*
X236780522Y-88696541D01*
X236651541Y-88825522D01*
X236499876Y-88926861D01*
X236331354Y-88996665D01*
X236152453Y-89032250D01*
X235970047Y-89032250D01*
X235791146Y-88996665D01*
X235622624Y-88926861D01*
X235470959Y-88825522D01*
X235341978Y-88696541D01*
X235240639Y-88544876D01*
X235170835Y-88376354D01*
X235135250Y-88197453D01*
X235135250Y-88015047D01*
X235170835Y-87836146D01*
X235240639Y-87667624D01*
X235341978Y-87515959D01*
X235470959Y-87386978D01*
X235622624Y-87285639D01*
X235791146Y-87215835D01*
X235970047Y-87180250D01*
X236152453Y-87180250D01*
X236331354Y-87215835D01*
X236331354Y-87215835D01*
G37*
G36*
X83296354Y-87215835D02*
G01*
X83464876Y-87285639D01*
X83616541Y-87386978D01*
X83745522Y-87515959D01*
X83846861Y-87667624D01*
X83916665Y-87836146D01*
X83952250Y-88015047D01*
X83952250Y-88197453D01*
X83916665Y-88376354D01*
X83846861Y-88544876D01*
X83745522Y-88696541D01*
X83616541Y-88825522D01*
X83464876Y-88926861D01*
X83296354Y-88996665D01*
X83117453Y-89032250D01*
X82935047Y-89032250D01*
X82756146Y-88996665D01*
X82587624Y-88926861D01*
X82435959Y-88825522D01*
X82306978Y-88696541D01*
X82205639Y-88544876D01*
X82135835Y-88376354D01*
X82100250Y-88197453D01*
X82100250Y-88015047D01*
X82135835Y-87836146D01*
X82205639Y-87667624D01*
X82306978Y-87515959D01*
X82435959Y-87386978D01*
X82587624Y-87285639D01*
X82756146Y-87215835D01*
X82935047Y-87180250D01*
X83117453Y-87180250D01*
X83296354Y-87215835D01*
X83296354Y-87215835D01*
G37*
G36*
X131556354Y-87215835D02*
G01*
X131724876Y-87285639D01*
X131876541Y-87386978D01*
X132005522Y-87515959D01*
X132106861Y-87667624D01*
X132176665Y-87836146D01*
X132212250Y-88015047D01*
X132212250Y-88197453D01*
X132176665Y-88376354D01*
X132106861Y-88544876D01*
X132005522Y-88696541D01*
X131876541Y-88825522D01*
X131724876Y-88926861D01*
X131556354Y-88996665D01*
X131377453Y-89032250D01*
X131195047Y-89032250D01*
X131016146Y-88996665D01*
X130847624Y-88926861D01*
X130695959Y-88825522D01*
X130566978Y-88696541D01*
X130465639Y-88544876D01*
X130395835Y-88376354D01*
X130360250Y-88197453D01*
X130360250Y-88015047D01*
X130395835Y-87836146D01*
X130465639Y-87667624D01*
X130566978Y-87515959D01*
X130695959Y-87386978D01*
X130847624Y-87285639D01*
X131016146Y-87215835D01*
X131195047Y-87180250D01*
X131377453Y-87180250D01*
X131556354Y-87215835D01*
X131556354Y-87215835D01*
G37*
G36*
X145208854Y-87215835D02*
G01*
X145377376Y-87285639D01*
X145529041Y-87386978D01*
X145658022Y-87515959D01*
X145759361Y-87667624D01*
X145829165Y-87836146D01*
X145864750Y-88015047D01*
X145864750Y-88197453D01*
X145829165Y-88376354D01*
X145759361Y-88544876D01*
X145658022Y-88696541D01*
X145529041Y-88825522D01*
X145377376Y-88926861D01*
X145208854Y-88996665D01*
X145029953Y-89032250D01*
X144847547Y-89032250D01*
X144668646Y-88996665D01*
X144500124Y-88926861D01*
X144348459Y-88825522D01*
X144219478Y-88696541D01*
X144118139Y-88544876D01*
X144048335Y-88376354D01*
X144012750Y-88197453D01*
X144012750Y-88015047D01*
X144048335Y-87836146D01*
X144118139Y-87667624D01*
X144219478Y-87515959D01*
X144348459Y-87386978D01*
X144500124Y-87285639D01*
X144668646Y-87215835D01*
X144847547Y-87180250D01*
X145029953Y-87180250D01*
X145208854Y-87215835D01*
X145208854Y-87215835D01*
G37*
G36*
X155368854Y-87215835D02*
G01*
X155537376Y-87285639D01*
X155689041Y-87386978D01*
X155818022Y-87515959D01*
X155919361Y-87667624D01*
X155989165Y-87836146D01*
X156024750Y-88015047D01*
X156024750Y-88197453D01*
X155989165Y-88376354D01*
X155919361Y-88544876D01*
X155818022Y-88696541D01*
X155689041Y-88825522D01*
X155537376Y-88926861D01*
X155368854Y-88996665D01*
X155189953Y-89032250D01*
X155007547Y-89032250D01*
X154828646Y-88996665D01*
X154660124Y-88926861D01*
X154508459Y-88825522D01*
X154379478Y-88696541D01*
X154278139Y-88544876D01*
X154208335Y-88376354D01*
X154172750Y-88197453D01*
X154172750Y-88015047D01*
X154208335Y-87836146D01*
X154278139Y-87667624D01*
X154379478Y-87515959D01*
X154508459Y-87386978D01*
X154660124Y-87285639D01*
X154828646Y-87215835D01*
X155007547Y-87180250D01*
X155189953Y-87180250D01*
X155368854Y-87215835D01*
X155368854Y-87215835D01*
G37*
G36*
X169021354Y-87215835D02*
G01*
X169189876Y-87285639D01*
X169341541Y-87386978D01*
X169470522Y-87515959D01*
X169571861Y-87667624D01*
X169641665Y-87836146D01*
X169677250Y-88015047D01*
X169677250Y-88197453D01*
X169641665Y-88376354D01*
X169571861Y-88544876D01*
X169470522Y-88696541D01*
X169341541Y-88825522D01*
X169189876Y-88926861D01*
X169021354Y-88996665D01*
X168842453Y-89032250D01*
X168660047Y-89032250D01*
X168481146Y-88996665D01*
X168312624Y-88926861D01*
X168160959Y-88825522D01*
X168031978Y-88696541D01*
X167930639Y-88544876D01*
X167860835Y-88376354D01*
X167825250Y-88197453D01*
X167825250Y-88015047D01*
X167860835Y-87836146D01*
X167930639Y-87667624D01*
X168031978Y-87515959D01*
X168160959Y-87386978D01*
X168312624Y-87285639D01*
X168481146Y-87215835D01*
X168660047Y-87180250D01*
X168842453Y-87180250D01*
X169021354Y-87215835D01*
X169021354Y-87215835D01*
G37*
G36*
X207121354Y-87215835D02*
G01*
X207289876Y-87285639D01*
X207441541Y-87386978D01*
X207570522Y-87515959D01*
X207671861Y-87667624D01*
X207741665Y-87836146D01*
X207777250Y-88015047D01*
X207777250Y-88197453D01*
X207741665Y-88376354D01*
X207671861Y-88544876D01*
X207570522Y-88696541D01*
X207441541Y-88825522D01*
X207289876Y-88926861D01*
X207121354Y-88996665D01*
X206942453Y-89032250D01*
X206760047Y-89032250D01*
X206581146Y-88996665D01*
X206412624Y-88926861D01*
X206260959Y-88825522D01*
X206131978Y-88696541D01*
X206030639Y-88544876D01*
X205960835Y-88376354D01*
X205925250Y-88197453D01*
X205925250Y-88015047D01*
X205960835Y-87836146D01*
X206030639Y-87667624D01*
X206131978Y-87515959D01*
X206260959Y-87386978D01*
X206412624Y-87285639D01*
X206581146Y-87215835D01*
X206760047Y-87180250D01*
X206942453Y-87180250D01*
X207121354Y-87215835D01*
X207121354Y-87215835D01*
G37*
G36*
X179181354Y-87215835D02*
G01*
X179349876Y-87285639D01*
X179501541Y-87386978D01*
X179630522Y-87515959D01*
X179731861Y-87667624D01*
X179801665Y-87836146D01*
X179837250Y-88015047D01*
X179837250Y-88197453D01*
X179801665Y-88376354D01*
X179731861Y-88544876D01*
X179630522Y-88696541D01*
X179501541Y-88825522D01*
X179349876Y-88926861D01*
X179181354Y-88996665D01*
X179002453Y-89032250D01*
X178820047Y-89032250D01*
X178641146Y-88996665D01*
X178472624Y-88926861D01*
X178320959Y-88825522D01*
X178191978Y-88696541D01*
X178090639Y-88544876D01*
X178020835Y-88376354D01*
X177985250Y-88197453D01*
X177985250Y-88015047D01*
X178020835Y-87836146D01*
X178090639Y-87667624D01*
X178191978Y-87515959D01*
X178320959Y-87386978D01*
X178472624Y-87285639D01*
X178641146Y-87215835D01*
X178820047Y-87180250D01*
X179002453Y-87180250D01*
X179181354Y-87215835D01*
X179181354Y-87215835D01*
G37*
G36*
X188071354Y-87215835D02*
G01*
X188239876Y-87285639D01*
X188391541Y-87386978D01*
X188520522Y-87515959D01*
X188621861Y-87667624D01*
X188691665Y-87836146D01*
X188727250Y-88015047D01*
X188727250Y-88197453D01*
X188691665Y-88376354D01*
X188621861Y-88544876D01*
X188520522Y-88696541D01*
X188391541Y-88825522D01*
X188239876Y-88926861D01*
X188071354Y-88996665D01*
X187892453Y-89032250D01*
X187710047Y-89032250D01*
X187531146Y-88996665D01*
X187362624Y-88926861D01*
X187210959Y-88825522D01*
X187081978Y-88696541D01*
X186980639Y-88544876D01*
X186910835Y-88376354D01*
X186875250Y-88197453D01*
X186875250Y-88015047D01*
X186910835Y-87836146D01*
X186980639Y-87667624D01*
X187081978Y-87515959D01*
X187210959Y-87386978D01*
X187362624Y-87285639D01*
X187531146Y-87215835D01*
X187710047Y-87180250D01*
X187892453Y-87180250D01*
X188071354Y-87215835D01*
X188071354Y-87215835D01*
G37*
G36*
X198231354Y-87215835D02*
G01*
X198399876Y-87285639D01*
X198551541Y-87386978D01*
X198680522Y-87515959D01*
X198781861Y-87667624D01*
X198851665Y-87836146D01*
X198887250Y-88015047D01*
X198887250Y-88197453D01*
X198851665Y-88376354D01*
X198781861Y-88544876D01*
X198680522Y-88696541D01*
X198551541Y-88825522D01*
X198399876Y-88926861D01*
X198231354Y-88996665D01*
X198052453Y-89032250D01*
X197870047Y-89032250D01*
X197691146Y-88996665D01*
X197522624Y-88926861D01*
X197370959Y-88825522D01*
X197241978Y-88696541D01*
X197140639Y-88544876D01*
X197070835Y-88376354D01*
X197035250Y-88197453D01*
X197035250Y-88015047D01*
X197070835Y-87836146D01*
X197140639Y-87667624D01*
X197241978Y-87515959D01*
X197370959Y-87386978D01*
X197522624Y-87285639D01*
X197691146Y-87215835D01*
X197870047Y-87180250D01*
X198052453Y-87180250D01*
X198231354Y-87215835D01*
X198231354Y-87215835D01*
G37*
G36*
X217281354Y-87215835D02*
G01*
X217449876Y-87285639D01*
X217601541Y-87386978D01*
X217730522Y-87515959D01*
X217831861Y-87667624D01*
X217901665Y-87836146D01*
X217937250Y-88015047D01*
X217937250Y-88197453D01*
X217901665Y-88376354D01*
X217831861Y-88544876D01*
X217730522Y-88696541D01*
X217601541Y-88825522D01*
X217449876Y-88926861D01*
X217281354Y-88996665D01*
X217102453Y-89032250D01*
X216920047Y-89032250D01*
X216741146Y-88996665D01*
X216572624Y-88926861D01*
X216420959Y-88825522D01*
X216291978Y-88696541D01*
X216190639Y-88544876D01*
X216120835Y-88376354D01*
X216085250Y-88197453D01*
X216085250Y-88015047D01*
X216120835Y-87836146D01*
X216190639Y-87667624D01*
X216291978Y-87515959D01*
X216420959Y-87386978D01*
X216572624Y-87285639D01*
X216741146Y-87215835D01*
X216920047Y-87180250D01*
X217102453Y-87180250D01*
X217281354Y-87215835D01*
X217281354Y-87215835D01*
G37*
G36*
X157841992Y-85546492D02*
G01*
X157989951Y-85607779D01*
X158123105Y-85696749D01*
X158236351Y-85809995D01*
X158325321Y-85943149D01*
X158386608Y-86091108D01*
X158417850Y-86248175D01*
X158417850Y-86408325D01*
X158386608Y-86565392D01*
X158325321Y-86713351D01*
X158236351Y-86846505D01*
X158123105Y-86959751D01*
X157989951Y-87048721D01*
X157841992Y-87110008D01*
X157684925Y-87141250D01*
X157524775Y-87141250D01*
X157367708Y-87110008D01*
X157219749Y-87048721D01*
X157086595Y-86959751D01*
X156973349Y-86846505D01*
X156884379Y-86713351D01*
X156823092Y-86565392D01*
X156791850Y-86408325D01*
X156791850Y-86248175D01*
X156823092Y-86091108D01*
X156884379Y-85943149D01*
X156973349Y-85809995D01*
X157086595Y-85696749D01*
X157219749Y-85607779D01*
X157367708Y-85546492D01*
X157524775Y-85515250D01*
X157684925Y-85515250D01*
X157841992Y-85546492D01*
X157841992Y-85546492D01*
G37*
G36*
X142621992Y-85546492D02*
G01*
X142769951Y-85607779D01*
X142903105Y-85696749D01*
X143016351Y-85809995D01*
X143105321Y-85943149D01*
X143166608Y-86091108D01*
X143197850Y-86248175D01*
X143197850Y-86408325D01*
X143166608Y-86565392D01*
X143105321Y-86713351D01*
X143016351Y-86846505D01*
X142903105Y-86959751D01*
X142769951Y-87048721D01*
X142621992Y-87110008D01*
X142464925Y-87141250D01*
X142304775Y-87141250D01*
X142147708Y-87110008D01*
X141999749Y-87048721D01*
X141866595Y-86959751D01*
X141753349Y-86846505D01*
X141664379Y-86713351D01*
X141603092Y-86565392D01*
X141571850Y-86408325D01*
X141571850Y-86248175D01*
X141603092Y-86091108D01*
X141664379Y-85943149D01*
X141753349Y-85809995D01*
X141866595Y-85696749D01*
X141999749Y-85607779D01*
X142147708Y-85546492D01*
X142304775Y-85515250D01*
X142464925Y-85515250D01*
X142621992Y-85546492D01*
X142621992Y-85546492D01*
G37*
G36*
X157841992Y-83006492D02*
G01*
X157989951Y-83067779D01*
X158123105Y-83156749D01*
X158236351Y-83269995D01*
X158325321Y-83403149D01*
X158386608Y-83551108D01*
X158417850Y-83708175D01*
X158417850Y-83868325D01*
X158386608Y-84025392D01*
X158325321Y-84173351D01*
X158236351Y-84306505D01*
X158123105Y-84419751D01*
X157989951Y-84508721D01*
X157841992Y-84570008D01*
X157684925Y-84601250D01*
X157524775Y-84601250D01*
X157367708Y-84570008D01*
X157219749Y-84508721D01*
X157086595Y-84419751D01*
X156973349Y-84306505D01*
X156884379Y-84173351D01*
X156823092Y-84025392D01*
X156791850Y-83868325D01*
X156791850Y-83708175D01*
X156823092Y-83551108D01*
X156884379Y-83403149D01*
X156973349Y-83269995D01*
X157086595Y-83156749D01*
X157219749Y-83067779D01*
X157367708Y-83006492D01*
X157524775Y-82975250D01*
X157684925Y-82975250D01*
X157841992Y-83006492D01*
X157841992Y-83006492D01*
G37*
G36*
X142621992Y-83006492D02*
G01*
X142769951Y-83067779D01*
X142903105Y-83156749D01*
X143016351Y-83269995D01*
X143105321Y-83403149D01*
X143166608Y-83551108D01*
X143197850Y-83708175D01*
X143197850Y-83868325D01*
X143166608Y-84025392D01*
X143105321Y-84173351D01*
X143016351Y-84306505D01*
X142903105Y-84419751D01*
X142769951Y-84508721D01*
X142621992Y-84570008D01*
X142464925Y-84601250D01*
X142304775Y-84601250D01*
X142147708Y-84570008D01*
X141999749Y-84508721D01*
X141866595Y-84419751D01*
X141753349Y-84306505D01*
X141664379Y-84173351D01*
X141603092Y-84025392D01*
X141571850Y-83868325D01*
X141571850Y-83708175D01*
X141603092Y-83551108D01*
X141664379Y-83403149D01*
X141753349Y-83269995D01*
X141866595Y-83156749D01*
X141999749Y-83067779D01*
X142147708Y-83006492D01*
X142304775Y-82975250D01*
X142464925Y-82975250D01*
X142621992Y-83006492D01*
X142621992Y-83006492D01*
G37*
G36*
X157841992Y-80466492D02*
G01*
X157989951Y-80527779D01*
X158123105Y-80616749D01*
X158236351Y-80729995D01*
X158325321Y-80863149D01*
X158386608Y-81011108D01*
X158417850Y-81168175D01*
X158417850Y-81328325D01*
X158386608Y-81485392D01*
X158325321Y-81633351D01*
X158236351Y-81766505D01*
X158123105Y-81879751D01*
X157989951Y-81968721D01*
X157841992Y-82030008D01*
X157684925Y-82061250D01*
X157524775Y-82061250D01*
X157367708Y-82030008D01*
X157219749Y-81968721D01*
X157086595Y-81879751D01*
X156973349Y-81766505D01*
X156884379Y-81633351D01*
X156823092Y-81485392D01*
X156791850Y-81328325D01*
X156791850Y-81168175D01*
X156823092Y-81011108D01*
X156884379Y-80863149D01*
X156973349Y-80729995D01*
X157086595Y-80616749D01*
X157219749Y-80527779D01*
X157367708Y-80466492D01*
X157524775Y-80435250D01*
X157684925Y-80435250D01*
X157841992Y-80466492D01*
X157841992Y-80466492D01*
G37*
G36*
X142621992Y-80466492D02*
G01*
X142769951Y-80527779D01*
X142903105Y-80616749D01*
X143016351Y-80729995D01*
X143105321Y-80863149D01*
X143166608Y-81011108D01*
X143197850Y-81168175D01*
X143197850Y-81328325D01*
X143166608Y-81485392D01*
X143105321Y-81633351D01*
X143016351Y-81766505D01*
X142903105Y-81879751D01*
X142769951Y-81968721D01*
X142621992Y-82030008D01*
X142464925Y-82061250D01*
X142304775Y-82061250D01*
X142147708Y-82030008D01*
X141999749Y-81968721D01*
X141866595Y-81879751D01*
X141753349Y-81766505D01*
X141664379Y-81633351D01*
X141603092Y-81485392D01*
X141571850Y-81328325D01*
X141571850Y-81168175D01*
X141603092Y-81011108D01*
X141664379Y-80863149D01*
X141753349Y-80729995D01*
X141866595Y-80616749D01*
X141999749Y-80527779D01*
X142147708Y-80466492D01*
X142304775Y-80435250D01*
X142464925Y-80435250D01*
X142621992Y-80466492D01*
X142621992Y-80466492D01*
G37*
G36*
X157841992Y-77926492D02*
G01*
X157989951Y-77987779D01*
X158123105Y-78076749D01*
X158236351Y-78189995D01*
X158325321Y-78323149D01*
X158386608Y-78471108D01*
X158417850Y-78628175D01*
X158417850Y-78788325D01*
X158386608Y-78945392D01*
X158325321Y-79093351D01*
X158236351Y-79226505D01*
X158123105Y-79339751D01*
X157989951Y-79428721D01*
X157841992Y-79490008D01*
X157684925Y-79521250D01*
X157524775Y-79521250D01*
X157367708Y-79490008D01*
X157219749Y-79428721D01*
X157086595Y-79339751D01*
X156973349Y-79226505D01*
X156884379Y-79093351D01*
X156823092Y-78945392D01*
X156791850Y-78788325D01*
X156791850Y-78628175D01*
X156823092Y-78471108D01*
X156884379Y-78323149D01*
X156973349Y-78189995D01*
X157086595Y-78076749D01*
X157219749Y-77987779D01*
X157367708Y-77926492D01*
X157524775Y-77895250D01*
X157684925Y-77895250D01*
X157841992Y-77926492D01*
X157841992Y-77926492D01*
G37*
G36*
X142621992Y-77926492D02*
G01*
X142769951Y-77987779D01*
X142903105Y-78076749D01*
X143016351Y-78189995D01*
X143105321Y-78323149D01*
X143166608Y-78471108D01*
X143197850Y-78628175D01*
X143197850Y-78788325D01*
X143166608Y-78945392D01*
X143105321Y-79093351D01*
X143016351Y-79226505D01*
X142903105Y-79339751D01*
X142769951Y-79428721D01*
X142621992Y-79490008D01*
X142464925Y-79521250D01*
X142304775Y-79521250D01*
X142147708Y-79490008D01*
X141999749Y-79428721D01*
X141866595Y-79339751D01*
X141753349Y-79226505D01*
X141664379Y-79093351D01*
X141603092Y-78945392D01*
X141571850Y-78788325D01*
X141571850Y-78628175D01*
X141603092Y-78471108D01*
X141664379Y-78323149D01*
X141753349Y-78189995D01*
X141866595Y-78076749D01*
X141999749Y-77987779D01*
X142147708Y-77926492D01*
X142304775Y-77895250D01*
X142464925Y-77895250D01*
X142621992Y-77926492D01*
X142621992Y-77926492D01*
G37*
G36*
X157841992Y-75386492D02*
G01*
X157989951Y-75447779D01*
X158123105Y-75536749D01*
X158236351Y-75649995D01*
X158325321Y-75783149D01*
X158386608Y-75931108D01*
X158417850Y-76088175D01*
X158417850Y-76248325D01*
X158386608Y-76405392D01*
X158325321Y-76553351D01*
X158236351Y-76686505D01*
X158123105Y-76799751D01*
X157989951Y-76888721D01*
X157841992Y-76950008D01*
X157684925Y-76981250D01*
X157524775Y-76981250D01*
X157367708Y-76950008D01*
X157219749Y-76888721D01*
X157086595Y-76799751D01*
X156973349Y-76686505D01*
X156884379Y-76553351D01*
X156823092Y-76405392D01*
X156791850Y-76248325D01*
X156791850Y-76088175D01*
X156823092Y-75931108D01*
X156884379Y-75783149D01*
X156973349Y-75649995D01*
X157086595Y-75536749D01*
X157219749Y-75447779D01*
X157367708Y-75386492D01*
X157524775Y-75355250D01*
X157684925Y-75355250D01*
X157841992Y-75386492D01*
X157841992Y-75386492D01*
G37*
G36*
X142621992Y-75386492D02*
G01*
X142769951Y-75447779D01*
X142903105Y-75536749D01*
X143016351Y-75649995D01*
X143105321Y-75783149D01*
X143166608Y-75931108D01*
X143197850Y-76088175D01*
X143197850Y-76248325D01*
X143166608Y-76405392D01*
X143105321Y-76553351D01*
X143016351Y-76686505D01*
X142903105Y-76799751D01*
X142769951Y-76888721D01*
X142621992Y-76950008D01*
X142464925Y-76981250D01*
X142304775Y-76981250D01*
X142147708Y-76950008D01*
X141999749Y-76888721D01*
X141866595Y-76799751D01*
X141753349Y-76686505D01*
X141664379Y-76553351D01*
X141603092Y-76405392D01*
X141571850Y-76248325D01*
X141571850Y-76088175D01*
X141603092Y-75931108D01*
X141664379Y-75783149D01*
X141753349Y-75649995D01*
X141866595Y-75536749D01*
X141999749Y-75447779D01*
X142147708Y-75386492D01*
X142304775Y-75355250D01*
X142464925Y-75355250D01*
X142621992Y-75386492D01*
X142621992Y-75386492D01*
G37*
G36*
X269677724Y-71852434D02*
G01*
X269895724Y-71942733D01*
X270049873Y-72006583D01*
X270384798Y-72230373D01*
X270669627Y-72515202D01*
X270893417Y-72850127D01*
X270925812Y-72928336D01*
X271047566Y-73222276D01*
X271126150Y-73617344D01*
X271126150Y-74020156D01*
X271047566Y-74415224D01*
X270996701Y-74538022D01*
X270893417Y-74787373D01*
X270669627Y-75122298D01*
X270384798Y-75407127D01*
X270049873Y-75630917D01*
X270003819Y-75649993D01*
X269677724Y-75785066D01*
X269282656Y-75863650D01*
X268879844Y-75863650D01*
X268484776Y-75785066D01*
X268158681Y-75649993D01*
X268112627Y-75630917D01*
X267777702Y-75407127D01*
X267492873Y-75122298D01*
X267269083Y-74787373D01*
X267165799Y-74538022D01*
X267114934Y-74415224D01*
X267036350Y-74020156D01*
X267036350Y-73617344D01*
X267114934Y-73222276D01*
X267236688Y-72928336D01*
X267269083Y-72850127D01*
X267492873Y-72515202D01*
X267777702Y-72230373D01*
X268112627Y-72006583D01*
X268266776Y-71942733D01*
X268484776Y-71852434D01*
X268879844Y-71773850D01*
X269282656Y-71773850D01*
X269677724Y-71852434D01*
X269677724Y-71852434D01*
G37*
G36*
X250627724Y-71852434D02*
G01*
X250845724Y-71942733D01*
X250999873Y-72006583D01*
X251334798Y-72230373D01*
X251619627Y-72515202D01*
X251843417Y-72850127D01*
X251875812Y-72928336D01*
X251997566Y-73222276D01*
X252076150Y-73617344D01*
X252076150Y-74020156D01*
X251997566Y-74415224D01*
X251946701Y-74538022D01*
X251843417Y-74787373D01*
X251619627Y-75122298D01*
X251334798Y-75407127D01*
X250999873Y-75630917D01*
X250953819Y-75649993D01*
X250627724Y-75785066D01*
X250232656Y-75863650D01*
X249829844Y-75863650D01*
X249434776Y-75785066D01*
X249108681Y-75649993D01*
X249062627Y-75630917D01*
X248727702Y-75407127D01*
X248442873Y-75122298D01*
X248219083Y-74787373D01*
X248115799Y-74538022D01*
X248064934Y-74415224D01*
X247986350Y-74020156D01*
X247986350Y-73617344D01*
X248064934Y-73222276D01*
X248186688Y-72928336D01*
X248219083Y-72850127D01*
X248442873Y-72515202D01*
X248727702Y-72230373D01*
X249062627Y-72006583D01*
X249216776Y-71942733D01*
X249434776Y-71852434D01*
X249829844Y-71773850D01*
X250232656Y-71773850D01*
X250627724Y-71852434D01*
X250627724Y-71852434D01*
G37*
G36*
X50602724Y-71852434D02*
G01*
X50820724Y-71942733D01*
X50974873Y-72006583D01*
X51309798Y-72230373D01*
X51594627Y-72515202D01*
X51818417Y-72850127D01*
X51850812Y-72928336D01*
X51972566Y-73222276D01*
X52051150Y-73617344D01*
X52051150Y-74020156D01*
X51972566Y-74415224D01*
X51921701Y-74538022D01*
X51818417Y-74787373D01*
X51594627Y-75122298D01*
X51309798Y-75407127D01*
X50974873Y-75630917D01*
X50928819Y-75649993D01*
X50602724Y-75785066D01*
X50207656Y-75863650D01*
X49804844Y-75863650D01*
X49409776Y-75785066D01*
X49083681Y-75649993D01*
X49037627Y-75630917D01*
X48702702Y-75407127D01*
X48417873Y-75122298D01*
X48194083Y-74787373D01*
X48090799Y-74538022D01*
X48039934Y-74415224D01*
X47961350Y-74020156D01*
X47961350Y-73617344D01*
X48039934Y-73222276D01*
X48161688Y-72928336D01*
X48194083Y-72850127D01*
X48417873Y-72515202D01*
X48702702Y-72230373D01*
X49037627Y-72006583D01*
X49191776Y-71942733D01*
X49409776Y-71852434D01*
X49804844Y-71773850D01*
X50207656Y-71773850D01*
X50602724Y-71852434D01*
X50602724Y-71852434D01*
G37*
G36*
X31552724Y-71852434D02*
G01*
X31770724Y-71942733D01*
X31924873Y-72006583D01*
X32259798Y-72230373D01*
X32544627Y-72515202D01*
X32768417Y-72850127D01*
X32800812Y-72928336D01*
X32922566Y-73222276D01*
X33001150Y-73617344D01*
X33001150Y-74020156D01*
X32922566Y-74415224D01*
X32871701Y-74538022D01*
X32768417Y-74787373D01*
X32544627Y-75122298D01*
X32259798Y-75407127D01*
X31924873Y-75630917D01*
X31878819Y-75649993D01*
X31552724Y-75785066D01*
X31157656Y-75863650D01*
X30754844Y-75863650D01*
X30359776Y-75785066D01*
X30033681Y-75649993D01*
X29987627Y-75630917D01*
X29652702Y-75407127D01*
X29367873Y-75122298D01*
X29144083Y-74787373D01*
X29040799Y-74538022D01*
X28989934Y-74415224D01*
X28911350Y-74020156D01*
X28911350Y-73617344D01*
X28989934Y-73222276D01*
X29111688Y-72928336D01*
X29144083Y-72850127D01*
X29367873Y-72515202D01*
X29652702Y-72230373D01*
X29987627Y-72006583D01*
X30141776Y-71942733D01*
X30359776Y-71852434D01*
X30754844Y-71773850D01*
X31157656Y-71773850D01*
X31552724Y-71852434D01*
X31552724Y-71852434D01*
G37*
G36*
X36306354Y-72928335D02*
G01*
X36474876Y-72998139D01*
X36626541Y-73099478D01*
X36755522Y-73228459D01*
X36856861Y-73380124D01*
X36926665Y-73548646D01*
X36962250Y-73727547D01*
X36962250Y-73909953D01*
X36926665Y-74088854D01*
X36856861Y-74257376D01*
X36755522Y-74409041D01*
X36626541Y-74538022D01*
X36474876Y-74639361D01*
X36306354Y-74709165D01*
X36127453Y-74744750D01*
X35945047Y-74744750D01*
X35766146Y-74709165D01*
X35597624Y-74639361D01*
X35445959Y-74538022D01*
X35316978Y-74409041D01*
X35215639Y-74257376D01*
X35145835Y-74088854D01*
X35110250Y-73909953D01*
X35110250Y-73727547D01*
X35145835Y-73548646D01*
X35215639Y-73380124D01*
X35316978Y-73228459D01*
X35445959Y-73099478D01*
X35597624Y-72998139D01*
X35766146Y-72928335D01*
X35945047Y-72892750D01*
X36127453Y-72892750D01*
X36306354Y-72928335D01*
X36306354Y-72928335D01*
G37*
G36*
X55356354Y-72928335D02*
G01*
X55524876Y-72998139D01*
X55676541Y-73099478D01*
X55805522Y-73228459D01*
X55906861Y-73380124D01*
X55976665Y-73548646D01*
X56012250Y-73727547D01*
X56012250Y-73909953D01*
X55976665Y-74088854D01*
X55906861Y-74257376D01*
X55805522Y-74409041D01*
X55676541Y-74538022D01*
X55524876Y-74639361D01*
X55356354Y-74709165D01*
X55177453Y-74744750D01*
X54995047Y-74744750D01*
X54816146Y-74709165D01*
X54647624Y-74639361D01*
X54495959Y-74538022D01*
X54366978Y-74409041D01*
X54265639Y-74257376D01*
X54195835Y-74088854D01*
X54160250Y-73909953D01*
X54160250Y-73727547D01*
X54195835Y-73548646D01*
X54265639Y-73380124D01*
X54366978Y-73228459D01*
X54495959Y-73099478D01*
X54647624Y-72998139D01*
X54816146Y-72928335D01*
X54995047Y-72892750D01*
X55177453Y-72892750D01*
X55356354Y-72928335D01*
X55356354Y-72928335D01*
G37*
G36*
X264271354Y-72928335D02*
G01*
X264439876Y-72998139D01*
X264591541Y-73099478D01*
X264720522Y-73228459D01*
X264821861Y-73380124D01*
X264891665Y-73548646D01*
X264927250Y-73727547D01*
X264927250Y-73909953D01*
X264891665Y-74088854D01*
X264821861Y-74257376D01*
X264720522Y-74409041D01*
X264591541Y-74538022D01*
X264439876Y-74639361D01*
X264271354Y-74709165D01*
X264092453Y-74744750D01*
X263910047Y-74744750D01*
X263731146Y-74709165D01*
X263562624Y-74639361D01*
X263410959Y-74538022D01*
X263281978Y-74409041D01*
X263180639Y-74257376D01*
X263110835Y-74088854D01*
X263075250Y-73909953D01*
X263075250Y-73727547D01*
X263110835Y-73548646D01*
X263180639Y-73380124D01*
X263281978Y-73228459D01*
X263410959Y-73099478D01*
X263562624Y-72998139D01*
X263731146Y-72928335D01*
X263910047Y-72892750D01*
X264092453Y-72892750D01*
X264271354Y-72928335D01*
X264271354Y-72928335D01*
G37*
G36*
X274431354Y-72928335D02*
G01*
X274599876Y-72998139D01*
X274751541Y-73099478D01*
X274880522Y-73228459D01*
X274981861Y-73380124D01*
X275051665Y-73548646D01*
X275087250Y-73727547D01*
X275087250Y-73909953D01*
X275051665Y-74088854D01*
X274981861Y-74257376D01*
X274880522Y-74409041D01*
X274751541Y-74538022D01*
X274599876Y-74639361D01*
X274431354Y-74709165D01*
X274252453Y-74744750D01*
X274070047Y-74744750D01*
X273891146Y-74709165D01*
X273722624Y-74639361D01*
X273570959Y-74538022D01*
X273441978Y-74409041D01*
X273340639Y-74257376D01*
X273270835Y-74088854D01*
X273235250Y-73909953D01*
X273235250Y-73727547D01*
X273270835Y-73548646D01*
X273340639Y-73380124D01*
X273441978Y-73228459D01*
X273570959Y-73099478D01*
X273722624Y-72998139D01*
X273891146Y-72928335D01*
X274070047Y-72892750D01*
X274252453Y-72892750D01*
X274431354Y-72928335D01*
X274431354Y-72928335D01*
G37*
G36*
X255381354Y-72928335D02*
G01*
X255549876Y-72998139D01*
X255701541Y-73099478D01*
X255830522Y-73228459D01*
X255931861Y-73380124D01*
X256001665Y-73548646D01*
X256037250Y-73727547D01*
X256037250Y-73909953D01*
X256001665Y-74088854D01*
X255931861Y-74257376D01*
X255830522Y-74409041D01*
X255701541Y-74538022D01*
X255549876Y-74639361D01*
X255381354Y-74709165D01*
X255202453Y-74744750D01*
X255020047Y-74744750D01*
X254841146Y-74709165D01*
X254672624Y-74639361D01*
X254520959Y-74538022D01*
X254391978Y-74409041D01*
X254290639Y-74257376D01*
X254220835Y-74088854D01*
X254185250Y-73909953D01*
X254185250Y-73727547D01*
X254220835Y-73548646D01*
X254290639Y-73380124D01*
X254391978Y-73228459D01*
X254520959Y-73099478D01*
X254672624Y-72998139D01*
X254841146Y-72928335D01*
X255020047Y-72892750D01*
X255202453Y-72892750D01*
X255381354Y-72928335D01*
X255381354Y-72928335D01*
G37*
G36*
X45196354Y-72928335D02*
G01*
X45364876Y-72998139D01*
X45516541Y-73099478D01*
X45645522Y-73228459D01*
X45746861Y-73380124D01*
X45816665Y-73548646D01*
X45852250Y-73727547D01*
X45852250Y-73909953D01*
X45816665Y-74088854D01*
X45746861Y-74257376D01*
X45645522Y-74409041D01*
X45516541Y-74538022D01*
X45364876Y-74639361D01*
X45196354Y-74709165D01*
X45017453Y-74744750D01*
X44835047Y-74744750D01*
X44656146Y-74709165D01*
X44487624Y-74639361D01*
X44335959Y-74538022D01*
X44206978Y-74409041D01*
X44105639Y-74257376D01*
X44035835Y-74088854D01*
X44000250Y-73909953D01*
X44000250Y-73727547D01*
X44035835Y-73548646D01*
X44105639Y-73380124D01*
X44206978Y-73228459D01*
X44335959Y-73099478D01*
X44487624Y-72998139D01*
X44656146Y-72928335D01*
X44835047Y-72892750D01*
X45017453Y-72892750D01*
X45196354Y-72928335D01*
X45196354Y-72928335D01*
G37*
G36*
X26146354Y-72928335D02*
G01*
X26314876Y-72998139D01*
X26466541Y-73099478D01*
X26595522Y-73228459D01*
X26696861Y-73380124D01*
X26766665Y-73548646D01*
X26802250Y-73727547D01*
X26802250Y-73909953D01*
X26766665Y-74088854D01*
X26696861Y-74257376D01*
X26595522Y-74409041D01*
X26466541Y-74538022D01*
X26314876Y-74639361D01*
X26146354Y-74709165D01*
X25967453Y-74744750D01*
X25785047Y-74744750D01*
X25606146Y-74709165D01*
X25437624Y-74639361D01*
X25285959Y-74538022D01*
X25156978Y-74409041D01*
X25055639Y-74257376D01*
X24985835Y-74088854D01*
X24950250Y-73909953D01*
X24950250Y-73727547D01*
X24985835Y-73548646D01*
X25055639Y-73380124D01*
X25156978Y-73228459D01*
X25285959Y-73099478D01*
X25437624Y-72998139D01*
X25606146Y-72928335D01*
X25785047Y-72892750D01*
X25967453Y-72892750D01*
X26146354Y-72928335D01*
X26146354Y-72928335D01*
G37*
G36*
X245221354Y-72928335D02*
G01*
X245389876Y-72998139D01*
X245541541Y-73099478D01*
X245670522Y-73228459D01*
X245771861Y-73380124D01*
X245841665Y-73548646D01*
X245877250Y-73727547D01*
X245877250Y-73909953D01*
X245841665Y-74088854D01*
X245771861Y-74257376D01*
X245670522Y-74409041D01*
X245541541Y-74538022D01*
X245389876Y-74639361D01*
X245221354Y-74709165D01*
X245042453Y-74744750D01*
X244860047Y-74744750D01*
X244681146Y-74709165D01*
X244512624Y-74639361D01*
X244360959Y-74538022D01*
X244231978Y-74409041D01*
X244130639Y-74257376D01*
X244060835Y-74088854D01*
X244025250Y-73909953D01*
X244025250Y-73727547D01*
X244060835Y-73548646D01*
X244130639Y-73380124D01*
X244231978Y-73228459D01*
X244360959Y-73099478D01*
X244512624Y-72998139D01*
X244681146Y-72928335D01*
X244860047Y-72892750D01*
X245042453Y-72892750D01*
X245221354Y-72928335D01*
X245221354Y-72928335D01*
G37*
G36*
X142621992Y-72846492D02*
G01*
X142769951Y-72907779D01*
X142903105Y-72996749D01*
X143016351Y-73109995D01*
X143105321Y-73243149D01*
X143166608Y-73391108D01*
X143197850Y-73548175D01*
X143197850Y-73708325D01*
X143166608Y-73865392D01*
X143105321Y-74013351D01*
X143016351Y-74146505D01*
X142903105Y-74259751D01*
X142769951Y-74348721D01*
X142621992Y-74410008D01*
X142464925Y-74441250D01*
X142304775Y-74441250D01*
X142147708Y-74410008D01*
X141999749Y-74348721D01*
X141866595Y-74259751D01*
X141753349Y-74146505D01*
X141664379Y-74013351D01*
X141603092Y-73865392D01*
X141571850Y-73708325D01*
X141571850Y-73548175D01*
X141603092Y-73391108D01*
X141664379Y-73243149D01*
X141753349Y-73109995D01*
X141866595Y-72996749D01*
X141999749Y-72907779D01*
X142147708Y-72846492D01*
X142304775Y-72815250D01*
X142464925Y-72815250D01*
X142621992Y-72846492D01*
X142621992Y-72846492D01*
G37*
G36*
X157841992Y-72846492D02*
G01*
X157989951Y-72907779D01*
X158123105Y-72996749D01*
X158236351Y-73109995D01*
X158325321Y-73243149D01*
X158386608Y-73391108D01*
X158417850Y-73548175D01*
X158417850Y-73708325D01*
X158386608Y-73865392D01*
X158325321Y-74013351D01*
X158236351Y-74146505D01*
X158123105Y-74259751D01*
X157989951Y-74348721D01*
X157841992Y-74410008D01*
X157684925Y-74441250D01*
X157524775Y-74441250D01*
X157367708Y-74410008D01*
X157219749Y-74348721D01*
X157086595Y-74259751D01*
X156973349Y-74146505D01*
X156884379Y-74013351D01*
X156823092Y-73865392D01*
X156791850Y-73708325D01*
X156791850Y-73548175D01*
X156823092Y-73391108D01*
X156884379Y-73243149D01*
X156973349Y-73109995D01*
X157086595Y-72996749D01*
X157219749Y-72907779D01*
X157367708Y-72846492D01*
X157524775Y-72815250D01*
X157684925Y-72815250D01*
X157841992Y-72846492D01*
X157841992Y-72846492D01*
G37*
G36*
X142621992Y-70306492D02*
G01*
X142769951Y-70367779D01*
X142903105Y-70456749D01*
X143016351Y-70569995D01*
X143105321Y-70703149D01*
X143166608Y-70851108D01*
X143197850Y-71008175D01*
X143197850Y-71168325D01*
X143166608Y-71325392D01*
X143105321Y-71473351D01*
X143016351Y-71606505D01*
X142903105Y-71719751D01*
X142769951Y-71808721D01*
X142621992Y-71870008D01*
X142464925Y-71901250D01*
X142304775Y-71901250D01*
X142147708Y-71870008D01*
X141999749Y-71808721D01*
X141866595Y-71719751D01*
X141753349Y-71606505D01*
X141664379Y-71473351D01*
X141603092Y-71325392D01*
X141571850Y-71168325D01*
X141571850Y-71008175D01*
X141603092Y-70851108D01*
X141664379Y-70703149D01*
X141753349Y-70569995D01*
X141866595Y-70456749D01*
X141999749Y-70367779D01*
X142147708Y-70306492D01*
X142304775Y-70275250D01*
X142464925Y-70275250D01*
X142621992Y-70306492D01*
X142621992Y-70306492D01*
G37*
G36*
X157841992Y-70306492D02*
G01*
X157989951Y-70367779D01*
X158123105Y-70456749D01*
X158236351Y-70569995D01*
X158325321Y-70703149D01*
X158386608Y-70851108D01*
X158417850Y-71008175D01*
X158417850Y-71168325D01*
X158386608Y-71325392D01*
X158325321Y-71473351D01*
X158236351Y-71606505D01*
X158123105Y-71719751D01*
X157989951Y-71808721D01*
X157841992Y-71870008D01*
X157684925Y-71901250D01*
X157524775Y-71901250D01*
X157367708Y-71870008D01*
X157219749Y-71808721D01*
X157086595Y-71719751D01*
X156973349Y-71606505D01*
X156884379Y-71473351D01*
X156823092Y-71325392D01*
X156791850Y-71168325D01*
X156791850Y-71008175D01*
X156823092Y-70851108D01*
X156884379Y-70703149D01*
X156973349Y-70569995D01*
X157086595Y-70456749D01*
X157219749Y-70367779D01*
X157367708Y-70306492D01*
X157524775Y-70275250D01*
X157684925Y-70275250D01*
X157841992Y-70306492D01*
X157841992Y-70306492D01*
G37*
G36*
X107752724Y-67089934D02*
G01*
X107970724Y-67180233D01*
X108124873Y-67244083D01*
X108459798Y-67467873D01*
X108744627Y-67752702D01*
X108968417Y-68087627D01*
X109000812Y-68165836D01*
X109122566Y-68459776D01*
X109201150Y-68854844D01*
X109201150Y-69257656D01*
X109122566Y-69652724D01*
X109071701Y-69775522D01*
X108968417Y-70024873D01*
X108744627Y-70359798D01*
X108459798Y-70644627D01*
X108124873Y-70868417D01*
X107970724Y-70932267D01*
X107752724Y-71022566D01*
X107357656Y-71101150D01*
X106954844Y-71101150D01*
X106559776Y-71022566D01*
X106341776Y-70932267D01*
X106187627Y-70868417D01*
X105852702Y-70644627D01*
X105567873Y-70359798D01*
X105344083Y-70024873D01*
X105240799Y-69775522D01*
X105189934Y-69652724D01*
X105111350Y-69257656D01*
X105111350Y-68854844D01*
X105189934Y-68459776D01*
X105311688Y-68165836D01*
X105344083Y-68087627D01*
X105567873Y-67752702D01*
X105852702Y-67467873D01*
X106187627Y-67244083D01*
X106341776Y-67180233D01*
X106559776Y-67089934D01*
X106954844Y-67011350D01*
X107357656Y-67011350D01*
X107752724Y-67089934D01*
X107752724Y-67089934D01*
G37*
G36*
X69652724Y-67089934D02*
G01*
X69870724Y-67180233D01*
X70024873Y-67244083D01*
X70359798Y-67467873D01*
X70644627Y-67752702D01*
X70868417Y-68087627D01*
X70900812Y-68165836D01*
X71022566Y-68459776D01*
X71101150Y-68854844D01*
X71101150Y-69257656D01*
X71022566Y-69652724D01*
X70971701Y-69775522D01*
X70868417Y-70024873D01*
X70644627Y-70359798D01*
X70359798Y-70644627D01*
X70024873Y-70868417D01*
X69870724Y-70932267D01*
X69652724Y-71022566D01*
X69257656Y-71101150D01*
X68854844Y-71101150D01*
X68459776Y-71022566D01*
X68241776Y-70932267D01*
X68087627Y-70868417D01*
X67752702Y-70644627D01*
X67467873Y-70359798D01*
X67244083Y-70024873D01*
X67140799Y-69775522D01*
X67089934Y-69652724D01*
X67011350Y-69257656D01*
X67011350Y-68854844D01*
X67089934Y-68459776D01*
X67211688Y-68165836D01*
X67244083Y-68087627D01*
X67467873Y-67752702D01*
X67752702Y-67467873D01*
X68087627Y-67244083D01*
X68241776Y-67180233D01*
X68459776Y-67089934D01*
X68854844Y-67011350D01*
X69257656Y-67011350D01*
X69652724Y-67089934D01*
X69652724Y-67089934D01*
G37*
G36*
X126802724Y-67089934D02*
G01*
X127020724Y-67180233D01*
X127174873Y-67244083D01*
X127509798Y-67467873D01*
X127794627Y-67752702D01*
X128018417Y-68087627D01*
X128050812Y-68165836D01*
X128172566Y-68459776D01*
X128251150Y-68854844D01*
X128251150Y-69257656D01*
X128172566Y-69652724D01*
X128121701Y-69775522D01*
X128018417Y-70024873D01*
X127794627Y-70359798D01*
X127509798Y-70644627D01*
X127174873Y-70868417D01*
X127020724Y-70932267D01*
X126802724Y-71022566D01*
X126407656Y-71101150D01*
X126004844Y-71101150D01*
X125609776Y-71022566D01*
X125391776Y-70932267D01*
X125237627Y-70868417D01*
X124902702Y-70644627D01*
X124617873Y-70359798D01*
X124394083Y-70024873D01*
X124290799Y-69775522D01*
X124239934Y-69652724D01*
X124161350Y-69257656D01*
X124161350Y-68854844D01*
X124239934Y-68459776D01*
X124361688Y-68165836D01*
X124394083Y-68087627D01*
X124617873Y-67752702D01*
X124902702Y-67467873D01*
X125237627Y-67244083D01*
X125391776Y-67180233D01*
X125609776Y-67089934D01*
X126004844Y-67011350D01*
X126407656Y-67011350D01*
X126802724Y-67089934D01*
X126802724Y-67089934D01*
G37*
G36*
X88702724Y-67089934D02*
G01*
X88920724Y-67180233D01*
X89074873Y-67244083D01*
X89409798Y-67467873D01*
X89694627Y-67752702D01*
X89918417Y-68087627D01*
X89950812Y-68165836D01*
X90072566Y-68459776D01*
X90151150Y-68854844D01*
X90151150Y-69257656D01*
X90072566Y-69652724D01*
X90021701Y-69775522D01*
X89918417Y-70024873D01*
X89694627Y-70359798D01*
X89409798Y-70644627D01*
X89074873Y-70868417D01*
X88920724Y-70932267D01*
X88702724Y-71022566D01*
X88307656Y-71101150D01*
X87904844Y-71101150D01*
X87509776Y-71022566D01*
X87291776Y-70932267D01*
X87137627Y-70868417D01*
X86802702Y-70644627D01*
X86517873Y-70359798D01*
X86294083Y-70024873D01*
X86190799Y-69775522D01*
X86139934Y-69652724D01*
X86061350Y-69257656D01*
X86061350Y-68854844D01*
X86139934Y-68459776D01*
X86261688Y-68165836D01*
X86294083Y-68087627D01*
X86517873Y-67752702D01*
X86802702Y-67467873D01*
X87137627Y-67244083D01*
X87291776Y-67180233D01*
X87509776Y-67089934D01*
X87904844Y-67011350D01*
X88307656Y-67011350D01*
X88702724Y-67089934D01*
X88702724Y-67089934D01*
G37*
G36*
X231577724Y-67089934D02*
G01*
X231795724Y-67180233D01*
X231949873Y-67244083D01*
X232284798Y-67467873D01*
X232569627Y-67752702D01*
X232793417Y-68087627D01*
X232825812Y-68165836D01*
X232947566Y-68459776D01*
X233026150Y-68854844D01*
X233026150Y-69257656D01*
X232947566Y-69652724D01*
X232896701Y-69775522D01*
X232793417Y-70024873D01*
X232569627Y-70359798D01*
X232284798Y-70644627D01*
X231949873Y-70868417D01*
X231795724Y-70932267D01*
X231577724Y-71022566D01*
X231182656Y-71101150D01*
X230779844Y-71101150D01*
X230384776Y-71022566D01*
X230166776Y-70932267D01*
X230012627Y-70868417D01*
X229677702Y-70644627D01*
X229392873Y-70359798D01*
X229169083Y-70024873D01*
X229065799Y-69775522D01*
X229014934Y-69652724D01*
X228936350Y-69257656D01*
X228936350Y-68854844D01*
X229014934Y-68459776D01*
X229136688Y-68165836D01*
X229169083Y-68087627D01*
X229392873Y-67752702D01*
X229677702Y-67467873D01*
X230012627Y-67244083D01*
X230166776Y-67180233D01*
X230384776Y-67089934D01*
X230779844Y-67011350D01*
X231182656Y-67011350D01*
X231577724Y-67089934D01*
X231577724Y-67089934D01*
G37*
G36*
X212527724Y-67089934D02*
G01*
X212745724Y-67180233D01*
X212899873Y-67244083D01*
X213234798Y-67467873D01*
X213519627Y-67752702D01*
X213743417Y-68087627D01*
X213775812Y-68165836D01*
X213897566Y-68459776D01*
X213976150Y-68854844D01*
X213976150Y-69257656D01*
X213897566Y-69652724D01*
X213846701Y-69775522D01*
X213743417Y-70024873D01*
X213519627Y-70359798D01*
X213234798Y-70644627D01*
X212899873Y-70868417D01*
X212745724Y-70932267D01*
X212527724Y-71022566D01*
X212132656Y-71101150D01*
X211729844Y-71101150D01*
X211334776Y-71022566D01*
X211116776Y-70932267D01*
X210962627Y-70868417D01*
X210627702Y-70644627D01*
X210342873Y-70359798D01*
X210119083Y-70024873D01*
X210015799Y-69775522D01*
X209964934Y-69652724D01*
X209886350Y-69257656D01*
X209886350Y-68854844D01*
X209964934Y-68459776D01*
X210086688Y-68165836D01*
X210119083Y-68087627D01*
X210342873Y-67752702D01*
X210627702Y-67467873D01*
X210962627Y-67244083D01*
X211116776Y-67180233D01*
X211334776Y-67089934D01*
X211729844Y-67011350D01*
X212132656Y-67011350D01*
X212527724Y-67089934D01*
X212527724Y-67089934D01*
G37*
G36*
X193477724Y-67089934D02*
G01*
X193695724Y-67180233D01*
X193849873Y-67244083D01*
X194184798Y-67467873D01*
X194469627Y-67752702D01*
X194693417Y-68087627D01*
X194725812Y-68165836D01*
X194847566Y-68459776D01*
X194926150Y-68854844D01*
X194926150Y-69257656D01*
X194847566Y-69652724D01*
X194796701Y-69775522D01*
X194693417Y-70024873D01*
X194469627Y-70359798D01*
X194184798Y-70644627D01*
X193849873Y-70868417D01*
X193695724Y-70932267D01*
X193477724Y-71022566D01*
X193082656Y-71101150D01*
X192679844Y-71101150D01*
X192284776Y-71022566D01*
X192066776Y-70932267D01*
X191912627Y-70868417D01*
X191577702Y-70644627D01*
X191292873Y-70359798D01*
X191069083Y-70024873D01*
X190965799Y-69775522D01*
X190914934Y-69652724D01*
X190836350Y-69257656D01*
X190836350Y-68854844D01*
X190914934Y-68459776D01*
X191036688Y-68165836D01*
X191069083Y-68087627D01*
X191292873Y-67752702D01*
X191577702Y-67467873D01*
X191912627Y-67244083D01*
X192066776Y-67180233D01*
X192284776Y-67089934D01*
X192679844Y-67011350D01*
X193082656Y-67011350D01*
X193477724Y-67089934D01*
X193477724Y-67089934D01*
G37*
G36*
X174427724Y-67089934D02*
G01*
X174645724Y-67180233D01*
X174799873Y-67244083D01*
X175134798Y-67467873D01*
X175419627Y-67752702D01*
X175643417Y-68087627D01*
X175675812Y-68165836D01*
X175797566Y-68459776D01*
X175876150Y-68854844D01*
X175876150Y-69257656D01*
X175797566Y-69652724D01*
X175746701Y-69775522D01*
X175643417Y-70024873D01*
X175419627Y-70359798D01*
X175134798Y-70644627D01*
X174799873Y-70868417D01*
X174645724Y-70932267D01*
X174427724Y-71022566D01*
X174032656Y-71101150D01*
X173629844Y-71101150D01*
X173234776Y-71022566D01*
X173016776Y-70932267D01*
X172862627Y-70868417D01*
X172527702Y-70644627D01*
X172242873Y-70359798D01*
X172019083Y-70024873D01*
X171915799Y-69775522D01*
X171864934Y-69652724D01*
X171786350Y-69257656D01*
X171786350Y-68854844D01*
X171864934Y-68459776D01*
X171986688Y-68165836D01*
X172019083Y-68087627D01*
X172242873Y-67752702D01*
X172527702Y-67467873D01*
X172862627Y-67244083D01*
X173016776Y-67180233D01*
X173234776Y-67089934D01*
X173629844Y-67011350D01*
X174032656Y-67011350D01*
X174427724Y-67089934D01*
X174427724Y-67089934D01*
G37*
G36*
X207121354Y-68165835D02*
G01*
X207289876Y-68235639D01*
X207441541Y-68336978D01*
X207570522Y-68465959D01*
X207671861Y-68617624D01*
X207741665Y-68786146D01*
X207777250Y-68965047D01*
X207777250Y-69147453D01*
X207741665Y-69326354D01*
X207671861Y-69494876D01*
X207570522Y-69646541D01*
X207441541Y-69775522D01*
X207289876Y-69876861D01*
X207121354Y-69946665D01*
X206942453Y-69982250D01*
X206760047Y-69982250D01*
X206581146Y-69946665D01*
X206412624Y-69876861D01*
X206260959Y-69775522D01*
X206131978Y-69646541D01*
X206030639Y-69494876D01*
X205960835Y-69326354D01*
X205925250Y-69147453D01*
X205925250Y-68965047D01*
X205960835Y-68786146D01*
X206030639Y-68617624D01*
X206131978Y-68465959D01*
X206260959Y-68336978D01*
X206412624Y-68235639D01*
X206581146Y-68165835D01*
X206760047Y-68130250D01*
X206942453Y-68130250D01*
X207121354Y-68165835D01*
X207121354Y-68165835D01*
G37*
G36*
X179181354Y-68165835D02*
G01*
X179349876Y-68235639D01*
X179501541Y-68336978D01*
X179630522Y-68465959D01*
X179731861Y-68617624D01*
X179801665Y-68786146D01*
X179837250Y-68965047D01*
X179837250Y-69147453D01*
X179801665Y-69326354D01*
X179731861Y-69494876D01*
X179630522Y-69646541D01*
X179501541Y-69775522D01*
X179349876Y-69876861D01*
X179181354Y-69946665D01*
X179002453Y-69982250D01*
X178820047Y-69982250D01*
X178641146Y-69946665D01*
X178472624Y-69876861D01*
X178320959Y-69775522D01*
X178191978Y-69646541D01*
X178090639Y-69494876D01*
X178020835Y-69326354D01*
X177985250Y-69147453D01*
X177985250Y-68965047D01*
X178020835Y-68786146D01*
X178090639Y-68617624D01*
X178191978Y-68465959D01*
X178320959Y-68336978D01*
X178472624Y-68235639D01*
X178641146Y-68165835D01*
X178820047Y-68130250D01*
X179002453Y-68130250D01*
X179181354Y-68165835D01*
X179181354Y-68165835D01*
G37*
G36*
X74406354Y-68165835D02*
G01*
X74574876Y-68235639D01*
X74726541Y-68336978D01*
X74855522Y-68465959D01*
X74956861Y-68617624D01*
X75026665Y-68786146D01*
X75062250Y-68965047D01*
X75062250Y-69147453D01*
X75026665Y-69326354D01*
X74956861Y-69494876D01*
X74855522Y-69646541D01*
X74726541Y-69775522D01*
X74574876Y-69876861D01*
X74406354Y-69946665D01*
X74227453Y-69982250D01*
X74045047Y-69982250D01*
X73866146Y-69946665D01*
X73697624Y-69876861D01*
X73545959Y-69775522D01*
X73416978Y-69646541D01*
X73315639Y-69494876D01*
X73245835Y-69326354D01*
X73210250Y-69147453D01*
X73210250Y-68965047D01*
X73245835Y-68786146D01*
X73315639Y-68617624D01*
X73416978Y-68465959D01*
X73545959Y-68336978D01*
X73697624Y-68235639D01*
X73866146Y-68165835D01*
X74045047Y-68130250D01*
X74227453Y-68130250D01*
X74406354Y-68165835D01*
X74406354Y-68165835D01*
G37*
G36*
X64246354Y-68165835D02*
G01*
X64414876Y-68235639D01*
X64566541Y-68336978D01*
X64695522Y-68465959D01*
X64796861Y-68617624D01*
X64866665Y-68786146D01*
X64902250Y-68965047D01*
X64902250Y-69147453D01*
X64866665Y-69326354D01*
X64796861Y-69494876D01*
X64695522Y-69646541D01*
X64566541Y-69775522D01*
X64414876Y-69876861D01*
X64246354Y-69946665D01*
X64067453Y-69982250D01*
X63885047Y-69982250D01*
X63706146Y-69946665D01*
X63537624Y-69876861D01*
X63385959Y-69775522D01*
X63256978Y-69646541D01*
X63155639Y-69494876D01*
X63085835Y-69326354D01*
X63050250Y-69147453D01*
X63050250Y-68965047D01*
X63085835Y-68786146D01*
X63155639Y-68617624D01*
X63256978Y-68465959D01*
X63385959Y-68336978D01*
X63537624Y-68235639D01*
X63706146Y-68165835D01*
X63885047Y-68130250D01*
X64067453Y-68130250D01*
X64246354Y-68165835D01*
X64246354Y-68165835D01*
G37*
G36*
X169021354Y-68165835D02*
G01*
X169189876Y-68235639D01*
X169341541Y-68336978D01*
X169470522Y-68465959D01*
X169571861Y-68617624D01*
X169641665Y-68786146D01*
X169677250Y-68965047D01*
X169677250Y-69147453D01*
X169641665Y-69326354D01*
X169571861Y-69494876D01*
X169470522Y-69646541D01*
X169341541Y-69775522D01*
X169189876Y-69876861D01*
X169021354Y-69946665D01*
X168842453Y-69982250D01*
X168660047Y-69982250D01*
X168481146Y-69946665D01*
X168312624Y-69876861D01*
X168160959Y-69775522D01*
X168031978Y-69646541D01*
X167930639Y-69494876D01*
X167860835Y-69326354D01*
X167825250Y-69147453D01*
X167825250Y-68965047D01*
X167860835Y-68786146D01*
X167930639Y-68617624D01*
X168031978Y-68465959D01*
X168160959Y-68336978D01*
X168312624Y-68235639D01*
X168481146Y-68165835D01*
X168660047Y-68130250D01*
X168842453Y-68130250D01*
X169021354Y-68165835D01*
X169021354Y-68165835D01*
G37*
G36*
X93456354Y-68165835D02*
G01*
X93624876Y-68235639D01*
X93776541Y-68336978D01*
X93905522Y-68465959D01*
X94006861Y-68617624D01*
X94076665Y-68786146D01*
X94112250Y-68965047D01*
X94112250Y-69147453D01*
X94076665Y-69326354D01*
X94006861Y-69494876D01*
X93905522Y-69646541D01*
X93776541Y-69775522D01*
X93624876Y-69876861D01*
X93456354Y-69946665D01*
X93277453Y-69982250D01*
X93095047Y-69982250D01*
X92916146Y-69946665D01*
X92747624Y-69876861D01*
X92595959Y-69775522D01*
X92466978Y-69646541D01*
X92365639Y-69494876D01*
X92295835Y-69326354D01*
X92260250Y-69147453D01*
X92260250Y-68965047D01*
X92295835Y-68786146D01*
X92365639Y-68617624D01*
X92466978Y-68465959D01*
X92595959Y-68336978D01*
X92747624Y-68235639D01*
X92916146Y-68165835D01*
X93095047Y-68130250D01*
X93277453Y-68130250D01*
X93456354Y-68165835D01*
X93456354Y-68165835D01*
G37*
G36*
X83296354Y-68165835D02*
G01*
X83464876Y-68235639D01*
X83616541Y-68336978D01*
X83745522Y-68465959D01*
X83846861Y-68617624D01*
X83916665Y-68786146D01*
X83952250Y-68965047D01*
X83952250Y-69147453D01*
X83916665Y-69326354D01*
X83846861Y-69494876D01*
X83745522Y-69646541D01*
X83616541Y-69775522D01*
X83464876Y-69876861D01*
X83296354Y-69946665D01*
X83117453Y-69982250D01*
X82935047Y-69982250D01*
X82756146Y-69946665D01*
X82587624Y-69876861D01*
X82435959Y-69775522D01*
X82306978Y-69646541D01*
X82205639Y-69494876D01*
X82135835Y-69326354D01*
X82100250Y-69147453D01*
X82100250Y-68965047D01*
X82135835Y-68786146D01*
X82205639Y-68617624D01*
X82306978Y-68465959D01*
X82435959Y-68336978D01*
X82587624Y-68235639D01*
X82756146Y-68165835D01*
X82935047Y-68130250D01*
X83117453Y-68130250D01*
X83296354Y-68165835D01*
X83296354Y-68165835D01*
G37*
G36*
X112506354Y-68165835D02*
G01*
X112674876Y-68235639D01*
X112826541Y-68336978D01*
X112955522Y-68465959D01*
X113056861Y-68617624D01*
X113126665Y-68786146D01*
X113162250Y-68965047D01*
X113162250Y-69147453D01*
X113126665Y-69326354D01*
X113056861Y-69494876D01*
X112955522Y-69646541D01*
X112826541Y-69775522D01*
X112674876Y-69876861D01*
X112506354Y-69946665D01*
X112327453Y-69982250D01*
X112145047Y-69982250D01*
X111966146Y-69946665D01*
X111797624Y-69876861D01*
X111645959Y-69775522D01*
X111516978Y-69646541D01*
X111415639Y-69494876D01*
X111345835Y-69326354D01*
X111310250Y-69147453D01*
X111310250Y-68965047D01*
X111345835Y-68786146D01*
X111415639Y-68617624D01*
X111516978Y-68465959D01*
X111645959Y-68336978D01*
X111797624Y-68235639D01*
X111966146Y-68165835D01*
X112145047Y-68130250D01*
X112327453Y-68130250D01*
X112506354Y-68165835D01*
X112506354Y-68165835D01*
G37*
G36*
X131556354Y-68165835D02*
G01*
X131724876Y-68235639D01*
X131876541Y-68336978D01*
X132005522Y-68465959D01*
X132106861Y-68617624D01*
X132176665Y-68786146D01*
X132212250Y-68965047D01*
X132212250Y-69147453D01*
X132176665Y-69326354D01*
X132106861Y-69494876D01*
X132005522Y-69646541D01*
X131876541Y-69775522D01*
X131724876Y-69876861D01*
X131556354Y-69946665D01*
X131377453Y-69982250D01*
X131195047Y-69982250D01*
X131016146Y-69946665D01*
X130847624Y-69876861D01*
X130695959Y-69775522D01*
X130566978Y-69646541D01*
X130465639Y-69494876D01*
X130395835Y-69326354D01*
X130360250Y-69147453D01*
X130360250Y-68965047D01*
X130395835Y-68786146D01*
X130465639Y-68617624D01*
X130566978Y-68465959D01*
X130695959Y-68336978D01*
X130847624Y-68235639D01*
X131016146Y-68165835D01*
X131195047Y-68130250D01*
X131377453Y-68130250D01*
X131556354Y-68165835D01*
X131556354Y-68165835D01*
G37*
G36*
X121396354Y-68165835D02*
G01*
X121564876Y-68235639D01*
X121716541Y-68336978D01*
X121845522Y-68465959D01*
X121946861Y-68617624D01*
X122016665Y-68786146D01*
X122052250Y-68965047D01*
X122052250Y-69147453D01*
X122016665Y-69326354D01*
X121946861Y-69494876D01*
X121845522Y-69646541D01*
X121716541Y-69775522D01*
X121564876Y-69876861D01*
X121396354Y-69946665D01*
X121217453Y-69982250D01*
X121035047Y-69982250D01*
X120856146Y-69946665D01*
X120687624Y-69876861D01*
X120535959Y-69775522D01*
X120406978Y-69646541D01*
X120305639Y-69494876D01*
X120235835Y-69326354D01*
X120200250Y-69147453D01*
X120200250Y-68965047D01*
X120235835Y-68786146D01*
X120305639Y-68617624D01*
X120406978Y-68465959D01*
X120535959Y-68336978D01*
X120687624Y-68235639D01*
X120856146Y-68165835D01*
X121035047Y-68130250D01*
X121217453Y-68130250D01*
X121396354Y-68165835D01*
X121396354Y-68165835D01*
G37*
G36*
X198231354Y-68165835D02*
G01*
X198399876Y-68235639D01*
X198551541Y-68336978D01*
X198680522Y-68465959D01*
X198781861Y-68617624D01*
X198851665Y-68786146D01*
X198887250Y-68965047D01*
X198887250Y-69147453D01*
X198851665Y-69326354D01*
X198781861Y-69494876D01*
X198680522Y-69646541D01*
X198551541Y-69775522D01*
X198399876Y-69876861D01*
X198231354Y-69946665D01*
X198052453Y-69982250D01*
X197870047Y-69982250D01*
X197691146Y-69946665D01*
X197522624Y-69876861D01*
X197370959Y-69775522D01*
X197241978Y-69646541D01*
X197140639Y-69494876D01*
X197070835Y-69326354D01*
X197035250Y-69147453D01*
X197035250Y-68965047D01*
X197070835Y-68786146D01*
X197140639Y-68617624D01*
X197241978Y-68465959D01*
X197370959Y-68336978D01*
X197522624Y-68235639D01*
X197691146Y-68165835D01*
X197870047Y-68130250D01*
X198052453Y-68130250D01*
X198231354Y-68165835D01*
X198231354Y-68165835D01*
G37*
G36*
X188071354Y-68165835D02*
G01*
X188239876Y-68235639D01*
X188391541Y-68336978D01*
X188520522Y-68465959D01*
X188621861Y-68617624D01*
X188691665Y-68786146D01*
X188727250Y-68965047D01*
X188727250Y-69147453D01*
X188691665Y-69326354D01*
X188621861Y-69494876D01*
X188520522Y-69646541D01*
X188391541Y-69775522D01*
X188239876Y-69876861D01*
X188071354Y-69946665D01*
X187892453Y-69982250D01*
X187710047Y-69982250D01*
X187531146Y-69946665D01*
X187362624Y-69876861D01*
X187210959Y-69775522D01*
X187081978Y-69646541D01*
X186980639Y-69494876D01*
X186910835Y-69326354D01*
X186875250Y-69147453D01*
X186875250Y-68965047D01*
X186910835Y-68786146D01*
X186980639Y-68617624D01*
X187081978Y-68465959D01*
X187210959Y-68336978D01*
X187362624Y-68235639D01*
X187531146Y-68165835D01*
X187710047Y-68130250D01*
X187892453Y-68130250D01*
X188071354Y-68165835D01*
X188071354Y-68165835D01*
G37*
G36*
X217281354Y-68165835D02*
G01*
X217449876Y-68235639D01*
X217601541Y-68336978D01*
X217730522Y-68465959D01*
X217831861Y-68617624D01*
X217901665Y-68786146D01*
X217937250Y-68965047D01*
X217937250Y-69147453D01*
X217901665Y-69326354D01*
X217831861Y-69494876D01*
X217730522Y-69646541D01*
X217601541Y-69775522D01*
X217449876Y-69876861D01*
X217281354Y-69946665D01*
X217102453Y-69982250D01*
X216920047Y-69982250D01*
X216741146Y-69946665D01*
X216572624Y-69876861D01*
X216420959Y-69775522D01*
X216291978Y-69646541D01*
X216190639Y-69494876D01*
X216120835Y-69326354D01*
X216085250Y-69147453D01*
X216085250Y-68965047D01*
X216120835Y-68786146D01*
X216190639Y-68617624D01*
X216291978Y-68465959D01*
X216420959Y-68336978D01*
X216572624Y-68235639D01*
X216741146Y-68165835D01*
X216920047Y-68130250D01*
X217102453Y-68130250D01*
X217281354Y-68165835D01*
X217281354Y-68165835D01*
G37*
G36*
X236331354Y-68165835D02*
G01*
X236499876Y-68235639D01*
X236651541Y-68336978D01*
X236780522Y-68465959D01*
X236881861Y-68617624D01*
X236951665Y-68786146D01*
X236987250Y-68965047D01*
X236987250Y-69147453D01*
X236951665Y-69326354D01*
X236881861Y-69494876D01*
X236780522Y-69646541D01*
X236651541Y-69775522D01*
X236499876Y-69876861D01*
X236331354Y-69946665D01*
X236152453Y-69982250D01*
X235970047Y-69982250D01*
X235791146Y-69946665D01*
X235622624Y-69876861D01*
X235470959Y-69775522D01*
X235341978Y-69646541D01*
X235240639Y-69494876D01*
X235170835Y-69326354D01*
X235135250Y-69147453D01*
X235135250Y-68965047D01*
X235170835Y-68786146D01*
X235240639Y-68617624D01*
X235341978Y-68465959D01*
X235470959Y-68336978D01*
X235622624Y-68235639D01*
X235791146Y-68165835D01*
X235970047Y-68130250D01*
X236152453Y-68130250D01*
X236331354Y-68165835D01*
X236331354Y-68165835D01*
G37*
G36*
X226171354Y-68165835D02*
G01*
X226339876Y-68235639D01*
X226491541Y-68336978D01*
X226620522Y-68465959D01*
X226721861Y-68617624D01*
X226791665Y-68786146D01*
X226827250Y-68965047D01*
X226827250Y-69147453D01*
X226791665Y-69326354D01*
X226721861Y-69494876D01*
X226620522Y-69646541D01*
X226491541Y-69775522D01*
X226339876Y-69876861D01*
X226171354Y-69946665D01*
X225992453Y-69982250D01*
X225810047Y-69982250D01*
X225631146Y-69946665D01*
X225462624Y-69876861D01*
X225310959Y-69775522D01*
X225181978Y-69646541D01*
X225080639Y-69494876D01*
X225010835Y-69326354D01*
X224975250Y-69147453D01*
X224975250Y-68965047D01*
X225010835Y-68786146D01*
X225080639Y-68617624D01*
X225181978Y-68465959D01*
X225310959Y-68336978D01*
X225462624Y-68235639D01*
X225631146Y-68165835D01*
X225810047Y-68130250D01*
X225992453Y-68130250D01*
X226171354Y-68165835D01*
X226171354Y-68165835D01*
G37*
G36*
X102346354Y-68165835D02*
G01*
X102514876Y-68235639D01*
X102666541Y-68336978D01*
X102795522Y-68465959D01*
X102896861Y-68617624D01*
X102966665Y-68786146D01*
X103002250Y-68965047D01*
X103002250Y-69147453D01*
X102966665Y-69326354D01*
X102896861Y-69494876D01*
X102795522Y-69646541D01*
X102666541Y-69775522D01*
X102514876Y-69876861D01*
X102346354Y-69946665D01*
X102167453Y-69982250D01*
X101985047Y-69982250D01*
X101806146Y-69946665D01*
X101637624Y-69876861D01*
X101485959Y-69775522D01*
X101356978Y-69646541D01*
X101255639Y-69494876D01*
X101185835Y-69326354D01*
X101150250Y-69147453D01*
X101150250Y-68965047D01*
X101185835Y-68786146D01*
X101255639Y-68617624D01*
X101356978Y-68465959D01*
X101485959Y-68336978D01*
X101637624Y-68235639D01*
X101806146Y-68165835D01*
X101985047Y-68130250D01*
X102167453Y-68130250D01*
X102346354Y-68165835D01*
X102346354Y-68165835D01*
G37*
G36*
X157841992Y-67766492D02*
G01*
X157989951Y-67827779D01*
X158123105Y-67916749D01*
X158236351Y-68029995D01*
X158325321Y-68163149D01*
X158386608Y-68311108D01*
X158417850Y-68468175D01*
X158417850Y-68628325D01*
X158386608Y-68785392D01*
X158325321Y-68933351D01*
X158236351Y-69066505D01*
X158123105Y-69179751D01*
X157989951Y-69268721D01*
X157841992Y-69330008D01*
X157684925Y-69361250D01*
X157524775Y-69361250D01*
X157367708Y-69330008D01*
X157219749Y-69268721D01*
X157086595Y-69179751D01*
X156973349Y-69066505D01*
X156884379Y-68933351D01*
X156823092Y-68785392D01*
X156791850Y-68628325D01*
X156791850Y-68468175D01*
X156823092Y-68311108D01*
X156884379Y-68163149D01*
X156973349Y-68029995D01*
X157086595Y-67916749D01*
X157219749Y-67827779D01*
X157367708Y-67766492D01*
X157524775Y-67735250D01*
X157684925Y-67735250D01*
X157841992Y-67766492D01*
X157841992Y-67766492D01*
G37*
G36*
X142621992Y-67766492D02*
G01*
X142769951Y-67827779D01*
X142903105Y-67916749D01*
X143016351Y-68029995D01*
X143105321Y-68163149D01*
X143166608Y-68311108D01*
X143197850Y-68468175D01*
X143197850Y-68628325D01*
X143166608Y-68785392D01*
X143105321Y-68933351D01*
X143016351Y-69066505D01*
X142903105Y-69179751D01*
X142769951Y-69268721D01*
X142621992Y-69330008D01*
X142464925Y-69361250D01*
X142304775Y-69361250D01*
X142147708Y-69330008D01*
X141999749Y-69268721D01*
X141866595Y-69179751D01*
X141753349Y-69066505D01*
X141664379Y-68933351D01*
X141603092Y-68785392D01*
X141571850Y-68628325D01*
X141571850Y-68468175D01*
X141603092Y-68311108D01*
X141664379Y-68163149D01*
X141753349Y-68029995D01*
X141866595Y-67916749D01*
X141999749Y-67827779D01*
X142147708Y-67766492D01*
X142304775Y-67735250D01*
X142464925Y-67735250D01*
X142621992Y-67766492D01*
X142621992Y-67766492D01*
G37*
G36*
X142621992Y-65226492D02*
G01*
X142769951Y-65287779D01*
X142903105Y-65376749D01*
X143016351Y-65489995D01*
X143105321Y-65623149D01*
X143166608Y-65771108D01*
X143197850Y-65928175D01*
X143197850Y-66088325D01*
X143166608Y-66245392D01*
X143105321Y-66393351D01*
X143016351Y-66526505D01*
X142903105Y-66639751D01*
X142769951Y-66728721D01*
X142621992Y-66790008D01*
X142464925Y-66821250D01*
X142304775Y-66821250D01*
X142147708Y-66790008D01*
X141999749Y-66728721D01*
X141866595Y-66639751D01*
X141753349Y-66526505D01*
X141664379Y-66393351D01*
X141603092Y-66245392D01*
X141571850Y-66088325D01*
X141571850Y-65928175D01*
X141603092Y-65771108D01*
X141664379Y-65623149D01*
X141753349Y-65489995D01*
X141866595Y-65376749D01*
X141999749Y-65287779D01*
X142147708Y-65226492D01*
X142304775Y-65195250D01*
X142464925Y-65195250D01*
X142621992Y-65226492D01*
X142621992Y-65226492D01*
G37*
G36*
X157841992Y-65226492D02*
G01*
X157989951Y-65287779D01*
X158123105Y-65376749D01*
X158236351Y-65489995D01*
X158325321Y-65623149D01*
X158386608Y-65771108D01*
X158417850Y-65928175D01*
X158417850Y-66088325D01*
X158386608Y-66245392D01*
X158325321Y-66393351D01*
X158236351Y-66526505D01*
X158123105Y-66639751D01*
X157989951Y-66728721D01*
X157841992Y-66790008D01*
X157684925Y-66821250D01*
X157524775Y-66821250D01*
X157367708Y-66790008D01*
X157219749Y-66728721D01*
X157086595Y-66639751D01*
X156973349Y-66526505D01*
X156884379Y-66393351D01*
X156823092Y-66245392D01*
X156791850Y-66088325D01*
X156791850Y-65928175D01*
X156823092Y-65771108D01*
X156884379Y-65623149D01*
X156973349Y-65489995D01*
X157086595Y-65376749D01*
X157219749Y-65287779D01*
X157367708Y-65226492D01*
X157524775Y-65195250D01*
X157684925Y-65195250D01*
X157841992Y-65226492D01*
X157841992Y-65226492D01*
G37*
G36*
X142621992Y-62686492D02*
G01*
X142769951Y-62747779D01*
X142903105Y-62836749D01*
X143016351Y-62949995D01*
X143105321Y-63083149D01*
X143166608Y-63231108D01*
X143197850Y-63388175D01*
X143197850Y-63548325D01*
X143166608Y-63705392D01*
X143105321Y-63853351D01*
X143016351Y-63986505D01*
X142903105Y-64099751D01*
X142769951Y-64188721D01*
X142621992Y-64250008D01*
X142464925Y-64281250D01*
X142304775Y-64281250D01*
X142147708Y-64250008D01*
X141999749Y-64188721D01*
X141866595Y-64099751D01*
X141753349Y-63986505D01*
X141664379Y-63853351D01*
X141603092Y-63705392D01*
X141571850Y-63548325D01*
X141571850Y-63388175D01*
X141603092Y-63231108D01*
X141664379Y-63083149D01*
X141753349Y-62949995D01*
X141866595Y-62836749D01*
X141999749Y-62747779D01*
X142147708Y-62686492D01*
X142304775Y-62655250D01*
X142464925Y-62655250D01*
X142621992Y-62686492D01*
X142621992Y-62686492D01*
G37*
G36*
X157841992Y-62686492D02*
G01*
X157989951Y-62747779D01*
X158123105Y-62836749D01*
X158236351Y-62949995D01*
X158325321Y-63083149D01*
X158386608Y-63231108D01*
X158417850Y-63388175D01*
X158417850Y-63548325D01*
X158386608Y-63705392D01*
X158325321Y-63853351D01*
X158236351Y-63986505D01*
X158123105Y-64099751D01*
X157989951Y-64188721D01*
X157841992Y-64250008D01*
X157684925Y-64281250D01*
X157524775Y-64281250D01*
X157367708Y-64250008D01*
X157219749Y-64188721D01*
X157086595Y-64099751D01*
X156973349Y-63986505D01*
X156884379Y-63853351D01*
X156823092Y-63705392D01*
X156791850Y-63548325D01*
X156791850Y-63388175D01*
X156823092Y-63231108D01*
X156884379Y-63083149D01*
X156973349Y-62949995D01*
X157086595Y-62836749D01*
X157219749Y-62747779D01*
X157367708Y-62686492D01*
X157524775Y-62655250D01*
X157684925Y-62655250D01*
X157841992Y-62686492D01*
X157841992Y-62686492D01*
G37*
M02*
